%TF.GenerationSoftware,KiCad,Pcbnew,8.0.6*%
%TF.CreationDate,2024-10-28T16:17:03-03:00*%
%TF.ProjectId,CW312T_STM32F,43573331-3254-45f5-9354-4d3332462e6b,rev?*%
%TF.SameCoordinates,Original*%
%TF.FileFunction,Profile,NP*%
%FSLAX46Y46*%
G04 Gerber Fmt 4.6, Leading zero omitted, Abs format (unit mm)*
G04 Created by KiCad (PCBNEW 8.0.6) date 2024-10-28 16:17:03*
%MOMM*%
%LPD*%
G01*
G04 APERTURE LIST*
%TA.AperFunction,Profile*%
%ADD10C,0.100000*%
%TD*%
G04 APERTURE END LIST*
D10*
%TO.C,P1*%
X111260000Y-55555000D02*
X111260000Y-109245000D01*
X121180000Y-55555000D02*
X111260000Y-55555000D01*
X121180000Y-69245000D02*
X121180000Y-55555000D01*
X123680000Y-61045000D02*
X124180000Y-60545000D01*
X123680000Y-69245000D02*
X121180000Y-69245000D01*
X123680000Y-69245000D02*
X123680000Y-61045000D01*
X144380000Y-60545000D02*
X124180000Y-60545000D01*
X144880000Y-61045000D02*
X144380000Y-60545000D01*
X144880000Y-67995000D02*
X144880000Y-61045000D01*
X146780000Y-61045000D02*
X147280000Y-60545000D01*
X146780000Y-67995000D02*
X146780000Y-61045000D01*
X157480000Y-60545000D02*
X147280000Y-60545000D01*
X157980000Y-61045000D02*
X157480000Y-60545000D01*
X157980000Y-69255000D02*
X157980000Y-61045000D01*
X157980000Y-69255000D02*
X160490000Y-69255000D01*
X160490000Y-55555000D02*
X169940000Y-55555000D01*
X160490000Y-69255000D02*
X160490000Y-55555000D01*
X169940000Y-55555000D02*
X169940000Y-109245000D01*
X169940000Y-109245000D02*
X111260000Y-109245000D01*
X146780000Y-67995000D02*
G75*
G02*
X144880000Y-67995000I-950000J0D01*
G01*
%TD*%
M02*
