%TF.GenerationSoftware,KiCad,Pcbnew,8.0.6*%
%TF.CreationDate,2024-10-28T16:17:03-03:00*%
%TF.ProjectId,CW312T_STM32F,43573331-3254-45f5-9354-4d3332462e6b,rev?*%
%TF.SameCoordinates,Original*%
%TF.FileFunction,Copper,L2,Bot*%
%TF.FilePolarity,Positive*%
%FSLAX46Y46*%
G04 Gerber Fmt 4.6, Leading zero omitted, Abs format (unit mm)*
G04 Created by KiCad (PCBNEW 8.0.6) date 2024-10-28 16:17:03*
%MOMM*%
%LPD*%
G01*
G04 APERTURE LIST*
%TA.AperFunction,Conductor*%
%ADD10C,0.200000*%
%TD*%
%TA.AperFunction,ConnectorPad*%
%ADD11R,0.700000X3.200000*%
%TD*%
%TA.AperFunction,ConnectorPad*%
%ADD12R,0.700000X4.300000*%
%TD*%
%TA.AperFunction,ComponentPad*%
%ADD13C,1.000000*%
%TD*%
%TA.AperFunction,ComponentPad*%
%ADD14C,6.200000*%
%TD*%
%TA.AperFunction,ComponentPad*%
%ADD15R,0.850000X0.850000*%
%TD*%
%TA.AperFunction,ComponentPad*%
%ADD16O,0.850000X0.850000*%
%TD*%
%TA.AperFunction,ViaPad*%
%ADD17C,0.600000*%
%TD*%
%TA.AperFunction,ViaPad*%
%ADD18C,0.500000*%
%TD*%
%TA.AperFunction,Conductor*%
%ADD19C,0.300000*%
%TD*%
G04 APERTURE END LIST*
D10*
%TO.N,/nRST*%
X125600000Y-63900000D02*
X125200000Y-64300000D01*
%TD*%
D11*
%TO.P,P1,A1,GND*%
%TO.N,GND*%
X157330000Y-64545000D03*
D12*
%TO.P,P1,A2,GND*%
X156330000Y-63995000D03*
%TO.P,P1,A3,FILT_LP*%
%TO.N,/FILT_HP*%
X155330000Y-63995000D03*
%TO.P,P1,A4,VCC2.5*%
%TO.N,unconnected-(P1-VCC2.5-PadA4)*%
X154330000Y-63995000D03*
%TO.P,P1,A5,VCC3.3*%
%TO.N,VCC*%
X153330000Y-63995000D03*
%TO.P,P1,A6,VCC5.0*%
%TO.N,unconnected-(P1-VCC5.0-PadA6)*%
X152330000Y-63995000D03*
%TO.P,P1,A7,VCCADJ*%
%TO.N,unconnected-(P1-VCCADJ-PadA7)*%
X151330000Y-63995000D03*
%TO.P,P1,A8,GND*%
%TO.N,GND*%
X150330000Y-63995000D03*
%TO.P,P1,A9,HDR1*%
%TO.N,/BOOT0*%
X149330000Y-63995000D03*
%TO.P,P1,A10,HDR2*%
%TO.N,VCC*%
X148330000Y-63995000D03*
%TO.P,P1,A11,HDR3*%
%TO.N,/BOOT1*%
X147330000Y-63995000D03*
%TO.P,P1,A12,HDR4*%
%TO.N,VCC*%
X144330000Y-63995000D03*
%TO.P,P1,A13,HDR5*%
%TO.N,/PC0*%
X143330000Y-63995000D03*
%TO.P,P1,A14,HDR6*%
%TO.N,/PC1*%
X142330000Y-63995000D03*
%TO.P,P1,A15,HDR7*%
%TO.N,/PC2*%
X141330000Y-63995000D03*
%TO.P,P1,A16,HDR8*%
%TO.N,/PC3*%
X140330000Y-63995000D03*
%TO.P,P1,A17,HDR9*%
%TO.N,unconnected-(P1-HDR9-PadA17)*%
X139330000Y-63995000D03*
%TO.P,P1,A18,HDR10*%
%TO.N,unconnected-(P1-HDR10-PadA18)*%
X138330000Y-63995000D03*
%TO.P,P1,A19,nRST_OUT*%
%TO.N,unconnected-(P1-nRST_OUT-PadA19)*%
X137330000Y-63995000D03*
%TO.P,P1,A20,GND*%
%TO.N,GND*%
X136330000Y-63995000D03*
%TO.P,P1,A21,TRACECLK*%
%TO.N,unconnected-(P1-TRACECLK-PadA21)*%
X135330000Y-63995000D03*
%TO.P,P1,A22,TRACED0*%
%TO.N,unconnected-(P1-TRACED0-PadA22)*%
X134330000Y-63995000D03*
%TO.P,P1,A23,TRACED1*%
%TO.N,unconnected-(P1-TRACED1-PadA23)*%
X133330000Y-63995000D03*
%TO.P,P1,A24,TRACED2*%
%TO.N,unconnected-(P1-TRACED2-PadA24)*%
X132330000Y-63995000D03*
%TO.P,P1,A25,TRACED3*%
%TO.N,unconnected-(P1-TRACED3-PadA25)*%
X131330000Y-63995000D03*
%TO.P,P1,A26,JTAG_VREF*%
%TO.N,VCC*%
X130330000Y-63995000D03*
%TO.P,P1,A27,GND*%
%TO.N,GND*%
X129330000Y-63995000D03*
%TO.P,P1,A28,GND*%
X128330000Y-63995000D03*
%TO.P,P1,A29,CLKIN*%
%TO.N,unconnected-(P1-CLKIN-PadA29)*%
X127330000Y-63995000D03*
%TO.P,P1,A30,CLKIN_n*%
%TO.N,unconnected-(P1-CLKIN_n-PadA30)*%
X126330000Y-63995000D03*
%TO.P,P1,A31,JTAG_nRST*%
%TO.N,/nRST*%
X125330000Y-63995000D03*
%TO.P,P1,A32,JTAG_TRST*%
%TO.N,/TRST*%
X124330000Y-63995000D03*
D13*
%TO.P,P1,MH*%
%TO.N,N/C*%
X113480000Y-61045000D03*
X114170000Y-59385000D03*
X114170000Y-62705000D03*
X115830000Y-58695000D03*
D14*
X115830000Y-61045000D03*
D13*
X115830000Y-63395000D03*
X117490000Y-59385000D03*
X117490000Y-62705000D03*
X118180000Y-61045000D03*
X163480000Y-61045000D03*
X164170000Y-59385000D03*
X164170000Y-62705000D03*
X165830000Y-58705000D03*
D14*
X165830000Y-61045000D03*
D13*
X165830000Y-63405000D03*
X167490000Y-59385000D03*
X167490000Y-62705000D03*
X168180000Y-61045000D03*
%TD*%
D15*
%TO.P,J1,1*%
%TO.N,unconnected-(J1-Pad1)*%
X140750000Y-101750000D03*
D16*
%TO.P,J1,2*%
%TO.N,/CAN RX*%
X141750000Y-101750000D03*
%TO.P,J1,3*%
%TO.N,/CAN TX*%
X140750000Y-102750000D03*
%TO.P,J1,4*%
%TO.N,VCC*%
X141750000Y-102750000D03*
%TO.P,J1,5*%
%TO.N,unconnected-(J1-Pad5)*%
X140750000Y-103750000D03*
%TO.P,J1,6*%
%TO.N,GND*%
X141750000Y-103750000D03*
%TD*%
D17*
%TO.N,GND*%
X135200000Y-67000000D03*
X134330000Y-67000000D03*
X146730000Y-71100000D03*
X145851668Y-72650000D03*
D18*
X150515000Y-66985000D03*
D17*
X155300000Y-68900000D03*
X157330000Y-70100000D03*
X155730000Y-70200000D03*
D18*
%TO.N,VCC*%
X152300000Y-68300000D03*
D17*
X147400000Y-102750000D03*
X158000000Y-83800000D03*
X143900000Y-85100000D03*
X144100000Y-106600000D03*
X154400000Y-83800000D03*
D18*
X134100000Y-68800000D03*
D17*
X117800000Y-106600000D03*
D18*
X152300000Y-76300000D03*
X134200000Y-76000000D03*
X153700000Y-70400000D03*
D17*
X154400000Y-85100000D03*
X145500000Y-102750000D03*
%TO.N,GND*%
X122800000Y-104275000D03*
D18*
X140800000Y-86762500D03*
D17*
X140319240Y-95780760D03*
X117850000Y-69150000D03*
X125700000Y-104262500D03*
D18*
X135730000Y-67700000D03*
D17*
X161700000Y-79300000D03*
D18*
X128300000Y-67700000D03*
D17*
X164400000Y-91050000D03*
X164400000Y-79300000D03*
D18*
X142000000Y-68300000D03*
X150500000Y-68900000D03*
D17*
X131500000Y-104275000D03*
X128650000Y-104275000D03*
X159100000Y-91100000D03*
X141700000Y-105200000D03*
X160800000Y-85100000D03*
X138200000Y-105100000D03*
X139700000Y-79100000D03*
D18*
%TO.N,/FILT_HP*%
X154330000Y-67900000D03*
D17*
X155700000Y-74100000D03*
X161650000Y-74150000D03*
D18*
%TO.N,Net-(U1B-VDD_1)*%
X120400000Y-105900000D03*
X146300000Y-94200000D03*
X146300000Y-105900000D03*
X132650000Y-84000000D03*
X141300000Y-94100000D03*
X134500000Y-84000000D03*
D17*
%TO.N,/CAN RX*%
X139000000Y-97000000D03*
X147800000Y-101750000D03*
X143250000Y-101750000D03*
X141800000Y-97000000D03*
D18*
%TO.N,Net-(U1A-VSS_1)*%
X133300000Y-91600000D03*
X131900000Y-91600000D03*
X116650000Y-75900000D03*
X133300000Y-76000000D03*
%TO.N,Net-(P1-SHUNTL)*%
X116600000Y-77300000D03*
X157200000Y-77200000D03*
%TO.N,/PC3*%
X146500000Y-78200000D03*
X144000000Y-86014147D03*
X146500000Y-86000000D03*
X140700000Y-78200000D03*
X140730000Y-67596092D03*
D17*
%TO.N,/TX*%
X139980000Y-71500000D03*
X120200000Y-71500000D03*
X120200000Y-89200000D03*
D18*
X127600000Y-89200000D03*
%TO.N,/BOOT1*%
X136930000Y-75600000D03*
X147980000Y-69000000D03*
X147980000Y-72678630D03*
X146600000Y-72700000D03*
X146600000Y-75600000D03*
%TO.N,/PC1*%
X142730000Y-69718528D03*
D17*
%TO.N,/LED2*%
X149400000Y-91600000D03*
X149400000Y-72100000D03*
X144800000Y-91599997D03*
X144280000Y-71850000D03*
D18*
%TO.N,/TCK*%
X132700000Y-95900000D03*
X124300000Y-95900000D03*
D17*
%TO.N,/nRST*%
X148400000Y-89100000D03*
X145600000Y-89200000D03*
X142000000Y-73300000D03*
D18*
X141930000Y-70615585D03*
D17*
X148400000Y-73300000D03*
%TO.N,/LED3*%
X150200000Y-74000000D03*
X150200000Y-92400000D03*
X144800000Y-92400000D03*
X143450000Y-74000000D03*
D18*
%TO.N,/BOOT0*%
X131330000Y-82600000D03*
X133850000Y-84600000D03*
X150900000Y-99000000D03*
X149330001Y-67700000D03*
X139425000Y-99000000D03*
%TO.N,/GPIO3*%
X138300000Y-73300000D03*
X121100000Y-90500000D03*
X128013051Y-90473899D03*
X121100000Y-73300000D03*
%TO.N,/TRST*%
X136200000Y-96500000D03*
X124930000Y-69900000D03*
X124800000Y-96500000D03*
%TO.N,/PC0*%
X145200000Y-71200000D03*
%TO.N,/PC2*%
X141296572Y-68900000D03*
X145837500Y-86900000D03*
X141305024Y-74000000D03*
X144000000Y-87014147D03*
X145837500Y-74700000D03*
%TO.N,/MISO*%
X128850000Y-76600000D03*
X132050000Y-76600000D03*
D17*
%TO.N,/LED1*%
X147400000Y-90700000D03*
X144668480Y-90810880D03*
D18*
%TO.N,/SCK*%
X127900000Y-78000000D03*
X135800000Y-78000000D03*
X127900000Y-85100000D03*
X129511274Y-85022493D03*
%TO.N,/TMS*%
X127974234Y-91873332D03*
X125500000Y-91800000D03*
%TO.N,/MOSI*%
X128677165Y-86219586D03*
X126800000Y-86200000D03*
X126800000Y-70900000D03*
X132300000Y-70900000D03*
%TO.N,Net-(P1-CLKOUT)*%
X129300000Y-74600000D03*
X141800000Y-74600000D03*
X155600000Y-82700000D03*
X143900000Y-82700000D03*
%TO.N,/GPIO4*%
X137300000Y-74000000D03*
X118450000Y-74000000D03*
X127998463Y-91173749D03*
X118500000Y-91000000D03*
%TO.N,/RX*%
X139300000Y-72400000D03*
X119300000Y-72300000D03*
X127600000Y-89900000D03*
X119450000Y-89850000D03*
%TO.N,/CLKI*%
X151900000Y-90100000D03*
X144596564Y-90064333D03*
%TD*%
D19*
%TO.N,GND*%
X150500000Y-71100000D02*
X146730000Y-71100000D01*
X150500000Y-68900000D02*
X150500000Y-71100000D01*
X150330000Y-66800000D02*
X150330000Y-63995000D01*
X150515000Y-66985000D02*
X150330000Y-66800000D01*
%TO.N,/BOOT0*%
X149330001Y-67700000D02*
X149330000Y-67699999D01*
X149330000Y-67699999D02*
X149330000Y-63995000D01*
X131300000Y-83600000D02*
X132300000Y-84600000D01*
X131300000Y-82630000D02*
X131300000Y-83600000D01*
X132300000Y-84600000D02*
X133850000Y-84600000D01*
X131330000Y-82600000D02*
X131300000Y-82630000D01*
%TO.N,GND*%
X143300000Y-72650000D02*
X145851668Y-72650000D01*
X143300000Y-71137057D02*
X143300000Y-72650000D01*
X142000000Y-69837057D02*
X143300000Y-71137057D01*
X142000000Y-69500000D02*
X142000000Y-69837057D01*
%TO.N,/nRST*%
X125330000Y-69451471D02*
X125330000Y-63995000D01*
X125978529Y-70100000D02*
X125330000Y-69451471D01*
X132348529Y-70100000D02*
X125978529Y-70100000D01*
X132848529Y-70600000D02*
X132348529Y-70100000D01*
X141574365Y-70600000D02*
X132848529Y-70600000D01*
X141589950Y-70615585D02*
X141574365Y-70600000D01*
X141930000Y-70615585D02*
X141589950Y-70615585D01*
%TO.N,GND*%
X136330000Y-69530000D02*
X141970000Y-69530000D01*
X141970000Y-69530000D02*
X142000000Y-69500000D01*
X142000000Y-68300000D02*
X142000000Y-69500000D01*
X136330000Y-63995000D02*
X136330000Y-69530000D01*
%TO.N,/PC2*%
X141330000Y-68400000D02*
X141330000Y-63995000D01*
X141330000Y-68866572D02*
X141330000Y-68400000D01*
%TO.N,/PC0*%
X143330000Y-69330000D02*
X143330000Y-63995000D01*
X145200000Y-71200000D02*
X143330000Y-69330000D01*
X143400000Y-64065000D02*
X143330000Y-63995000D01*
%TO.N,/PC1*%
X142330000Y-66195000D02*
X142330000Y-63995000D01*
X142830003Y-66695003D02*
X142330000Y-66195000D01*
X142830003Y-69618525D02*
X142830003Y-66695003D01*
X142730000Y-69718528D02*
X142830003Y-69618525D01*
%TO.N,/SCK*%
X135800000Y-78000000D02*
X127900000Y-78000000D01*
%TO.N,/PC3*%
X140700000Y-78200000D02*
X146500000Y-78200000D01*
X140330000Y-67196092D02*
X140330000Y-63995000D01*
X140730000Y-67596092D02*
X140330000Y-67196092D01*
%TO.N,/LED2*%
X149300000Y-72000000D02*
X144430000Y-72000000D01*
X149400000Y-72100000D02*
X149300000Y-72000000D01*
X144430000Y-72000000D02*
X144280000Y-71850000D01*
%TO.N,/BOOT1*%
X146621370Y-72678630D02*
X146600000Y-72700000D01*
X147980000Y-72678630D02*
X146621370Y-72678630D01*
%TO.N,/LED3*%
X150200000Y-74000000D02*
X143450000Y-74000000D01*
%TO.N,/nRST*%
X148400000Y-73300000D02*
X142000000Y-73300000D01*
%TO.N,/PC2*%
X142048529Y-74000000D02*
X141305024Y-74000000D01*
X145837500Y-74700000D02*
X142748529Y-74700000D01*
X142748529Y-74700000D02*
X142048529Y-74000000D01*
X141296572Y-68900000D02*
X141330000Y-68866572D01*
D10*
%TO.N,GND*%
X157330000Y-64545000D02*
X157330000Y-70100000D01*
D19*
X156330000Y-69600000D02*
X156330000Y-63995000D01*
X155730000Y-70200000D02*
X156330000Y-69600000D01*
X136330000Y-67100000D02*
X136330000Y-63995000D01*
X135730000Y-67700000D02*
X136330000Y-67100000D01*
%TO.N,Net-(U1B-VDD_1)*%
X132650000Y-84000000D02*
X134500000Y-84000000D01*
%TO.N,VCC*%
X117800000Y-106600000D02*
X144100000Y-106600000D01*
X148330000Y-68300000D02*
X148330000Y-63995000D01*
X153330000Y-70030000D02*
X153700000Y-70400000D01*
X149000000Y-68300000D02*
X148330000Y-68300000D01*
X149000000Y-68300000D02*
X149000000Y-68828529D01*
X152300000Y-76300000D02*
X134500000Y-76300000D01*
X154400000Y-83800000D02*
X158000000Y-83800000D01*
X153330000Y-63995000D02*
X153330000Y-68300000D01*
X144280000Y-69443604D02*
X144280000Y-63995000D01*
X144936396Y-70100000D02*
X144280000Y-69443604D01*
D10*
X130330000Y-66345000D02*
X130330000Y-63995000D01*
D19*
X153330000Y-68300000D02*
X149000000Y-68300000D01*
X149000000Y-68828529D02*
X147728529Y-70100000D01*
X145500000Y-102750000D02*
X147400000Y-102750000D01*
X153330000Y-63995000D02*
X153330000Y-70030000D01*
X134100000Y-68800000D02*
X130330000Y-68800000D01*
X134500000Y-76300000D02*
X134200000Y-76000000D01*
X144936396Y-70100000D02*
X147728529Y-70100000D01*
X130330000Y-68800000D02*
X130330000Y-66345000D01*
X154400000Y-85100000D02*
X143900000Y-85100000D01*
%TO.N,GND*%
X129400000Y-64065000D02*
X129330000Y-63995000D01*
X128330000Y-67670000D02*
X128330000Y-63995000D01*
X141700000Y-105200000D02*
X138300000Y-105200000D01*
D10*
X138300000Y-105200000D02*
X138200000Y-105100000D01*
D19*
X128400000Y-64065000D02*
X128330000Y-63995000D01*
X128300000Y-67700000D02*
X128330000Y-67670000D01*
%TO.N,/FILT_HP*%
X155330000Y-63995000D02*
X155330000Y-67900000D01*
X161600000Y-74100000D02*
X155700000Y-74100000D01*
X155330000Y-67900000D02*
X154330000Y-67900000D01*
X161650000Y-74150000D02*
X161600000Y-74100000D01*
%TO.N,Net-(U1B-VDD_1)*%
X141300000Y-94100000D02*
X146200000Y-94100000D01*
X146200000Y-94100000D02*
X146300000Y-94200000D01*
X146300000Y-105900000D02*
X120400000Y-105900000D01*
%TO.N,/CAN RX*%
X143250000Y-101750000D02*
X147800000Y-101750000D01*
X139000000Y-97000000D02*
X141800000Y-97000000D01*
%TO.N,Net-(U1A-VSS_1)*%
X133300000Y-91600000D02*
X131900000Y-91600000D01*
X133300000Y-76000000D02*
X116650000Y-76000000D01*
%TO.N,Net-(P1-SHUNTL)*%
X157200000Y-77200000D02*
X157100000Y-77300000D01*
X157100000Y-77300000D02*
X116600000Y-77300000D01*
%TO.N,/PC3*%
X146485853Y-86014147D02*
X144000000Y-86014147D01*
X146500000Y-86000000D02*
X146485853Y-86014147D01*
%TO.N,/TX*%
X139980000Y-71500000D02*
X120200000Y-71500000D01*
X127600000Y-89200000D02*
X120200000Y-89200000D01*
D10*
%TO.N,/BOOT1*%
X146550000Y-75650000D02*
X146600000Y-75600000D01*
D19*
X147430000Y-68450000D02*
X147430000Y-64095000D01*
D10*
X136930000Y-75600000D02*
X136980000Y-75650000D01*
D19*
X147980000Y-69000000D02*
X147430000Y-68450000D01*
X136980000Y-75650000D02*
X146550000Y-75650000D01*
%TO.N,/LED2*%
X149400000Y-91600000D02*
X144800003Y-91600000D01*
X144800003Y-91600000D02*
X144800000Y-91599997D01*
%TO.N,/TCK*%
X124300000Y-95900000D02*
X132700000Y-95900000D01*
%TO.N,/nRST*%
X145600000Y-89200000D02*
X148300000Y-89200000D01*
X148300000Y-89200000D02*
X148400000Y-89100000D01*
%TO.N,/LED3*%
X150200000Y-92400000D02*
X144800000Y-92400000D01*
%TO.N,/BOOT0*%
X150900000Y-99000000D02*
X139425000Y-99000000D01*
%TO.N,/GPIO3*%
X138300000Y-73300000D02*
X121100000Y-73300000D01*
X127986950Y-90500000D02*
X121100000Y-90500000D01*
X128013051Y-90473899D02*
X127986950Y-90500000D01*
%TO.N,/TRST*%
X136200000Y-96500000D02*
X124800000Y-96500000D01*
X124930000Y-69900000D02*
X124330000Y-69300000D01*
X124330000Y-69300000D02*
X124330000Y-63995000D01*
%TO.N,/PC2*%
X141530000Y-64195000D02*
X141330000Y-63995000D01*
X145723353Y-87014147D02*
X144000000Y-87014147D01*
X145837500Y-86900000D02*
X145723353Y-87014147D01*
%TO.N,/MISO*%
X132050000Y-76600000D02*
X128850000Y-76600000D01*
%TO.N,/LED1*%
X144779360Y-90700000D02*
X144668480Y-90810880D01*
X147400000Y-90700000D02*
X144779360Y-90700000D01*
%TO.N,/SCK*%
X129511274Y-85022493D02*
X127977507Y-85022493D01*
X127977507Y-85022493D02*
X127900000Y-85100000D01*
%TO.N,/TMS*%
X127900902Y-91800000D02*
X125500000Y-91800000D01*
X127974234Y-91873332D02*
X127900902Y-91800000D01*
%TO.N,/MOSI*%
X126800000Y-70900000D02*
X132300000Y-70900000D01*
X128657579Y-86200000D02*
X126800000Y-86200000D01*
X128677165Y-86219586D02*
X128657579Y-86200000D01*
%TO.N,Net-(P1-CLKOUT)*%
X129300000Y-74600000D02*
X141800000Y-74600000D01*
X155600000Y-82700000D02*
X143900000Y-82700000D01*
%TO.N,/GPIO4*%
X118600000Y-91100000D02*
X118500000Y-91000000D01*
X127924714Y-91100000D02*
X118600000Y-91100000D01*
X127998463Y-91173749D02*
X127924714Y-91100000D01*
X137300000Y-74000000D02*
X118500000Y-74000000D01*
%TO.N,/RX*%
X119400000Y-72400000D02*
X119300000Y-72300000D01*
X127600000Y-89900000D02*
X127550000Y-89850000D01*
X139300000Y-72400000D02*
X119400000Y-72400000D01*
X127550000Y-89850000D02*
X119450000Y-89850000D01*
%TO.N,/CLKI*%
X151900000Y-90100000D02*
X144632231Y-90100000D01*
D10*
X144632231Y-90100000D02*
X144596564Y-90064333D01*
D19*
%TO.N,GND*%
X129330000Y-67700000D02*
X129330000Y-63995000D01*
X128300000Y-67700000D02*
X129330000Y-67700000D01*
%TD*%
%TA.AperFunction,Conductor*%
%TO.N,GND*%
G36*
X120622539Y-56075185D02*
G01*
X120668294Y-56127989D01*
X120679500Y-56179500D01*
X120679500Y-69179108D01*
X120679500Y-69310892D01*
X120684001Y-69327690D01*
X120713608Y-69438187D01*
X120738013Y-69480456D01*
X120779500Y-69552314D01*
X120872686Y-69645500D01*
X120986814Y-69711392D01*
X121114108Y-69745500D01*
X121114110Y-69745500D01*
X123745890Y-69745500D01*
X123745892Y-69745500D01*
X123763226Y-69740855D01*
X123833074Y-69742516D01*
X123883002Y-69772948D01*
X124182054Y-70071999D01*
X124211414Y-70118725D01*
X124249542Y-70227689D01*
X124249543Y-70227691D01*
X124339518Y-70370884D01*
X124339523Y-70370890D01*
X124459109Y-70490476D01*
X124459115Y-70490481D01*
X124602302Y-70580452D01*
X124602305Y-70580454D01*
X124602309Y-70580455D01*
X124602310Y-70580456D01*
X124673239Y-70605275D01*
X124682336Y-70608458D01*
X124739112Y-70649180D01*
X124764859Y-70714133D01*
X124751403Y-70782695D01*
X124703015Y-70833097D01*
X124641381Y-70849500D01*
X120705068Y-70849500D01*
X120639096Y-70830494D01*
X120549522Y-70774210D01*
X120549518Y-70774209D01*
X120379262Y-70714633D01*
X120379249Y-70714630D01*
X120200004Y-70694435D01*
X120199996Y-70694435D01*
X120020750Y-70714630D01*
X120020745Y-70714631D01*
X119850476Y-70774211D01*
X119697737Y-70870184D01*
X119570184Y-70997737D01*
X119474211Y-71150476D01*
X119414631Y-71320745D01*
X119414630Y-71320749D01*
X119401613Y-71436284D01*
X119374546Y-71500698D01*
X119316951Y-71540253D01*
X119292277Y-71545620D01*
X119131944Y-71563685D01*
X118972305Y-71619545D01*
X118972302Y-71619547D01*
X118829115Y-71709518D01*
X118829109Y-71709523D01*
X118709523Y-71829109D01*
X118709518Y-71829115D01*
X118619547Y-71972302D01*
X118619545Y-71972305D01*
X118563685Y-72131943D01*
X118544751Y-72299997D01*
X118544751Y-72300002D01*
X118563685Y-72468056D01*
X118619545Y-72627694D01*
X118619547Y-72627697D01*
X118709518Y-72770884D01*
X118709523Y-72770890D01*
X118829109Y-72890476D01*
X118829115Y-72890481D01*
X118972302Y-72980452D01*
X118972305Y-72980454D01*
X118972309Y-72980455D01*
X118972310Y-72980456D01*
X118994010Y-72988049D01*
X119131943Y-73036314D01*
X119299997Y-73055249D01*
X119300000Y-73055249D01*
X119300002Y-73055249D01*
X119335226Y-73051280D01*
X119349110Y-73050500D01*
X120234107Y-73050500D01*
X120301146Y-73070185D01*
X120346901Y-73122989D01*
X120357327Y-73188385D01*
X120351580Y-73239385D01*
X120324512Y-73303799D01*
X120266917Y-73343353D01*
X120228360Y-73349500D01*
X118861088Y-73349500D01*
X118795117Y-73330494D01*
X118786168Y-73324871D01*
X118777690Y-73319544D01*
X118777689Y-73319543D01*
X118777688Y-73319543D01*
X118618057Y-73263686D01*
X118450003Y-73244751D01*
X118449997Y-73244751D01*
X118281943Y-73263685D01*
X118122305Y-73319545D01*
X118122302Y-73319547D01*
X117979115Y-73409518D01*
X117979109Y-73409523D01*
X117859523Y-73529109D01*
X117859518Y-73529115D01*
X117769547Y-73672302D01*
X117769545Y-73672305D01*
X117713685Y-73831943D01*
X117694751Y-73999997D01*
X117694751Y-74000002D01*
X117713685Y-74168056D01*
X117769545Y-74327694D01*
X117769547Y-74327697D01*
X117859518Y-74470884D01*
X117859523Y-74470890D01*
X117979109Y-74590476D01*
X117979115Y-74590481D01*
X118122302Y-74680452D01*
X118122305Y-74680454D01*
X118122309Y-74680455D01*
X118122310Y-74680456D01*
X118178164Y-74700000D01*
X118281943Y-74736314D01*
X118449997Y-74755249D01*
X118450000Y-74755249D01*
X118450003Y-74755249D01*
X118550835Y-74743887D01*
X118618059Y-74736313D01*
X118777690Y-74680456D01*
X118795117Y-74669506D01*
X118861088Y-74650500D01*
X128439628Y-74650500D01*
X128506667Y-74670185D01*
X128552422Y-74722989D01*
X128562849Y-74760619D01*
X128563687Y-74768059D01*
X128619545Y-74927694D01*
X128619547Y-74927697D01*
X128709518Y-75070884D01*
X128709523Y-75070890D01*
X128776452Y-75137819D01*
X128809937Y-75199142D01*
X128804953Y-75268834D01*
X128763081Y-75324767D01*
X128697617Y-75349184D01*
X128688771Y-75349500D01*
X117212229Y-75349500D01*
X117145190Y-75329815D01*
X117124548Y-75313181D01*
X117120890Y-75309523D01*
X117120884Y-75309518D01*
X116977697Y-75219547D01*
X116977694Y-75219545D01*
X116818056Y-75163685D01*
X116650003Y-75144751D01*
X116649997Y-75144751D01*
X116481943Y-75163685D01*
X116322305Y-75219545D01*
X116322302Y-75219547D01*
X116179115Y-75309518D01*
X116179109Y-75309523D01*
X116059523Y-75429109D01*
X116059518Y-75429115D01*
X115969547Y-75572302D01*
X115969545Y-75572305D01*
X115913685Y-75731943D01*
X115894751Y-75899997D01*
X115894751Y-75900002D01*
X115913685Y-76068056D01*
X115969545Y-76227694D01*
X115969547Y-76227697D01*
X116059518Y-76370884D01*
X116059523Y-76370890D01*
X116184034Y-76495401D01*
X116181863Y-76497571D01*
X116214199Y-76543613D01*
X116217068Y-76613424D01*
X116181739Y-76673704D01*
X116162731Y-76688397D01*
X116129108Y-76709524D01*
X116009523Y-76829109D01*
X116009518Y-76829115D01*
X115919547Y-76972302D01*
X115919545Y-76972305D01*
X115863685Y-77131943D01*
X115844751Y-77299997D01*
X115844751Y-77300002D01*
X115863685Y-77468056D01*
X115919545Y-77627694D01*
X115919547Y-77627697D01*
X116009518Y-77770884D01*
X116009523Y-77770890D01*
X116129109Y-77890476D01*
X116129115Y-77890481D01*
X116272302Y-77980452D01*
X116272305Y-77980454D01*
X116272309Y-77980455D01*
X116272310Y-77980456D01*
X116317310Y-77996202D01*
X116431943Y-78036314D01*
X116599997Y-78055249D01*
X116600000Y-78055249D01*
X116600003Y-78055249D01*
X116700835Y-78043887D01*
X116768059Y-78036313D01*
X116927690Y-77980456D01*
X116945117Y-77969506D01*
X117011088Y-77950500D01*
X127028360Y-77950500D01*
X127095399Y-77970185D01*
X127141154Y-78022989D01*
X127151580Y-78060616D01*
X127163685Y-78168055D01*
X127219545Y-78327694D01*
X127219547Y-78327697D01*
X127309518Y-78470884D01*
X127309523Y-78470890D01*
X127429109Y-78590476D01*
X127429115Y-78590481D01*
X127572302Y-78680452D01*
X127572305Y-78680454D01*
X127572309Y-78680455D01*
X127572310Y-78680456D01*
X127644913Y-78705860D01*
X127731943Y-78736314D01*
X127899997Y-78755249D01*
X127900000Y-78755249D01*
X127900003Y-78755249D01*
X128000835Y-78743887D01*
X128068059Y-78736313D01*
X128227690Y-78680456D01*
X128245117Y-78669506D01*
X128311088Y-78650500D01*
X135388912Y-78650500D01*
X135454883Y-78669506D01*
X135472310Y-78680456D01*
X135631941Y-78736313D01*
X135673955Y-78741047D01*
X135799997Y-78755249D01*
X135800000Y-78755249D01*
X135800003Y-78755249D01*
X135968056Y-78736314D01*
X135968059Y-78736313D01*
X136127690Y-78680456D01*
X136127692Y-78680454D01*
X136127694Y-78680454D01*
X136127697Y-78680452D01*
X136270884Y-78590481D01*
X136270885Y-78590480D01*
X136270890Y-78590477D01*
X136390477Y-78470890D01*
X136390481Y-78470884D01*
X136480452Y-78327697D01*
X136480454Y-78327694D01*
X136480454Y-78327692D01*
X136480456Y-78327690D01*
X136536313Y-78168059D01*
X136536313Y-78168057D01*
X136536314Y-78168055D01*
X136548420Y-78060616D01*
X136575487Y-77996202D01*
X136633082Y-77956647D01*
X136671640Y-77950500D01*
X139834107Y-77950500D01*
X139901146Y-77970185D01*
X139946901Y-78022989D01*
X139957327Y-78088384D01*
X139944751Y-78199997D01*
X139944751Y-78200002D01*
X139963685Y-78368056D01*
X140019545Y-78527694D01*
X140019547Y-78527697D01*
X140109518Y-78670884D01*
X140109523Y-78670890D01*
X140229109Y-78790476D01*
X140229115Y-78790481D01*
X140372302Y-78880452D01*
X140372305Y-78880454D01*
X140372309Y-78880455D01*
X140372310Y-78880456D01*
X140444913Y-78905860D01*
X140531943Y-78936314D01*
X140699997Y-78955249D01*
X140700000Y-78955249D01*
X140700003Y-78955249D01*
X140800835Y-78943887D01*
X140868059Y-78936313D01*
X141027690Y-78880456D01*
X141045117Y-78869506D01*
X141111088Y-78850500D01*
X146088912Y-78850500D01*
X146154883Y-78869506D01*
X146172310Y-78880456D01*
X146331941Y-78936313D01*
X146373955Y-78941047D01*
X146499997Y-78955249D01*
X146500000Y-78955249D01*
X146500003Y-78955249D01*
X146668056Y-78936314D01*
X146668059Y-78936313D01*
X146827690Y-78880456D01*
X146827692Y-78880454D01*
X146827694Y-78880454D01*
X146827697Y-78880452D01*
X146970884Y-78790481D01*
X146970885Y-78790480D01*
X146970890Y-78790477D01*
X147090477Y-78670890D01*
X147180452Y-78527697D01*
X147180454Y-78527694D01*
X147180454Y-78527692D01*
X147180456Y-78527690D01*
X147236313Y-78368059D01*
X147236313Y-78368058D01*
X147236314Y-78368056D01*
X147255249Y-78200002D01*
X147255249Y-78199997D01*
X147242673Y-78088384D01*
X147254727Y-78019562D01*
X147302076Y-77968182D01*
X147365893Y-77950500D01*
X157150890Y-77950500D01*
X157164774Y-77951280D01*
X157199998Y-77955249D01*
X157200000Y-77955249D01*
X157200003Y-77955249D01*
X157368056Y-77936314D01*
X157368059Y-77936313D01*
X157527690Y-77880456D01*
X157527692Y-77880454D01*
X157527694Y-77880454D01*
X157527697Y-77880452D01*
X157670884Y-77790481D01*
X157670885Y-77790480D01*
X157670890Y-77790477D01*
X157790477Y-77670890D01*
X157880452Y-77527697D01*
X157880454Y-77527694D01*
X157880454Y-77527692D01*
X157880456Y-77527690D01*
X157936313Y-77368059D01*
X157936313Y-77368058D01*
X157936314Y-77368056D01*
X157955249Y-77200002D01*
X157955249Y-77199997D01*
X157936314Y-77031943D01*
X157880454Y-76872305D01*
X157880452Y-76872302D01*
X157790481Y-76729115D01*
X157790476Y-76729109D01*
X157670890Y-76609523D01*
X157670884Y-76609518D01*
X157527697Y-76519547D01*
X157527694Y-76519545D01*
X157368056Y-76463685D01*
X157200003Y-76444751D01*
X157199997Y-76444751D01*
X157031943Y-76463685D01*
X156872305Y-76519545D01*
X156872302Y-76519547D01*
X156729115Y-76609518D01*
X156729109Y-76609523D01*
X156725452Y-76613181D01*
X156664129Y-76646666D01*
X156637771Y-76649500D01*
X153147586Y-76649500D01*
X153080547Y-76629815D01*
X153034792Y-76577011D01*
X153024848Y-76507853D01*
X153030545Y-76484544D01*
X153036313Y-76468058D01*
X153055249Y-76300002D01*
X153055249Y-76299997D01*
X153036314Y-76131943D01*
X152980454Y-75972305D01*
X152980452Y-75972302D01*
X152890481Y-75829115D01*
X152890476Y-75829109D01*
X152770890Y-75709523D01*
X152770884Y-75709518D01*
X152627697Y-75619547D01*
X152627694Y-75619545D01*
X152468056Y-75563685D01*
X152300003Y-75544751D01*
X152299997Y-75544751D01*
X152131942Y-75563686D01*
X151972311Y-75619543D01*
X151954883Y-75630494D01*
X151888912Y-75649500D01*
X147471640Y-75649500D01*
X147404601Y-75629815D01*
X147358846Y-75577011D01*
X147348420Y-75539384D01*
X147336314Y-75431944D01*
X147323875Y-75396396D01*
X147280456Y-75272310D01*
X147280455Y-75272309D01*
X147280454Y-75272305D01*
X147280452Y-75272302D01*
X147190481Y-75129115D01*
X147190476Y-75129109D01*
X147070890Y-75009523D01*
X147070884Y-75009518D01*
X146927697Y-74919547D01*
X146927694Y-74919545D01*
X146847664Y-74891542D01*
X146790888Y-74850820D01*
X146765141Y-74785867D01*
X146778597Y-74717305D01*
X146826985Y-74666903D01*
X146888619Y-74650500D01*
X149694932Y-74650500D01*
X149760904Y-74669506D01*
X149850477Y-74725789D01*
X149850481Y-74725790D01*
X150020737Y-74785366D01*
X150020743Y-74785367D01*
X150020745Y-74785368D01*
X150020746Y-74785368D01*
X150020750Y-74785369D01*
X150199996Y-74805565D01*
X150200000Y-74805565D01*
X150200004Y-74805565D01*
X150379249Y-74785369D01*
X150379252Y-74785368D01*
X150379255Y-74785368D01*
X150549522Y-74725789D01*
X150702262Y-74629816D01*
X150829816Y-74502262D01*
X150925789Y-74349522D01*
X150985368Y-74179255D01*
X150985369Y-74179249D01*
X150994299Y-74099996D01*
X154894435Y-74099996D01*
X154894435Y-74100003D01*
X154914630Y-74279249D01*
X154914631Y-74279254D01*
X154974211Y-74449523D01*
X155062778Y-74590476D01*
X155070184Y-74602262D01*
X155197738Y-74729816D01*
X155350478Y-74825789D01*
X155493367Y-74875788D01*
X155520745Y-74885368D01*
X155520750Y-74885369D01*
X155699996Y-74905565D01*
X155700000Y-74905565D01*
X155700004Y-74905565D01*
X155879249Y-74885369D01*
X155879251Y-74885368D01*
X155879255Y-74885368D01*
X155879258Y-74885366D01*
X155879262Y-74885366D01*
X155969377Y-74853832D01*
X156049522Y-74825789D01*
X156139096Y-74769505D01*
X156205068Y-74750500D01*
X161067588Y-74750500D01*
X161134627Y-74770185D01*
X161144903Y-74777555D01*
X161147736Y-74779814D01*
X161147738Y-74779816D01*
X161300478Y-74875789D01*
X161425531Y-74919547D01*
X161470745Y-74935368D01*
X161470750Y-74935369D01*
X161649996Y-74955565D01*
X161650000Y-74955565D01*
X161650004Y-74955565D01*
X161829249Y-74935369D01*
X161829252Y-74935368D01*
X161829255Y-74935368D01*
X161999522Y-74875789D01*
X162152262Y-74779816D01*
X162279816Y-74652262D01*
X162375789Y-74499522D01*
X162435368Y-74329255D01*
X162435544Y-74327694D01*
X162455565Y-74150003D01*
X162455565Y-74149996D01*
X162435369Y-73970750D01*
X162435368Y-73970745D01*
X162382882Y-73820750D01*
X162375789Y-73800478D01*
X162279816Y-73647738D01*
X162152262Y-73520184D01*
X161999523Y-73424211D01*
X161829254Y-73364631D01*
X161829249Y-73364630D01*
X161650004Y-73344435D01*
X161649996Y-73344435D01*
X161470750Y-73364630D01*
X161470745Y-73364631D01*
X161300474Y-73424212D01*
X161290477Y-73430494D01*
X161224506Y-73449500D01*
X156205068Y-73449500D01*
X156139096Y-73430494D01*
X156049522Y-73374210D01*
X156049518Y-73374209D01*
X155879262Y-73314633D01*
X155879249Y-73314630D01*
X155700004Y-73294435D01*
X155699996Y-73294435D01*
X155520750Y-73314630D01*
X155520745Y-73314631D01*
X155350476Y-73374211D01*
X155197737Y-73470184D01*
X155070184Y-73597737D01*
X154974211Y-73750476D01*
X154914631Y-73920745D01*
X154914630Y-73920750D01*
X154894435Y-74099996D01*
X150994299Y-74099996D01*
X151005565Y-74000003D01*
X151005565Y-73999996D01*
X150985369Y-73820750D01*
X150985368Y-73820745D01*
X150963947Y-73759527D01*
X150925789Y-73650478D01*
X150924067Y-73647738D01*
X150849528Y-73529110D01*
X150829816Y-73497738D01*
X150702262Y-73370184D01*
X150693426Y-73364632D01*
X150549523Y-73274211D01*
X150379254Y-73214631D01*
X150379249Y-73214630D01*
X150200004Y-73194435D01*
X150199996Y-73194435D01*
X150020750Y-73214630D01*
X150020737Y-73214633D01*
X149850481Y-73274209D01*
X149850477Y-73274210D01*
X149760904Y-73330494D01*
X149694932Y-73349500D01*
X149321956Y-73349500D01*
X149254917Y-73329815D01*
X149209162Y-73277011D01*
X149198736Y-73239384D01*
X149185369Y-73120749D01*
X149185366Y-73120737D01*
X149163353Y-73057828D01*
X149159791Y-72988049D01*
X149194519Y-72927422D01*
X149256512Y-72895194D01*
X149294277Y-72893653D01*
X149307954Y-72895194D01*
X149399997Y-72905565D01*
X149400000Y-72905565D01*
X149400004Y-72905565D01*
X149579249Y-72885369D01*
X149579252Y-72885368D01*
X149579255Y-72885368D01*
X149749522Y-72825789D01*
X149902262Y-72729816D01*
X150029816Y-72602262D01*
X150125789Y-72449522D01*
X150185368Y-72279255D01*
X150205565Y-72100000D01*
X150197593Y-72029249D01*
X150185369Y-71920750D01*
X150185368Y-71920745D01*
X150153305Y-71829115D01*
X150125789Y-71750478D01*
X150029816Y-71597738D01*
X149902262Y-71470184D01*
X149848311Y-71436284D01*
X149749523Y-71374211D01*
X149579254Y-71314631D01*
X149579249Y-71314630D01*
X149400004Y-71294435D01*
X149399996Y-71294435D01*
X149220750Y-71314630D01*
X149220745Y-71314631D01*
X149140983Y-71342542D01*
X149100028Y-71349500D01*
X146077160Y-71349500D01*
X146010121Y-71329815D01*
X145964366Y-71277011D01*
X145953940Y-71211613D01*
X145954566Y-71206066D01*
X145955249Y-71200000D01*
X145946709Y-71124211D01*
X145936313Y-71031942D01*
X145924344Y-70997737D01*
X145895553Y-70915454D01*
X145891992Y-70845676D01*
X145926721Y-70785048D01*
X145988714Y-70752821D01*
X146012595Y-70750500D01*
X147792600Y-70750500D01*
X147907268Y-70727690D01*
X147918273Y-70725501D01*
X148036656Y-70676465D01*
X148068407Y-70655250D01*
X148068408Y-70655250D01*
X148138437Y-70608458D01*
X148143198Y-70605277D01*
X149505277Y-69243198D01*
X149576466Y-69136655D01*
X149617826Y-69036802D01*
X149621868Y-69027044D01*
X149665711Y-68972642D01*
X149732006Y-68950579D01*
X149736428Y-68950500D01*
X151888912Y-68950500D01*
X151954883Y-68969506D01*
X151972310Y-68980456D01*
X152131941Y-69036313D01*
X152173955Y-69041047D01*
X152299997Y-69055249D01*
X152300000Y-69055249D01*
X152300003Y-69055249D01*
X152426044Y-69041047D01*
X152468059Y-69036313D01*
X152514544Y-69020046D01*
X152584322Y-69016484D01*
X152644950Y-69051212D01*
X152677178Y-69113205D01*
X152679500Y-69137088D01*
X152679500Y-70094071D01*
X152696803Y-70181055D01*
X152696803Y-70181056D01*
X152704497Y-70219737D01*
X152704498Y-70219742D01*
X152738820Y-70302601D01*
X152753535Y-70338127D01*
X152824723Y-70444669D01*
X152952057Y-70572003D01*
X152981416Y-70618728D01*
X153019543Y-70727688D01*
X153019548Y-70727699D01*
X153109518Y-70870884D01*
X153109523Y-70870890D01*
X153229109Y-70990476D01*
X153229115Y-70990481D01*
X153372302Y-71080452D01*
X153372305Y-71080454D01*
X153372309Y-71080455D01*
X153372310Y-71080456D01*
X153430007Y-71100645D01*
X153531943Y-71136314D01*
X153699997Y-71155249D01*
X153700000Y-71155249D01*
X153700003Y-71155249D01*
X153868056Y-71136314D01*
X153868059Y-71136313D01*
X154027690Y-71080456D01*
X154027692Y-71080454D01*
X154027694Y-71080454D01*
X154027697Y-71080452D01*
X154170884Y-70990481D01*
X154170885Y-70990480D01*
X154170890Y-70990477D01*
X154290477Y-70870890D01*
X154290921Y-70870184D01*
X154380452Y-70727697D01*
X154380454Y-70727694D01*
X154380454Y-70727692D01*
X154380456Y-70727690D01*
X154436313Y-70568059D01*
X154436313Y-70568058D01*
X154436314Y-70568056D01*
X154455249Y-70400002D01*
X154455249Y-70399997D01*
X154436314Y-70231943D01*
X154380454Y-70072305D01*
X154380452Y-70072302D01*
X154290481Y-69929115D01*
X154290476Y-69929109D01*
X154170890Y-69809523D01*
X154038528Y-69726354D01*
X153992237Y-69674019D01*
X153980500Y-69621360D01*
X153980500Y-68747586D01*
X154000185Y-68680547D01*
X154052989Y-68634792D01*
X154122147Y-68624848D01*
X154145456Y-68630545D01*
X154161941Y-68636313D01*
X154329997Y-68655249D01*
X154330000Y-68655249D01*
X154330003Y-68655249D01*
X154430835Y-68643887D01*
X154498059Y-68636313D01*
X154657690Y-68580456D01*
X154675117Y-68569506D01*
X154741088Y-68550500D01*
X155394071Y-68550500D01*
X155478615Y-68533682D01*
X155519744Y-68525501D01*
X155638127Y-68476465D01*
X155744669Y-68405276D01*
X155835276Y-68314669D01*
X155906465Y-68208127D01*
X155955501Y-68089744D01*
X155968280Y-68025500D01*
X155980500Y-67964071D01*
X155980500Y-66607320D01*
X156000185Y-66540281D01*
X156030192Y-66508051D01*
X156037546Y-66502546D01*
X156123796Y-66387331D01*
X156174091Y-66252483D01*
X156180500Y-66192873D01*
X156180499Y-61797128D01*
X156174091Y-61737517D01*
X156123796Y-61602669D01*
X156123795Y-61602668D01*
X156123793Y-61602664D01*
X156037547Y-61487455D01*
X156037544Y-61487452D01*
X155922335Y-61401206D01*
X155922328Y-61401202D01*
X155787482Y-61350908D01*
X155787483Y-61350908D01*
X155727883Y-61344501D01*
X155727881Y-61344500D01*
X155727873Y-61344500D01*
X155727864Y-61344500D01*
X154932129Y-61344500D01*
X154932123Y-61344501D01*
X154872520Y-61350908D01*
X154864974Y-61352692D01*
X154864628Y-61351230D01*
X154803622Y-61355584D01*
X154788600Y-61351172D01*
X154787482Y-61350908D01*
X154727883Y-61344501D01*
X154727881Y-61344500D01*
X154727873Y-61344500D01*
X154727864Y-61344500D01*
X153932129Y-61344500D01*
X153932123Y-61344501D01*
X153872520Y-61350908D01*
X153864974Y-61352692D01*
X153864628Y-61351230D01*
X153803622Y-61355584D01*
X153788600Y-61351172D01*
X153787482Y-61350908D01*
X153727883Y-61344501D01*
X153727881Y-61344500D01*
X153727873Y-61344500D01*
X153727864Y-61344500D01*
X152932129Y-61344500D01*
X152932123Y-61344501D01*
X152872520Y-61350908D01*
X152864974Y-61352692D01*
X152864628Y-61351230D01*
X152803622Y-61355584D01*
X152788600Y-61351172D01*
X152787482Y-61350908D01*
X152727883Y-61344501D01*
X152727881Y-61344500D01*
X152727873Y-61344500D01*
X152727864Y-61344500D01*
X151932129Y-61344500D01*
X151932123Y-61344501D01*
X151872520Y-61350908D01*
X151864974Y-61352692D01*
X151864628Y-61351230D01*
X151803622Y-61355584D01*
X151788600Y-61351172D01*
X151787482Y-61350908D01*
X151727883Y-61344501D01*
X151727881Y-61344500D01*
X151727873Y-61344500D01*
X151727864Y-61344500D01*
X150932129Y-61344500D01*
X150932123Y-61344501D01*
X150872516Y-61350908D01*
X150737671Y-61401202D01*
X150737664Y-61401206D01*
X150622455Y-61487452D01*
X150622452Y-61487455D01*
X150536206Y-61602664D01*
X150536202Y-61602671D01*
X150485908Y-61737517D01*
X150479771Y-61794607D01*
X150479501Y-61797123D01*
X150479500Y-61797135D01*
X150479500Y-66192870D01*
X150479501Y-66192876D01*
X150485908Y-66252483D01*
X150536202Y-66387328D01*
X150536206Y-66387335D01*
X150622452Y-66502544D01*
X150622455Y-66502547D01*
X150737664Y-66588793D01*
X150737671Y-66588797D01*
X150872517Y-66639091D01*
X150872516Y-66639091D01*
X150879444Y-66639835D01*
X150932127Y-66645500D01*
X151727872Y-66645499D01*
X151787483Y-66639091D01*
X151787485Y-66639090D01*
X151787487Y-66639090D01*
X151795031Y-66637308D01*
X151795377Y-66638775D01*
X151856342Y-66634408D01*
X151871378Y-66638822D01*
X151872511Y-66639089D01*
X151872517Y-66639091D01*
X151932127Y-66645500D01*
X152555500Y-66645499D01*
X152622539Y-66665183D01*
X152668294Y-66717987D01*
X152679500Y-66769499D01*
X152679500Y-67462911D01*
X152659815Y-67529950D01*
X152607011Y-67575705D01*
X152537853Y-67585649D01*
X152514546Y-67579953D01*
X152468057Y-67563686D01*
X152300003Y-67544751D01*
X152299997Y-67544751D01*
X152131942Y-67563686D01*
X151972311Y-67619543D01*
X151954883Y-67630494D01*
X151888912Y-67649500D01*
X150190373Y-67649500D01*
X150123334Y-67629815D01*
X150077579Y-67577011D01*
X150067152Y-67539381D01*
X150066314Y-67531941D01*
X150010457Y-67372310D01*
X149999505Y-67354880D01*
X149980500Y-67288910D01*
X149980500Y-66607320D01*
X150000185Y-66540281D01*
X150030192Y-66508051D01*
X150037546Y-66502546D01*
X150123796Y-66387331D01*
X150174091Y-66252483D01*
X150180500Y-66192873D01*
X150180499Y-61797128D01*
X150174091Y-61737517D01*
X150123796Y-61602669D01*
X150123795Y-61602668D01*
X150123793Y-61602664D01*
X150037547Y-61487455D01*
X150037544Y-61487452D01*
X149922335Y-61401206D01*
X149922328Y-61401202D01*
X149787482Y-61350908D01*
X149787483Y-61350908D01*
X149727883Y-61344501D01*
X149727881Y-61344500D01*
X149727873Y-61344500D01*
X149727864Y-61344500D01*
X148932129Y-61344500D01*
X148932123Y-61344501D01*
X148872520Y-61350908D01*
X148864974Y-61352692D01*
X148864628Y-61351230D01*
X148803622Y-61355584D01*
X148788600Y-61351172D01*
X148787482Y-61350908D01*
X148727883Y-61344501D01*
X148727881Y-61344500D01*
X148727873Y-61344500D01*
X148727864Y-61344500D01*
X147932129Y-61344500D01*
X147932123Y-61344501D01*
X147872520Y-61350908D01*
X147864974Y-61352692D01*
X147864628Y-61351230D01*
X147803622Y-61355584D01*
X147788600Y-61351172D01*
X147787482Y-61350908D01*
X147727883Y-61344501D01*
X147727881Y-61344500D01*
X147727873Y-61344500D01*
X147727865Y-61344500D01*
X147487676Y-61344500D01*
X147420637Y-61324815D01*
X147374882Y-61272011D01*
X147364938Y-61202853D01*
X147393963Y-61139297D01*
X147399995Y-61132819D01*
X147450995Y-61081819D01*
X147512318Y-61048334D01*
X147538676Y-61045500D01*
X157221324Y-61045500D01*
X157288363Y-61065185D01*
X157309005Y-61081819D01*
X157443181Y-61215995D01*
X157476666Y-61277318D01*
X157479500Y-61303676D01*
X157479500Y-69320891D01*
X157513608Y-69448187D01*
X157531103Y-69478488D01*
X157579500Y-69562314D01*
X157672686Y-69655500D01*
X157786814Y-69721392D01*
X157914108Y-69755500D01*
X157914110Y-69755500D01*
X160555890Y-69755500D01*
X160555892Y-69755500D01*
X160683186Y-69721392D01*
X160797314Y-69655500D01*
X160890500Y-69562314D01*
X160956392Y-69448186D01*
X160990500Y-69320892D01*
X160990500Y-56179500D01*
X161010185Y-56112461D01*
X161062989Y-56066706D01*
X161114500Y-56055500D01*
X169315500Y-56055500D01*
X169382539Y-56075185D01*
X169428294Y-56127989D01*
X169439500Y-56179500D01*
X169439500Y-59732089D01*
X169419815Y-59799128D01*
X169367011Y-59844883D01*
X169297853Y-59854827D01*
X169234297Y-59825802D01*
X169199736Y-59776527D01*
X169123732Y-59578531D01*
X168952400Y-59242275D01*
X168746864Y-58925776D01*
X168509368Y-58632493D01*
X168509365Y-58632489D01*
X168242511Y-58365635D01*
X167949225Y-58128137D01*
X167949223Y-58128135D01*
X167632725Y-57922599D01*
X167296468Y-57751267D01*
X166944147Y-57616023D01*
X166579614Y-57518347D01*
X166579607Y-57518346D01*
X166206872Y-57459310D01*
X165830001Y-57439559D01*
X165829999Y-57439559D01*
X165453127Y-57459310D01*
X165080392Y-57518346D01*
X165080385Y-57518347D01*
X164715852Y-57616023D01*
X164363531Y-57751267D01*
X164027275Y-57922599D01*
X163710776Y-58128135D01*
X163417493Y-58365631D01*
X163417485Y-58365638D01*
X163150638Y-58632485D01*
X163150631Y-58632493D01*
X162913135Y-58925776D01*
X162707599Y-59242275D01*
X162536267Y-59578531D01*
X162401023Y-59930852D01*
X162303347Y-60295385D01*
X162303346Y-60295392D01*
X162244310Y-60668127D01*
X162224559Y-61044999D01*
X162224559Y-61045000D01*
X162244310Y-61421872D01*
X162303346Y-61794607D01*
X162303347Y-61794614D01*
X162401023Y-62159147D01*
X162536267Y-62511468D01*
X162707599Y-62847725D01*
X162913135Y-63164223D01*
X162913137Y-63164225D01*
X163150635Y-63457511D01*
X163417489Y-63724365D01*
X163417493Y-63724368D01*
X163710776Y-63961864D01*
X164027274Y-64167400D01*
X164027279Y-64167403D01*
X164363535Y-64338734D01*
X164715857Y-64473978D01*
X165080387Y-64571653D01*
X165453129Y-64630690D01*
X165809155Y-64649348D01*
X165829999Y-64650441D01*
X165830000Y-64650441D01*
X165830001Y-64650441D01*
X165849752Y-64649405D01*
X166206871Y-64630690D01*
X166579613Y-64571653D01*
X166944143Y-64473978D01*
X167296465Y-64338734D01*
X167632721Y-64167403D01*
X167949225Y-63961863D01*
X168242511Y-63724365D01*
X168509365Y-63457511D01*
X168746863Y-63164225D01*
X168952403Y-62847721D01*
X169123734Y-62511465D01*
X169199737Y-62313470D01*
X169242138Y-62257940D01*
X169307832Y-62234147D01*
X169375960Y-62249649D01*
X169424893Y-62299522D01*
X169439500Y-62357910D01*
X169439500Y-108620500D01*
X169419815Y-108687539D01*
X169367011Y-108733294D01*
X169315500Y-108744500D01*
X111884500Y-108744500D01*
X111817461Y-108724815D01*
X111771706Y-108672011D01*
X111760500Y-108620500D01*
X111760500Y-106599996D01*
X116994435Y-106599996D01*
X116994435Y-106600003D01*
X117014630Y-106779249D01*
X117014631Y-106779254D01*
X117074211Y-106949523D01*
X117170184Y-107102262D01*
X117297738Y-107229816D01*
X117450478Y-107325789D01*
X117620739Y-107385366D01*
X117620745Y-107385368D01*
X117620750Y-107385369D01*
X117799996Y-107405565D01*
X117800000Y-107405565D01*
X117800004Y-107405565D01*
X117979249Y-107385369D01*
X117979251Y-107385368D01*
X117979255Y-107385368D01*
X117979258Y-107385366D01*
X117979262Y-107385366D01*
X118069377Y-107353832D01*
X118149522Y-107325789D01*
X118239096Y-107269505D01*
X118305068Y-107250500D01*
X143594932Y-107250500D01*
X143660904Y-107269506D01*
X143750477Y-107325789D01*
X143750481Y-107325790D01*
X143920737Y-107385366D01*
X143920743Y-107385367D01*
X143920745Y-107385368D01*
X143920746Y-107385368D01*
X143920750Y-107385369D01*
X144099996Y-107405565D01*
X144100000Y-107405565D01*
X144100004Y-107405565D01*
X144279249Y-107385369D01*
X144279252Y-107385368D01*
X144279255Y-107385368D01*
X144449522Y-107325789D01*
X144602262Y-107229816D01*
X144729816Y-107102262D01*
X144825789Y-106949522D01*
X144885368Y-106779255D01*
X144885369Y-106779249D01*
X144898736Y-106660616D01*
X144925803Y-106596202D01*
X144983397Y-106556647D01*
X145021956Y-106550500D01*
X145888912Y-106550500D01*
X145954883Y-106569506D01*
X145972310Y-106580456D01*
X146131941Y-106636313D01*
X146173955Y-106641047D01*
X146299997Y-106655249D01*
X146300000Y-106655249D01*
X146300003Y-106655249D01*
X146468056Y-106636314D01*
X146468059Y-106636313D01*
X146627690Y-106580456D01*
X146627692Y-106580454D01*
X146627694Y-106580454D01*
X146627697Y-106580452D01*
X146770884Y-106490481D01*
X146770885Y-106490480D01*
X146770890Y-106490477D01*
X146890477Y-106370890D01*
X146890481Y-106370884D01*
X146980452Y-106227697D01*
X146980454Y-106227694D01*
X146980454Y-106227692D01*
X146980456Y-106227690D01*
X147036313Y-106068059D01*
X147036313Y-106068058D01*
X147036314Y-106068056D01*
X147055249Y-105900002D01*
X147055249Y-105899997D01*
X147036314Y-105731943D01*
X146980454Y-105572305D01*
X146980452Y-105572302D01*
X146890481Y-105429115D01*
X146890476Y-105429109D01*
X146770890Y-105309523D01*
X146770884Y-105309518D01*
X146627697Y-105219547D01*
X146627694Y-105219545D01*
X146468056Y-105163685D01*
X146300003Y-105144751D01*
X146299997Y-105144751D01*
X146131942Y-105163686D01*
X145972311Y-105219543D01*
X145954883Y-105230494D01*
X145888912Y-105249500D01*
X120811088Y-105249500D01*
X120745117Y-105230494D01*
X120736168Y-105224871D01*
X120727690Y-105219544D01*
X120727689Y-105219543D01*
X120727688Y-105219543D01*
X120568057Y-105163686D01*
X120400003Y-105144751D01*
X120399997Y-105144751D01*
X120231943Y-105163685D01*
X120072305Y-105219545D01*
X120072302Y-105219547D01*
X119929115Y-105309518D01*
X119929109Y-105309523D01*
X119809523Y-105429109D01*
X119809518Y-105429115D01*
X119719547Y-105572302D01*
X119719545Y-105572305D01*
X119663685Y-105731944D01*
X119651580Y-105839384D01*
X119624513Y-105903798D01*
X119566918Y-105943353D01*
X119528360Y-105949500D01*
X118305068Y-105949500D01*
X118239096Y-105930494D01*
X118149522Y-105874210D01*
X118149518Y-105874209D01*
X117979262Y-105814633D01*
X117979249Y-105814630D01*
X117800004Y-105794435D01*
X117799996Y-105794435D01*
X117620750Y-105814630D01*
X117620745Y-105814631D01*
X117450476Y-105874211D01*
X117297737Y-105970184D01*
X117170184Y-106097737D01*
X117074211Y-106250476D01*
X117014631Y-106420745D01*
X117014630Y-106420750D01*
X116994435Y-106599996D01*
X111760500Y-106599996D01*
X111760500Y-102750000D01*
X139819402Y-102750000D01*
X139839738Y-102943483D01*
X139899856Y-103128510D01*
X139899857Y-103128511D01*
X139934203Y-103188000D01*
X139950676Y-103255900D01*
X139934203Y-103312000D01*
X139899857Y-103371488D01*
X139899856Y-103371489D01*
X139839738Y-103556516D01*
X139819402Y-103750000D01*
X139839738Y-103943483D01*
X139899856Y-104128510D01*
X139899857Y-104128511D01*
X139980159Y-104267597D01*
X139997130Y-104296992D01*
X140042476Y-104347354D01*
X140127302Y-104441564D01*
X140127305Y-104441566D01*
X140127308Y-104441569D01*
X140245352Y-104527333D01*
X140284702Y-104555923D01*
X140352926Y-104586297D01*
X140462429Y-104635051D01*
X140652726Y-104675500D01*
X140847274Y-104675500D01*
X141037571Y-104635051D01*
X141215299Y-104555922D01*
X141372692Y-104441569D01*
X141502870Y-104296992D01*
X141600144Y-104128508D01*
X141660262Y-103943482D01*
X141676757Y-103786535D01*
X141703342Y-103721924D01*
X141760639Y-103681939D01*
X141800078Y-103675500D01*
X141847274Y-103675500D01*
X142037571Y-103635051D01*
X142201824Y-103561920D01*
X142215297Y-103555923D01*
X142215297Y-103555922D01*
X142215299Y-103555922D01*
X142372692Y-103441569D01*
X142502870Y-103296992D01*
X142600144Y-103128508D01*
X142660262Y-102943482D01*
X142680598Y-102750000D01*
X142660849Y-102562111D01*
X142673418Y-102493388D01*
X142721150Y-102442363D01*
X142788890Y-102425245D01*
X142850142Y-102444161D01*
X142896021Y-102472989D01*
X142900478Y-102475789D01*
X143070739Y-102535366D01*
X143070745Y-102535368D01*
X143070750Y-102535369D01*
X143249996Y-102555565D01*
X143250000Y-102555565D01*
X143250004Y-102555565D01*
X143429249Y-102535369D01*
X143429251Y-102535368D01*
X143429255Y-102535368D01*
X143429258Y-102535366D01*
X143429262Y-102535366D01*
X143549227Y-102493388D01*
X143599522Y-102475789D01*
X143689096Y-102419505D01*
X143755068Y-102400500D01*
X144599441Y-102400500D01*
X144666480Y-102420185D01*
X144712235Y-102472989D01*
X144722179Y-102542147D01*
X144716483Y-102565454D01*
X144714632Y-102570742D01*
X144714630Y-102570750D01*
X144694435Y-102749996D01*
X144694435Y-102750003D01*
X144714630Y-102929249D01*
X144714631Y-102929254D01*
X144774211Y-103099523D01*
X144792424Y-103128508D01*
X144870184Y-103252262D01*
X144997738Y-103379816D01*
X145150478Y-103475789D01*
X145320739Y-103535366D01*
X145320745Y-103535368D01*
X145320750Y-103535369D01*
X145499996Y-103555565D01*
X145500000Y-103555565D01*
X145500004Y-103555565D01*
X145679249Y-103535369D01*
X145679251Y-103535368D01*
X145679255Y-103535368D01*
X145679258Y-103535366D01*
X145679262Y-103535366D01*
X145769377Y-103503832D01*
X145849522Y-103475789D01*
X145939096Y-103419505D01*
X146005068Y-103400500D01*
X146894932Y-103400500D01*
X146960904Y-103419506D01*
X147050477Y-103475789D01*
X147050481Y-103475790D01*
X147220737Y-103535366D01*
X147220743Y-103535367D01*
X147220745Y-103535368D01*
X147220746Y-103535368D01*
X147220750Y-103535369D01*
X147399996Y-103555565D01*
X147400000Y-103555565D01*
X147400004Y-103555565D01*
X147579249Y-103535369D01*
X147579252Y-103535368D01*
X147579255Y-103535368D01*
X147749522Y-103475789D01*
X147902262Y-103379816D01*
X148029816Y-103252262D01*
X148125789Y-103099522D01*
X148185368Y-102929255D01*
X148205565Y-102750000D01*
X148185368Y-102570745D01*
X148184329Y-102567777D01*
X148184225Y-102565743D01*
X148183819Y-102563961D01*
X148184131Y-102563889D01*
X148180765Y-102498003D01*
X148215492Y-102437374D01*
X148235389Y-102421834D01*
X148302262Y-102379816D01*
X148429816Y-102252262D01*
X148525789Y-102099522D01*
X148585368Y-101929255D01*
X148605565Y-101750000D01*
X148585368Y-101570745D01*
X148525789Y-101400478D01*
X148429816Y-101247738D01*
X148302262Y-101120184D01*
X148269344Y-101099500D01*
X148149523Y-101024211D01*
X147979254Y-100964631D01*
X147979249Y-100964630D01*
X147800004Y-100944435D01*
X147799996Y-100944435D01*
X147620750Y-100964630D01*
X147620737Y-100964633D01*
X147450481Y-101024209D01*
X147450477Y-101024210D01*
X147360904Y-101080494D01*
X147294932Y-101099500D01*
X143755068Y-101099500D01*
X143689096Y-101080494D01*
X143599522Y-101024210D01*
X143599518Y-101024209D01*
X143429262Y-100964633D01*
X143429249Y-100964630D01*
X143250004Y-100944435D01*
X143249996Y-100944435D01*
X143070750Y-100964630D01*
X143070745Y-100964631D01*
X142900476Y-101024211D01*
X142747739Y-101120183D01*
X142672042Y-101195880D01*
X142610718Y-101229364D01*
X142541027Y-101224379D01*
X142492211Y-101191170D01*
X142372697Y-101058435D01*
X142372694Y-101058433D01*
X142372693Y-101058432D01*
X142372692Y-101058431D01*
X142247475Y-100967455D01*
X142215297Y-100944076D01*
X142074076Y-100881202D01*
X142037571Y-100864949D01*
X142037569Y-100864948D01*
X141847274Y-100824500D01*
X141652726Y-100824500D01*
X141462429Y-100864948D01*
X141456245Y-100866958D01*
X141455349Y-100864201D01*
X141398341Y-100871511D01*
X141374527Y-100865239D01*
X141282482Y-100830908D01*
X141282483Y-100830908D01*
X141222883Y-100824501D01*
X141222881Y-100824500D01*
X141222873Y-100824500D01*
X141222864Y-100824500D01*
X140277129Y-100824500D01*
X140277123Y-100824501D01*
X140217516Y-100830908D01*
X140082671Y-100881202D01*
X140082664Y-100881206D01*
X139967455Y-100967452D01*
X139967452Y-100967455D01*
X139881206Y-101082664D01*
X139881202Y-101082671D01*
X139830908Y-101217517D01*
X139824501Y-101277116D01*
X139824500Y-101277135D01*
X139824500Y-102222870D01*
X139824501Y-102222876D01*
X139830908Y-102282483D01*
X139868099Y-102382195D01*
X139873083Y-102451887D01*
X139869848Y-102463845D01*
X139839740Y-102556511D01*
X139839738Y-102556516D01*
X139819402Y-102750000D01*
X111760500Y-102750000D01*
X111760500Y-98999997D01*
X138669751Y-98999997D01*
X138669751Y-99000002D01*
X138688685Y-99168056D01*
X138744545Y-99327694D01*
X138744547Y-99327697D01*
X138834518Y-99470884D01*
X138834523Y-99470890D01*
X138954109Y-99590476D01*
X138954115Y-99590481D01*
X139097302Y-99680452D01*
X139097305Y-99680454D01*
X139097309Y-99680455D01*
X139097310Y-99680456D01*
X139169913Y-99705860D01*
X139256943Y-99736314D01*
X139424997Y-99755249D01*
X139425000Y-99755249D01*
X139425003Y-99755249D01*
X139525835Y-99743887D01*
X139593059Y-99736313D01*
X139752690Y-99680456D01*
X139770117Y-99669506D01*
X139836088Y-99650500D01*
X150488912Y-99650500D01*
X150554883Y-99669506D01*
X150572310Y-99680456D01*
X150731941Y-99736313D01*
X150773955Y-99741047D01*
X150899997Y-99755249D01*
X150900000Y-99755249D01*
X150900003Y-99755249D01*
X151068056Y-99736314D01*
X151068059Y-99736313D01*
X151227690Y-99680456D01*
X151227692Y-99680454D01*
X151227694Y-99680454D01*
X151227697Y-99680452D01*
X151370884Y-99590481D01*
X151370885Y-99590480D01*
X151370890Y-99590477D01*
X151490477Y-99470890D01*
X151580452Y-99327697D01*
X151580454Y-99327694D01*
X151580454Y-99327692D01*
X151580456Y-99327690D01*
X151636313Y-99168059D01*
X151636313Y-99168058D01*
X151636314Y-99168056D01*
X151655249Y-99000002D01*
X151655249Y-98999997D01*
X151636314Y-98831943D01*
X151580454Y-98672305D01*
X151580452Y-98672302D01*
X151490481Y-98529115D01*
X151490476Y-98529109D01*
X151370890Y-98409523D01*
X151370884Y-98409518D01*
X151227697Y-98319547D01*
X151227694Y-98319545D01*
X151068056Y-98263685D01*
X150900003Y-98244751D01*
X150899997Y-98244751D01*
X150731942Y-98263686D01*
X150572311Y-98319543D01*
X150554883Y-98330494D01*
X150488912Y-98349500D01*
X139836088Y-98349500D01*
X139770117Y-98330494D01*
X139761168Y-98324871D01*
X139752690Y-98319544D01*
X139752689Y-98319543D01*
X139752688Y-98319543D01*
X139593057Y-98263686D01*
X139425003Y-98244751D01*
X139424997Y-98244751D01*
X139256943Y-98263685D01*
X139097305Y-98319545D01*
X139097302Y-98319547D01*
X138954115Y-98409518D01*
X138954109Y-98409523D01*
X138834523Y-98529109D01*
X138834518Y-98529115D01*
X138744547Y-98672302D01*
X138744545Y-98672305D01*
X138688685Y-98831943D01*
X138669751Y-98999997D01*
X111760500Y-98999997D01*
X111760500Y-95899997D01*
X123544751Y-95899997D01*
X123544751Y-95900002D01*
X123563685Y-96068056D01*
X123619545Y-96227694D01*
X123619547Y-96227697D01*
X123709518Y-96370884D01*
X123709523Y-96370890D01*
X123829109Y-96490476D01*
X123829115Y-96490481D01*
X123972302Y-96580452D01*
X123972306Y-96580454D01*
X123972307Y-96580454D01*
X123972310Y-96580456D01*
X123985199Y-96584966D01*
X124041975Y-96625685D01*
X124059341Y-96662202D01*
X124061388Y-96661487D01*
X124063686Y-96668056D01*
X124063687Y-96668059D01*
X124088934Y-96740212D01*
X124119544Y-96827692D01*
X124119547Y-96827697D01*
X124209518Y-96970884D01*
X124209523Y-96970890D01*
X124329109Y-97090476D01*
X124329115Y-97090481D01*
X124472302Y-97180452D01*
X124472305Y-97180454D01*
X124472309Y-97180455D01*
X124472310Y-97180456D01*
X124544913Y-97205860D01*
X124631943Y-97236314D01*
X124799997Y-97255249D01*
X124800000Y-97255249D01*
X124800003Y-97255249D01*
X124900835Y-97243887D01*
X124968059Y-97236313D01*
X125127690Y-97180456D01*
X125145117Y-97169506D01*
X125211088Y-97150500D01*
X135788912Y-97150500D01*
X135854883Y-97169506D01*
X135872310Y-97180456D01*
X136031941Y-97236313D01*
X136073955Y-97241047D01*
X136199997Y-97255249D01*
X136200000Y-97255249D01*
X136200003Y-97255249D01*
X136368056Y-97236314D01*
X136368059Y-97236313D01*
X136527690Y-97180456D01*
X136527692Y-97180454D01*
X136527694Y-97180454D01*
X136527697Y-97180452D01*
X136670884Y-97090481D01*
X136670885Y-97090480D01*
X136670890Y-97090477D01*
X136761371Y-96999996D01*
X138194435Y-96999996D01*
X138194435Y-97000003D01*
X138214630Y-97179249D01*
X138214631Y-97179254D01*
X138274211Y-97349523D01*
X138370184Y-97502262D01*
X138497738Y-97629816D01*
X138650478Y-97725789D01*
X138820739Y-97785366D01*
X138820745Y-97785368D01*
X138820750Y-97785369D01*
X138999996Y-97805565D01*
X139000000Y-97805565D01*
X139000004Y-97805565D01*
X139179249Y-97785369D01*
X139179251Y-97785368D01*
X139179255Y-97785368D01*
X139179258Y-97785366D01*
X139179262Y-97785366D01*
X139269377Y-97753832D01*
X139349522Y-97725789D01*
X139439096Y-97669505D01*
X139505068Y-97650500D01*
X141294932Y-97650500D01*
X141360904Y-97669506D01*
X141450477Y-97725789D01*
X141450481Y-97725790D01*
X141620737Y-97785366D01*
X141620743Y-97785367D01*
X141620745Y-97785368D01*
X141620746Y-97785368D01*
X141620750Y-97785369D01*
X141799996Y-97805565D01*
X141800000Y-97805565D01*
X141800004Y-97805565D01*
X141979249Y-97785369D01*
X141979252Y-97785368D01*
X141979255Y-97785368D01*
X142149522Y-97725789D01*
X142302262Y-97629816D01*
X142429816Y-97502262D01*
X142525789Y-97349522D01*
X142585368Y-97179255D01*
X142585369Y-97179249D01*
X142605565Y-97000003D01*
X142605565Y-96999996D01*
X142585369Y-96820750D01*
X142585368Y-96820745D01*
X142525788Y-96650476D01*
X142481789Y-96580452D01*
X142429816Y-96497738D01*
X142302262Y-96370184D01*
X142239096Y-96330494D01*
X142149523Y-96274211D01*
X141979254Y-96214631D01*
X141979249Y-96214630D01*
X141800004Y-96194435D01*
X141799996Y-96194435D01*
X141620750Y-96214630D01*
X141620737Y-96214633D01*
X141450481Y-96274209D01*
X141450477Y-96274210D01*
X141360904Y-96330494D01*
X141294932Y-96349500D01*
X139505068Y-96349500D01*
X139439096Y-96330494D01*
X139349522Y-96274210D01*
X139349518Y-96274209D01*
X139179262Y-96214633D01*
X139179249Y-96214630D01*
X139000004Y-96194435D01*
X138999996Y-96194435D01*
X138820750Y-96214630D01*
X138820745Y-96214631D01*
X138650476Y-96274211D01*
X138497737Y-96370184D01*
X138370184Y-96497737D01*
X138274211Y-96650476D01*
X138214631Y-96820745D01*
X138214630Y-96820750D01*
X138194435Y-96999996D01*
X136761371Y-96999996D01*
X136790477Y-96970890D01*
X136880452Y-96827697D01*
X136880454Y-96827694D01*
X136880454Y-96827692D01*
X136880456Y-96827690D01*
X136936313Y-96668059D01*
X136936313Y-96668058D01*
X136936314Y-96668056D01*
X136955249Y-96500002D01*
X136955249Y-96499997D01*
X136936314Y-96331943D01*
X136880454Y-96172305D01*
X136880452Y-96172302D01*
X136790481Y-96029115D01*
X136790476Y-96029109D01*
X136670890Y-95909523D01*
X136670884Y-95909518D01*
X136527697Y-95819547D01*
X136527694Y-95819545D01*
X136368056Y-95763685D01*
X136200003Y-95744751D01*
X136199997Y-95744751D01*
X136031942Y-95763686D01*
X135872311Y-95819543D01*
X135854883Y-95830494D01*
X135788912Y-95849500D01*
X133560372Y-95849500D01*
X133493333Y-95829815D01*
X133447578Y-95777011D01*
X133437151Y-95739381D01*
X133436313Y-95731941D01*
X133380456Y-95572310D01*
X133380455Y-95572309D01*
X133380454Y-95572305D01*
X133380452Y-95572302D01*
X133290481Y-95429115D01*
X133290476Y-95429109D01*
X133170890Y-95309523D01*
X133170884Y-95309518D01*
X133027697Y-95219547D01*
X133027694Y-95219545D01*
X132868056Y-95163685D01*
X132700003Y-95144751D01*
X132699997Y-95144751D01*
X132531942Y-95163686D01*
X132372311Y-95219543D01*
X132354883Y-95230494D01*
X132288912Y-95249500D01*
X124711088Y-95249500D01*
X124645117Y-95230494D01*
X124636168Y-95224871D01*
X124627690Y-95219544D01*
X124627689Y-95219543D01*
X124627688Y-95219543D01*
X124468057Y-95163686D01*
X124300003Y-95144751D01*
X124299997Y-95144751D01*
X124131943Y-95163685D01*
X123972305Y-95219545D01*
X123972302Y-95219547D01*
X123829115Y-95309518D01*
X123829109Y-95309523D01*
X123709523Y-95429109D01*
X123709518Y-95429115D01*
X123619547Y-95572302D01*
X123619545Y-95572305D01*
X123563685Y-95731943D01*
X123544751Y-95899997D01*
X111760500Y-95899997D01*
X111760500Y-94099997D01*
X140544751Y-94099997D01*
X140544751Y-94100002D01*
X140563685Y-94268056D01*
X140619545Y-94427694D01*
X140619547Y-94427697D01*
X140709518Y-94570884D01*
X140709523Y-94570890D01*
X140829109Y-94690476D01*
X140829115Y-94690481D01*
X140972302Y-94780452D01*
X140972305Y-94780454D01*
X140972309Y-94780455D01*
X140972310Y-94780456D01*
X140990495Y-94786819D01*
X141131943Y-94836314D01*
X141299997Y-94855249D01*
X141300000Y-94855249D01*
X141300003Y-94855249D01*
X141400835Y-94843887D01*
X141468059Y-94836313D01*
X141627690Y-94780456D01*
X141645117Y-94769506D01*
X141711088Y-94750500D01*
X145737771Y-94750500D01*
X145804810Y-94770185D01*
X145825452Y-94786819D01*
X145829109Y-94790476D01*
X145829115Y-94790481D01*
X145972302Y-94880452D01*
X145972305Y-94880454D01*
X145972309Y-94880455D01*
X145972310Y-94880456D01*
X146044913Y-94905860D01*
X146131943Y-94936314D01*
X146299997Y-94955249D01*
X146300000Y-94955249D01*
X146300003Y-94955249D01*
X146468056Y-94936314D01*
X146468059Y-94936313D01*
X146627690Y-94880456D01*
X146627692Y-94880454D01*
X146627694Y-94880454D01*
X146627697Y-94880452D01*
X146770884Y-94790481D01*
X146770885Y-94790480D01*
X146770890Y-94790477D01*
X146890477Y-94670890D01*
X146890481Y-94670884D01*
X146980452Y-94527697D01*
X146980454Y-94527694D01*
X146980454Y-94527692D01*
X146980456Y-94527690D01*
X147036313Y-94368059D01*
X147036313Y-94368058D01*
X147036314Y-94368056D01*
X147055249Y-94200002D01*
X147055249Y-94199997D01*
X147036314Y-94031943D01*
X146980454Y-93872305D01*
X146980452Y-93872302D01*
X146890481Y-93729115D01*
X146890476Y-93729109D01*
X146770890Y-93609523D01*
X146770884Y-93609518D01*
X146627697Y-93519547D01*
X146627694Y-93519545D01*
X146468056Y-93463685D01*
X146300003Y-93444751D01*
X146299998Y-93444751D01*
X146264774Y-93448720D01*
X146250890Y-93449500D01*
X144843043Y-93449500D01*
X144800101Y-93436890D01*
X144778351Y-93447640D01*
X144756957Y-93449500D01*
X141711088Y-93449500D01*
X141645117Y-93430494D01*
X141636168Y-93424871D01*
X141627690Y-93419544D01*
X141627689Y-93419543D01*
X141627688Y-93419543D01*
X141468057Y-93363686D01*
X141300003Y-93344751D01*
X141299997Y-93344751D01*
X141131943Y-93363685D01*
X140972305Y-93419545D01*
X140972302Y-93419547D01*
X140829115Y-93509518D01*
X140829109Y-93509523D01*
X140709523Y-93629109D01*
X140709518Y-93629115D01*
X140619547Y-93772302D01*
X140619545Y-93772305D01*
X140563685Y-93931943D01*
X140544751Y-94099997D01*
X111760500Y-94099997D01*
X111760500Y-90999997D01*
X117744751Y-90999997D01*
X117744751Y-91000002D01*
X117763685Y-91168056D01*
X117819545Y-91327694D01*
X117819547Y-91327697D01*
X117909518Y-91470884D01*
X117909523Y-91470890D01*
X118029109Y-91590476D01*
X118029115Y-91590481D01*
X118172302Y-91680452D01*
X118172305Y-91680454D01*
X118172309Y-91680455D01*
X118172310Y-91680456D01*
X118243225Y-91705270D01*
X118331943Y-91736314D01*
X118499997Y-91755249D01*
X118500000Y-91755249D01*
X118500002Y-91755249D01*
X118535226Y-91751280D01*
X118549110Y-91750500D01*
X124628360Y-91750500D01*
X124695399Y-91770185D01*
X124741154Y-91822989D01*
X124751580Y-91860616D01*
X124763685Y-91968055D01*
X124819545Y-92127694D01*
X124819547Y-92127697D01*
X124909518Y-92270884D01*
X124909523Y-92270890D01*
X125029109Y-92390476D01*
X125029115Y-92390481D01*
X125172302Y-92480452D01*
X125172305Y-92480454D01*
X125172309Y-92480455D01*
X125172310Y-92480456D01*
X125244913Y-92505860D01*
X125331943Y-92536314D01*
X125499997Y-92555249D01*
X125500000Y-92555249D01*
X125500003Y-92555249D01*
X125600835Y-92543887D01*
X125668059Y-92536313D01*
X125827690Y-92480456D01*
X125845117Y-92469506D01*
X125911088Y-92450500D01*
X127446439Y-92450500D01*
X127512411Y-92469507D01*
X127646536Y-92553784D01*
X127646539Y-92553786D01*
X127646543Y-92553787D01*
X127646544Y-92553788D01*
X127719147Y-92579192D01*
X127806177Y-92609646D01*
X127974231Y-92628581D01*
X127974234Y-92628581D01*
X127974237Y-92628581D01*
X128142290Y-92609646D01*
X128142293Y-92609645D01*
X128301924Y-92553788D01*
X128301926Y-92553786D01*
X128301928Y-92553786D01*
X128301931Y-92553784D01*
X128445118Y-92463813D01*
X128445119Y-92463812D01*
X128445124Y-92463809D01*
X128564711Y-92344222D01*
X128604778Y-92280456D01*
X128654686Y-92201029D01*
X128654688Y-92201026D01*
X128654688Y-92201024D01*
X128654690Y-92201022D01*
X128710547Y-92041391D01*
X128710547Y-92041390D01*
X128710548Y-92041388D01*
X128729483Y-91873334D01*
X128729483Y-91873329D01*
X128710547Y-91705272D01*
X128710547Y-91705270D01*
X128673710Y-91599997D01*
X131144751Y-91599997D01*
X131144751Y-91600002D01*
X131163685Y-91768056D01*
X131219545Y-91927694D01*
X131219547Y-91927697D01*
X131309518Y-92070884D01*
X131309523Y-92070890D01*
X131429109Y-92190476D01*
X131429115Y-92190481D01*
X131572302Y-92280452D01*
X131572305Y-92280454D01*
X131572309Y-92280455D01*
X131572310Y-92280456D01*
X131644913Y-92305860D01*
X131731943Y-92336314D01*
X131899997Y-92355249D01*
X131900000Y-92355249D01*
X131900003Y-92355249D01*
X132000835Y-92343887D01*
X132068059Y-92336313D01*
X132227690Y-92280456D01*
X132245117Y-92269506D01*
X132311088Y-92250500D01*
X132888912Y-92250500D01*
X132954883Y-92269506D01*
X132972310Y-92280456D01*
X133131941Y-92336313D01*
X133173955Y-92341047D01*
X133299997Y-92355249D01*
X133300000Y-92355249D01*
X133300003Y-92355249D01*
X133468056Y-92336314D01*
X133468059Y-92336313D01*
X133627690Y-92280456D01*
X133627692Y-92280454D01*
X133627694Y-92280454D01*
X133627697Y-92280452D01*
X133770884Y-92190481D01*
X133770885Y-92190480D01*
X133770890Y-92190477D01*
X133890477Y-92070890D01*
X133903304Y-92050476D01*
X133980452Y-91927697D01*
X133980454Y-91927694D01*
X133980454Y-91927692D01*
X133980456Y-91927690D01*
X134036313Y-91768059D01*
X134036313Y-91768058D01*
X134036314Y-91768056D01*
X134055249Y-91600002D01*
X134055249Y-91599997D01*
X134036314Y-91431943D01*
X133980454Y-91272305D01*
X133980452Y-91272302D01*
X133890481Y-91129115D01*
X133890476Y-91129109D01*
X133770890Y-91009523D01*
X133770884Y-91009518D01*
X133627697Y-90919547D01*
X133627694Y-90919545D01*
X133468056Y-90863685D01*
X133300003Y-90844751D01*
X133299997Y-90844751D01*
X133131942Y-90863686D01*
X132972311Y-90919543D01*
X132954883Y-90930494D01*
X132888912Y-90949500D01*
X132311088Y-90949500D01*
X132245117Y-90930494D01*
X132236168Y-90924871D01*
X132227690Y-90919544D01*
X132227689Y-90919543D01*
X132227688Y-90919543D01*
X132068057Y-90863686D01*
X131900003Y-90844751D01*
X131899997Y-90844751D01*
X131731943Y-90863685D01*
X131572305Y-90919545D01*
X131572302Y-90919547D01*
X131429115Y-91009518D01*
X131429109Y-91009523D01*
X131309523Y-91129109D01*
X131309518Y-91129115D01*
X131219547Y-91272302D01*
X131219545Y-91272305D01*
X131163685Y-91431943D01*
X131144751Y-91599997D01*
X128673710Y-91599997D01*
X128672892Y-91597660D01*
X128669330Y-91527881D01*
X128678222Y-91502885D01*
X128678915Y-91501445D01*
X128678919Y-91501439D01*
X128734776Y-91341808D01*
X128753712Y-91173749D01*
X128752208Y-91160403D01*
X128734776Y-91005689D01*
X128734776Y-91005688D01*
X128692763Y-90885623D01*
X128689201Y-90815844D01*
X128692763Y-90803712D01*
X128693504Y-90801593D01*
X128693507Y-90801589D01*
X128749364Y-90641958D01*
X128768300Y-90473899D01*
X128766810Y-90460671D01*
X128749365Y-90305842D01*
X128718911Y-90218812D01*
X128693507Y-90146209D01*
X128693506Y-90146208D01*
X128693505Y-90146204D01*
X128693503Y-90146201D01*
X128642060Y-90064330D01*
X143841315Y-90064330D01*
X143841315Y-90064335D01*
X143860249Y-90232389D01*
X143916109Y-90392026D01*
X143916994Y-90393434D01*
X143917287Y-90394473D01*
X143919130Y-90398299D01*
X143918460Y-90398621D01*
X143935995Y-90460671D01*
X143929043Y-90500362D01*
X143883111Y-90631625D01*
X143883110Y-90631630D01*
X143862915Y-90810876D01*
X143862915Y-90810883D01*
X143883110Y-90990129D01*
X143883111Y-90990134D01*
X143942691Y-91160403D01*
X144015640Y-91276500D01*
X144034640Y-91343737D01*
X144027689Y-91383423D01*
X144014631Y-91420743D01*
X143994435Y-91599993D01*
X143994435Y-91600000D01*
X144014630Y-91779246D01*
X144014633Y-91779259D01*
X144076510Y-91956091D01*
X144074366Y-91956840D01*
X144083960Y-92015158D01*
X144075612Y-92043592D01*
X144076510Y-92043906D01*
X144014633Y-92220737D01*
X144014630Y-92220750D01*
X143994435Y-92399996D01*
X143994435Y-92400003D01*
X144014630Y-92579249D01*
X144014631Y-92579254D01*
X144074211Y-92749523D01*
X144170184Y-92902262D01*
X144297738Y-93029816D01*
X144450478Y-93125789D01*
X144620739Y-93185366D01*
X144620745Y-93185368D01*
X144620750Y-93185369D01*
X144770840Y-93202280D01*
X144797366Y-93213426D01*
X144808108Y-93206523D01*
X144829160Y-93202280D01*
X144979249Y-93185369D01*
X144979251Y-93185368D01*
X144979255Y-93185368D01*
X144979258Y-93185366D01*
X144979262Y-93185366D01*
X145069377Y-93153832D01*
X145149522Y-93125789D01*
X145239096Y-93069505D01*
X145305068Y-93050500D01*
X149694932Y-93050500D01*
X149760904Y-93069506D01*
X149850477Y-93125789D01*
X149850481Y-93125790D01*
X150020737Y-93185366D01*
X150020743Y-93185367D01*
X150020745Y-93185368D01*
X150020746Y-93185368D01*
X150020750Y-93185369D01*
X150199996Y-93205565D01*
X150200000Y-93205565D01*
X150200004Y-93205565D01*
X150379249Y-93185369D01*
X150379252Y-93185368D01*
X150379255Y-93185368D01*
X150549522Y-93125789D01*
X150702262Y-93029816D01*
X150829816Y-92902262D01*
X150925789Y-92749522D01*
X150985368Y-92579255D01*
X150988073Y-92555249D01*
X151005565Y-92400003D01*
X151005565Y-92399996D01*
X150985369Y-92220750D01*
X150985368Y-92220745D01*
X150952808Y-92127694D01*
X150925789Y-92050478D01*
X150920077Y-92041388D01*
X150862352Y-91949519D01*
X150829816Y-91897738D01*
X150702262Y-91770184D01*
X150678493Y-91755249D01*
X150549521Y-91674210D01*
X150379249Y-91614630D01*
X150303265Y-91606069D01*
X150238851Y-91579002D01*
X150199296Y-91521407D01*
X150193930Y-91496743D01*
X150185368Y-91420745D01*
X150125789Y-91250478D01*
X150029816Y-91097738D01*
X149902262Y-90970184D01*
X149897338Y-90965260D01*
X149898609Y-90963988D01*
X149863705Y-90914260D01*
X149860855Y-90844448D01*
X149896200Y-90784178D01*
X149958518Y-90752584D01*
X149981158Y-90750500D01*
X151488912Y-90750500D01*
X151554883Y-90769506D01*
X151572310Y-90780456D01*
X151731941Y-90836313D01*
X151773955Y-90841047D01*
X151899997Y-90855249D01*
X151900000Y-90855249D01*
X151900003Y-90855249D01*
X152068056Y-90836314D01*
X152080548Y-90831943D01*
X152227690Y-90780456D01*
X152227692Y-90780454D01*
X152227694Y-90780454D01*
X152227697Y-90780452D01*
X152370884Y-90690481D01*
X152370885Y-90690480D01*
X152370890Y-90690477D01*
X152490477Y-90570890D01*
X152516726Y-90529115D01*
X152580452Y-90427697D01*
X152580454Y-90427694D01*
X152580454Y-90427692D01*
X152580456Y-90427690D01*
X152636313Y-90268059D01*
X152636313Y-90268058D01*
X152636314Y-90268056D01*
X152655249Y-90100002D01*
X152655249Y-90099997D01*
X152636314Y-89931943D01*
X152605860Y-89844913D01*
X152580456Y-89772310D01*
X152580455Y-89772309D01*
X152580454Y-89772305D01*
X152580452Y-89772302D01*
X152490481Y-89629115D01*
X152490476Y-89629109D01*
X152370890Y-89509523D01*
X152370884Y-89509518D01*
X152227697Y-89419547D01*
X152227694Y-89419545D01*
X152068056Y-89363685D01*
X151900003Y-89344751D01*
X151899997Y-89344751D01*
X151731942Y-89363686D01*
X151572311Y-89419543D01*
X151554883Y-89430494D01*
X151488912Y-89449500D01*
X149300559Y-89449500D01*
X149233520Y-89429815D01*
X149187765Y-89377011D01*
X149177821Y-89307853D01*
X149183517Y-89284546D01*
X149185367Y-89279257D01*
X149185368Y-89279255D01*
X149186307Y-89270925D01*
X149205565Y-89100003D01*
X149205565Y-89099996D01*
X149185369Y-88920750D01*
X149185368Y-88920745D01*
X149168417Y-88872302D01*
X149125789Y-88750478D01*
X149029816Y-88597738D01*
X148902262Y-88470184D01*
X148861786Y-88444751D01*
X148749523Y-88374211D01*
X148579254Y-88314631D01*
X148579249Y-88314630D01*
X148400004Y-88294435D01*
X148399996Y-88294435D01*
X148220750Y-88314630D01*
X148220745Y-88314631D01*
X148050476Y-88374211D01*
X147897737Y-88470184D01*
X147854741Y-88513181D01*
X147793418Y-88546666D01*
X147767060Y-88549500D01*
X146105068Y-88549500D01*
X146039096Y-88530494D01*
X145949522Y-88474210D01*
X145949518Y-88474209D01*
X145779262Y-88414633D01*
X145779249Y-88414630D01*
X145600004Y-88394435D01*
X145599996Y-88394435D01*
X145420750Y-88414630D01*
X145420745Y-88414631D01*
X145250476Y-88474211D01*
X145097737Y-88570184D01*
X144970184Y-88697737D01*
X144874211Y-88850476D01*
X144814631Y-89020745D01*
X144814630Y-89020749D01*
X144793700Y-89206511D01*
X144766633Y-89270925D01*
X144709038Y-89310480D01*
X144656598Y-89315847D01*
X144596569Y-89309084D01*
X144596561Y-89309084D01*
X144428507Y-89328018D01*
X144268869Y-89383878D01*
X144268866Y-89383880D01*
X144125679Y-89473851D01*
X144125673Y-89473856D01*
X144006087Y-89593442D01*
X144006082Y-89593448D01*
X143916111Y-89736635D01*
X143916109Y-89736638D01*
X143860249Y-89896276D01*
X143841315Y-90064330D01*
X128642060Y-90064330D01*
X128603532Y-90003014D01*
X128603527Y-90003008D01*
X128483940Y-89883421D01*
X128430746Y-89849997D01*
X128393994Y-89826904D01*
X128347704Y-89774570D01*
X128336746Y-89735785D01*
X128336313Y-89731941D01*
X128286979Y-89590954D01*
X128283418Y-89521176D01*
X128286980Y-89509045D01*
X128336313Y-89368060D01*
X128336313Y-89368059D01*
X128355249Y-89200002D01*
X128355249Y-89199997D01*
X128336314Y-89031943D01*
X128280454Y-88872305D01*
X128280452Y-88872302D01*
X128190481Y-88729115D01*
X128190476Y-88729109D01*
X128070890Y-88609523D01*
X128070884Y-88609518D01*
X127927697Y-88519547D01*
X127927694Y-88519545D01*
X127768056Y-88463685D01*
X127600003Y-88444751D01*
X127599997Y-88444751D01*
X127431942Y-88463686D01*
X127272311Y-88519543D01*
X127254883Y-88530494D01*
X127188912Y-88549500D01*
X120705068Y-88549500D01*
X120639096Y-88530494D01*
X120549522Y-88474210D01*
X120549518Y-88474209D01*
X120379262Y-88414633D01*
X120379249Y-88414630D01*
X120200004Y-88394435D01*
X120199996Y-88394435D01*
X120020750Y-88414630D01*
X120020745Y-88414631D01*
X119850476Y-88474211D01*
X119697737Y-88570184D01*
X119570184Y-88697737D01*
X119474210Y-88850478D01*
X119436531Y-88958158D01*
X119414632Y-89020745D01*
X119414631Y-89020747D01*
X119412333Y-89027317D01*
X119409606Y-89026362D01*
X119381782Y-89076043D01*
X119320103Y-89108867D01*
X119308936Y-89110645D01*
X119281941Y-89113687D01*
X119122307Y-89169544D01*
X119122302Y-89169547D01*
X118979115Y-89259518D01*
X118979109Y-89259523D01*
X118859523Y-89379109D01*
X118859518Y-89379115D01*
X118769547Y-89522302D01*
X118769545Y-89522305D01*
X118713685Y-89681943D01*
X118694751Y-89849997D01*
X118694751Y-89850002D01*
X118713686Y-90018057D01*
X118739857Y-90092850D01*
X118743418Y-90162628D01*
X118708689Y-90223256D01*
X118646696Y-90255483D01*
X118608932Y-90257024D01*
X118500004Y-90244751D01*
X118499997Y-90244751D01*
X118331943Y-90263685D01*
X118172305Y-90319545D01*
X118172302Y-90319547D01*
X118029115Y-90409518D01*
X118029109Y-90409523D01*
X117909523Y-90529109D01*
X117909518Y-90529115D01*
X117819547Y-90672302D01*
X117819545Y-90672305D01*
X117763685Y-90831943D01*
X117744751Y-90999997D01*
X111760500Y-90999997D01*
X111760500Y-86199997D01*
X126044751Y-86199997D01*
X126044751Y-86200002D01*
X126063685Y-86368056D01*
X126119545Y-86527694D01*
X126119547Y-86527697D01*
X126209518Y-86670884D01*
X126209523Y-86670890D01*
X126329109Y-86790476D01*
X126329115Y-86790481D01*
X126472302Y-86880452D01*
X126472305Y-86880454D01*
X126472309Y-86880455D01*
X126472310Y-86880456D01*
X126528278Y-86900040D01*
X126631943Y-86936314D01*
X126799997Y-86955249D01*
X126800000Y-86955249D01*
X126800003Y-86955249D01*
X126900835Y-86943887D01*
X126968059Y-86936313D01*
X127127690Y-86880456D01*
X127145117Y-86869506D01*
X127211088Y-86850500D01*
X128234905Y-86850500D01*
X128300877Y-86869506D01*
X128318298Y-86880452D01*
X128349475Y-86900042D01*
X128453135Y-86936314D01*
X128509108Y-86955900D01*
X128677162Y-86974835D01*
X128677165Y-86974835D01*
X128677168Y-86974835D01*
X128845221Y-86955900D01*
X128845224Y-86955899D01*
X129004855Y-86900042D01*
X129004857Y-86900040D01*
X129004859Y-86900040D01*
X129004862Y-86900038D01*
X129148049Y-86810067D01*
X129148050Y-86810066D01*
X129148055Y-86810063D01*
X129267642Y-86690476D01*
X129267646Y-86690470D01*
X129357617Y-86547283D01*
X129357619Y-86547280D01*
X129357619Y-86547278D01*
X129357621Y-86547276D01*
X129413478Y-86387645D01*
X129413478Y-86387644D01*
X129413479Y-86387642D01*
X129432414Y-86219588D01*
X129432414Y-86219583D01*
X129413478Y-86051526D01*
X129413478Y-86051524D01*
X129374910Y-85941304D01*
X129371348Y-85871525D01*
X129406076Y-85810898D01*
X129468070Y-85778670D01*
X129505835Y-85777129D01*
X129511274Y-85777742D01*
X129596120Y-85768182D01*
X129679330Y-85758807D01*
X129703070Y-85750500D01*
X129838964Y-85702949D01*
X129838966Y-85702947D01*
X129838968Y-85702947D01*
X129838971Y-85702945D01*
X129982158Y-85612974D01*
X129982159Y-85612973D01*
X129982164Y-85612970D01*
X130101751Y-85493383D01*
X130107683Y-85483942D01*
X130191726Y-85350190D01*
X130191728Y-85350187D01*
X130191728Y-85350185D01*
X130191730Y-85350183D01*
X130247587Y-85190552D01*
X130247587Y-85190551D01*
X130247588Y-85190549D01*
X130266523Y-85022495D01*
X130266523Y-85022490D01*
X130247588Y-84854436D01*
X130206255Y-84736313D01*
X130191730Y-84694803D01*
X130191729Y-84694802D01*
X130191728Y-84694798D01*
X130191726Y-84694795D01*
X130101755Y-84551608D01*
X130101750Y-84551602D01*
X129982164Y-84432016D01*
X129982158Y-84432011D01*
X129838971Y-84342040D01*
X129838968Y-84342038D01*
X129679330Y-84286178D01*
X129511277Y-84267244D01*
X129511271Y-84267244D01*
X129343216Y-84286179D01*
X129183585Y-84342036D01*
X129166157Y-84352987D01*
X129100186Y-84371993D01*
X128112863Y-84371993D01*
X128071909Y-84365034D01*
X128069312Y-84364125D01*
X128068054Y-84363685D01*
X127900003Y-84344751D01*
X127899997Y-84344751D01*
X127731943Y-84363685D01*
X127572305Y-84419545D01*
X127572302Y-84419547D01*
X127429115Y-84509518D01*
X127429109Y-84509523D01*
X127309523Y-84629109D01*
X127309518Y-84629115D01*
X127219547Y-84772302D01*
X127219545Y-84772305D01*
X127163685Y-84931943D01*
X127144751Y-85099997D01*
X127144751Y-85100002D01*
X127163686Y-85268057D01*
X127183942Y-85325946D01*
X127187503Y-85395725D01*
X127152774Y-85456352D01*
X127090781Y-85488579D01*
X127025946Y-85483942D01*
X126968057Y-85463686D01*
X126800003Y-85444751D01*
X126799997Y-85444751D01*
X126631943Y-85463685D01*
X126472305Y-85519545D01*
X126472302Y-85519547D01*
X126329115Y-85609518D01*
X126329109Y-85609523D01*
X126209523Y-85729109D01*
X126209518Y-85729115D01*
X126119547Y-85872302D01*
X126119545Y-85872305D01*
X126063685Y-86031943D01*
X126044751Y-86199997D01*
X111760500Y-86199997D01*
X111760500Y-82599997D01*
X130574751Y-82599997D01*
X130574751Y-82600002D01*
X130593686Y-82768059D01*
X130593686Y-82768061D01*
X130642541Y-82907678D01*
X130649500Y-82948633D01*
X130649500Y-83664069D01*
X130655031Y-83691873D01*
X130674499Y-83789744D01*
X130723535Y-83908127D01*
X130784920Y-83999997D01*
X130794726Y-84014673D01*
X131885325Y-85105272D01*
X131885331Y-85105277D01*
X131991874Y-85176466D01*
X132061221Y-85205189D01*
X132110256Y-85225501D01*
X132110259Y-85225501D01*
X132110260Y-85225502D01*
X132235928Y-85250500D01*
X132235931Y-85250500D01*
X133438912Y-85250500D01*
X133504883Y-85269506D01*
X133522310Y-85280456D01*
X133681941Y-85336313D01*
X133723955Y-85341047D01*
X133849997Y-85355249D01*
X133850000Y-85355249D01*
X133850003Y-85355249D01*
X134018056Y-85336314D01*
X134047686Y-85325946D01*
X134177690Y-85280456D01*
X134177692Y-85280454D01*
X134177694Y-85280454D01*
X134177697Y-85280452D01*
X134320884Y-85190481D01*
X134320885Y-85190480D01*
X134320890Y-85190477D01*
X134411371Y-85099996D01*
X143094435Y-85099996D01*
X143094435Y-85100003D01*
X143114630Y-85279249D01*
X143114631Y-85279254D01*
X143174211Y-85449523D01*
X143270184Y-85602262D01*
X143273479Y-85605557D01*
X143306964Y-85666880D01*
X143302840Y-85734192D01*
X143263686Y-85846089D01*
X143244751Y-86014144D01*
X143244751Y-86014149D01*
X143263685Y-86182203D01*
X143319545Y-86341839D01*
X143386361Y-86448175D01*
X143405361Y-86515411D01*
X143386361Y-86580119D01*
X143319545Y-86686454D01*
X143263685Y-86846090D01*
X143244751Y-87014144D01*
X143244751Y-87014149D01*
X143263685Y-87182203D01*
X143319545Y-87341841D01*
X143319547Y-87341844D01*
X143409518Y-87485031D01*
X143409523Y-87485037D01*
X143529109Y-87604623D01*
X143529115Y-87604628D01*
X143672302Y-87694599D01*
X143672305Y-87694601D01*
X143672309Y-87694602D01*
X143672310Y-87694603D01*
X143744913Y-87720007D01*
X143831943Y-87750461D01*
X143999997Y-87769396D01*
X144000000Y-87769396D01*
X144000003Y-87769396D01*
X144100835Y-87758034D01*
X144168059Y-87750460D01*
X144327690Y-87694603D01*
X144345117Y-87683653D01*
X144411088Y-87664647D01*
X145787425Y-87664647D01*
X145815137Y-87659133D01*
X145825847Y-87657003D01*
X145836155Y-87655400D01*
X145837497Y-87655248D01*
X145837500Y-87655249D01*
X145920715Y-87645872D01*
X146005555Y-87636314D01*
X146005557Y-87636313D01*
X146005559Y-87636313D01*
X146165190Y-87580456D01*
X146165192Y-87580454D01*
X146165194Y-87580454D01*
X146165197Y-87580452D01*
X146308386Y-87490480D01*
X146308387Y-87490478D01*
X146308390Y-87490477D01*
X146427977Y-87370890D01*
X146446230Y-87341841D01*
X146517952Y-87227697D01*
X146517954Y-87227694D01*
X146517954Y-87227692D01*
X146517956Y-87227690D01*
X146573813Y-87068059D01*
X146573813Y-87068058D01*
X146573814Y-87068056D01*
X146592749Y-86900002D01*
X146592749Y-86900001D01*
X146592749Y-86900000D01*
X146588933Y-86866139D01*
X146600986Y-86797320D01*
X146648334Y-86745939D01*
X146671188Y-86735218D01*
X146827690Y-86680456D01*
X146827692Y-86680455D01*
X146827697Y-86680452D01*
X146970884Y-86590481D01*
X146970885Y-86590480D01*
X146970890Y-86590477D01*
X147090477Y-86470890D01*
X147142784Y-86387645D01*
X147180452Y-86327697D01*
X147180454Y-86327694D01*
X147180454Y-86327692D01*
X147180456Y-86327690D01*
X147236313Y-86168059D01*
X147236313Y-86168058D01*
X147236314Y-86168056D01*
X147255249Y-86000002D01*
X147255249Y-85999997D01*
X147242673Y-85888384D01*
X147254727Y-85819562D01*
X147302076Y-85768182D01*
X147365893Y-85750500D01*
X153894932Y-85750500D01*
X153960904Y-85769506D01*
X154050477Y-85825789D01*
X154050481Y-85825790D01*
X154220737Y-85885366D01*
X154220743Y-85885367D01*
X154220745Y-85885368D01*
X154220746Y-85885368D01*
X154220750Y-85885369D01*
X154399996Y-85905565D01*
X154400000Y-85905565D01*
X154400004Y-85905565D01*
X154579249Y-85885369D01*
X154579252Y-85885368D01*
X154579255Y-85885368D01*
X154749522Y-85825789D01*
X154902262Y-85729816D01*
X155029816Y-85602262D01*
X155125789Y-85449522D01*
X155185368Y-85279255D01*
X155185369Y-85279249D01*
X155205565Y-85100003D01*
X155205565Y-85099996D01*
X155185369Y-84920750D01*
X155185368Y-84920745D01*
X155125788Y-84750475D01*
X155056668Y-84640473D01*
X155037667Y-84573236D01*
X155058034Y-84506401D01*
X155111302Y-84461186D01*
X155161661Y-84450500D01*
X157494932Y-84450500D01*
X157560904Y-84469506D01*
X157650477Y-84525789D01*
X157650481Y-84525790D01*
X157820737Y-84585366D01*
X157820743Y-84585367D01*
X157820745Y-84585368D01*
X157820746Y-84585368D01*
X157820750Y-84585369D01*
X157999996Y-84605565D01*
X158000000Y-84605565D01*
X158000004Y-84605565D01*
X158179249Y-84585369D01*
X158179252Y-84585368D01*
X158179255Y-84585368D01*
X158349522Y-84525789D01*
X158502262Y-84429816D01*
X158629816Y-84302262D01*
X158725789Y-84149522D01*
X158785368Y-83979255D01*
X158793382Y-83908127D01*
X158805565Y-83800003D01*
X158805565Y-83799996D01*
X158785369Y-83620750D01*
X158785368Y-83620745D01*
X158753305Y-83529115D01*
X158725789Y-83450478D01*
X158708516Y-83422989D01*
X158681789Y-83380452D01*
X158629816Y-83297738D01*
X158502262Y-83170184D01*
X158439096Y-83130494D01*
X158349523Y-83074211D01*
X158179254Y-83014631D01*
X158179249Y-83014630D01*
X158000004Y-82994435D01*
X157999996Y-82994435D01*
X157820750Y-83014630D01*
X157820737Y-83014633D01*
X157650481Y-83074209D01*
X157650477Y-83074210D01*
X157560904Y-83130494D01*
X157494932Y-83149500D01*
X156412595Y-83149500D01*
X156345556Y-83129815D01*
X156299801Y-83077011D01*
X156289857Y-83007853D01*
X156295553Y-82984546D01*
X156315491Y-82927564D01*
X156336313Y-82868059D01*
X156347580Y-82768061D01*
X156355249Y-82700002D01*
X156355249Y-82699997D01*
X156336314Y-82531943D01*
X156280454Y-82372305D01*
X156280452Y-82372302D01*
X156190481Y-82229115D01*
X156190476Y-82229109D01*
X156070890Y-82109523D01*
X156070884Y-82109518D01*
X155927697Y-82019547D01*
X155927694Y-82019545D01*
X155768056Y-81963685D01*
X155600003Y-81944751D01*
X155599997Y-81944751D01*
X155431942Y-81963686D01*
X155272311Y-82019543D01*
X155254883Y-82030494D01*
X155188912Y-82049500D01*
X144311088Y-82049500D01*
X144245117Y-82030494D01*
X144236168Y-82024871D01*
X144227690Y-82019544D01*
X144227689Y-82019543D01*
X144227688Y-82019543D01*
X144068057Y-81963686D01*
X143900003Y-81944751D01*
X143899997Y-81944751D01*
X143731943Y-81963685D01*
X143572305Y-82019545D01*
X143572302Y-82019547D01*
X143429115Y-82109518D01*
X143429109Y-82109523D01*
X143309523Y-82229109D01*
X143309518Y-82229115D01*
X143219547Y-82372302D01*
X143219545Y-82372305D01*
X143163685Y-82531943D01*
X143144751Y-82699997D01*
X143144751Y-82700002D01*
X143163685Y-82868056D01*
X143219545Y-83027694D01*
X143219547Y-83027697D01*
X143309518Y-83170884D01*
X143309523Y-83170890D01*
X143429109Y-83290476D01*
X143429115Y-83290481D01*
X143572302Y-83380452D01*
X143572305Y-83380454D01*
X143572309Y-83380455D01*
X143572310Y-83380456D01*
X143621179Y-83397556D01*
X143731943Y-83436314D01*
X143899997Y-83455249D01*
X143900000Y-83455249D01*
X143900003Y-83455249D01*
X144000835Y-83443887D01*
X144068059Y-83436313D01*
X144227690Y-83380456D01*
X144245117Y-83369506D01*
X144311088Y-83350500D01*
X153534433Y-83350500D01*
X153601472Y-83370185D01*
X153647227Y-83422989D01*
X153657171Y-83492147D01*
X153651474Y-83515455D01*
X153614633Y-83620737D01*
X153614630Y-83620750D01*
X153594435Y-83799996D01*
X153594435Y-83800003D01*
X153614630Y-83979249D01*
X153614631Y-83979254D01*
X153674211Y-84149524D01*
X153743332Y-84259527D01*
X153762333Y-84326764D01*
X153741966Y-84393599D01*
X153688698Y-84438814D01*
X153638339Y-84449500D01*
X144405068Y-84449500D01*
X144339096Y-84430494D01*
X144249522Y-84374210D01*
X144249518Y-84374209D01*
X144079262Y-84314633D01*
X144079249Y-84314630D01*
X143900004Y-84294435D01*
X143899996Y-84294435D01*
X143720750Y-84314630D01*
X143720745Y-84314631D01*
X143550476Y-84374211D01*
X143397737Y-84470184D01*
X143270184Y-84597737D01*
X143174211Y-84750476D01*
X143114631Y-84920745D01*
X143114630Y-84920750D01*
X143094435Y-85099996D01*
X134411371Y-85099996D01*
X134440477Y-85070890D01*
X134530456Y-84927690D01*
X134568789Y-84818139D01*
X134609509Y-84761365D01*
X134661766Y-84740035D01*
X134661271Y-84737862D01*
X134668052Y-84736313D01*
X134668059Y-84736313D01*
X134827690Y-84680456D01*
X134827693Y-84680453D01*
X134827697Y-84680452D01*
X134970884Y-84590481D01*
X134970885Y-84590480D01*
X134970890Y-84590477D01*
X135090477Y-84470890D01*
X135091347Y-84469506D01*
X135180452Y-84327697D01*
X135180454Y-84327694D01*
X135180454Y-84327692D01*
X135180456Y-84327690D01*
X135236313Y-84168059D01*
X135236313Y-84168058D01*
X135236314Y-84168056D01*
X135255249Y-84000002D01*
X135255249Y-83999997D01*
X135236314Y-83831943D01*
X135180454Y-83672305D01*
X135180452Y-83672302D01*
X135090481Y-83529115D01*
X135090476Y-83529109D01*
X134970890Y-83409523D01*
X134970884Y-83409518D01*
X134827697Y-83319547D01*
X134827694Y-83319545D01*
X134668056Y-83263685D01*
X134500003Y-83244751D01*
X134499997Y-83244751D01*
X134331942Y-83263686D01*
X134172311Y-83319543D01*
X134154883Y-83330494D01*
X134088912Y-83349500D01*
X133061088Y-83349500D01*
X132995117Y-83330494D01*
X132986168Y-83324871D01*
X132977690Y-83319544D01*
X132977689Y-83319543D01*
X132977688Y-83319543D01*
X132818057Y-83263686D01*
X132650003Y-83244751D01*
X132649997Y-83244751D01*
X132481943Y-83263685D01*
X132322305Y-83319545D01*
X132322302Y-83319547D01*
X132173214Y-83413227D01*
X132171909Y-83411151D01*
X132117773Y-83433234D01*
X132049081Y-83420458D01*
X132017502Y-83397556D01*
X131986819Y-83366873D01*
X131953334Y-83305550D01*
X131950500Y-83279192D01*
X131950500Y-83058831D01*
X131969506Y-82992859D01*
X132010456Y-82927690D01*
X132066313Y-82768059D01*
X132085249Y-82600000D01*
X132077581Y-82531943D01*
X132066314Y-82431943D01*
X132010454Y-82272305D01*
X132010452Y-82272302D01*
X131920481Y-82129115D01*
X131920476Y-82129109D01*
X131800890Y-82009523D01*
X131800884Y-82009518D01*
X131657697Y-81919547D01*
X131657694Y-81919545D01*
X131498056Y-81863685D01*
X131330003Y-81844751D01*
X131329997Y-81844751D01*
X131161943Y-81863685D01*
X131002305Y-81919545D01*
X131002302Y-81919547D01*
X130859115Y-82009518D01*
X130859109Y-82009523D01*
X130739523Y-82129109D01*
X130739518Y-82129115D01*
X130649547Y-82272302D01*
X130649545Y-82272305D01*
X130593685Y-82431943D01*
X130574751Y-82599997D01*
X111760500Y-82599997D01*
X111760500Y-61044999D01*
X112224559Y-61044999D01*
X112224559Y-61045000D01*
X112244310Y-61421872D01*
X112303346Y-61794607D01*
X112303347Y-61794614D01*
X112401023Y-62159147D01*
X112536267Y-62511468D01*
X112707599Y-62847725D01*
X112913135Y-63164223D01*
X112913137Y-63164225D01*
X113150635Y-63457511D01*
X113417489Y-63724365D01*
X113417493Y-63724368D01*
X113710776Y-63961864D01*
X114027274Y-64167400D01*
X114027279Y-64167403D01*
X114363535Y-64338734D01*
X114715857Y-64473978D01*
X115080387Y-64571653D01*
X115453129Y-64630690D01*
X115809155Y-64649348D01*
X115829999Y-64650441D01*
X115830000Y-64650441D01*
X115830001Y-64650441D01*
X115849752Y-64649405D01*
X116206871Y-64630690D01*
X116579613Y-64571653D01*
X116944143Y-64473978D01*
X117296465Y-64338734D01*
X117632721Y-64167403D01*
X117949225Y-63961863D01*
X118242511Y-63724365D01*
X118509365Y-63457511D01*
X118746863Y-63164225D01*
X118952403Y-62847721D01*
X119123734Y-62511465D01*
X119258978Y-62159143D01*
X119356653Y-61794613D01*
X119415690Y-61421871D01*
X119435441Y-61045000D01*
X119415690Y-60668129D01*
X119356653Y-60295387D01*
X119258978Y-59930857D01*
X119123734Y-59578535D01*
X118952403Y-59242280D01*
X118746863Y-58925775D01*
X118509365Y-58632489D01*
X118242511Y-58365635D01*
X117949225Y-58128137D01*
X117949223Y-58128135D01*
X117632725Y-57922599D01*
X117296468Y-57751267D01*
X116944147Y-57616023D01*
X116579614Y-57518347D01*
X116579607Y-57518346D01*
X116206872Y-57459310D01*
X115830001Y-57439559D01*
X115829999Y-57439559D01*
X115453127Y-57459310D01*
X115080392Y-57518346D01*
X115080385Y-57518347D01*
X114715852Y-57616023D01*
X114363531Y-57751267D01*
X114027275Y-57922599D01*
X113710776Y-58128135D01*
X113417493Y-58365631D01*
X113417485Y-58365638D01*
X113150638Y-58632485D01*
X113150631Y-58632493D01*
X112913135Y-58925776D01*
X112707599Y-59242275D01*
X112536267Y-59578531D01*
X112401023Y-59930852D01*
X112303347Y-60295385D01*
X112303346Y-60295392D01*
X112244310Y-60668127D01*
X112224559Y-61044999D01*
X111760500Y-61044999D01*
X111760500Y-56179500D01*
X111780185Y-56112461D01*
X111832989Y-56066706D01*
X111884500Y-56055500D01*
X120555500Y-56055500D01*
X120622539Y-56075185D01*
G37*
%TD.AperFunction*%
%TA.AperFunction,Conductor*%
G36*
X143338297Y-70274096D02*
G01*
X143382655Y-70302601D01*
X143993751Y-70913697D01*
X144027236Y-70975020D01*
X144022252Y-71044712D01*
X143980380Y-71100645D01*
X143947029Y-71118418D01*
X143930480Y-71124209D01*
X143777737Y-71220184D01*
X143650184Y-71347737D01*
X143554211Y-71500476D01*
X143494631Y-71670745D01*
X143494630Y-71670750D01*
X143474435Y-71849996D01*
X143474435Y-71850003D01*
X143494630Y-72029249D01*
X143494631Y-72029254D01*
X143554211Y-72199523D01*
X143650184Y-72352262D01*
X143735741Y-72437819D01*
X143769226Y-72499142D01*
X143764242Y-72568834D01*
X143722370Y-72624767D01*
X143656906Y-72649184D01*
X143648060Y-72649500D01*
X142505068Y-72649500D01*
X142439096Y-72630494D01*
X142349522Y-72574210D01*
X142349518Y-72574209D01*
X142179262Y-72514633D01*
X142179249Y-72514630D01*
X142000004Y-72494435D01*
X141999996Y-72494435D01*
X141820750Y-72514630D01*
X141820745Y-72514631D01*
X141650476Y-72574211D01*
X141497737Y-72670184D01*
X141370184Y-72797737D01*
X141274210Y-72950478D01*
X141214631Y-73120747D01*
X141214631Y-73120751D01*
X141209776Y-73163837D01*
X141182709Y-73228251D01*
X141127511Y-73266994D01*
X140977337Y-73319542D01*
X140977326Y-73319547D01*
X140834139Y-73409518D01*
X140834133Y-73409523D01*
X140714547Y-73529109D01*
X140714542Y-73529115D01*
X140624571Y-73672302D01*
X140624569Y-73672305D01*
X140568711Y-73831940D01*
X140567873Y-73839381D01*
X140540807Y-73903795D01*
X140483213Y-73943352D01*
X140444652Y-73949500D01*
X139002610Y-73949500D01*
X138935571Y-73929815D01*
X138889816Y-73877011D01*
X138879872Y-73807853D01*
X138897617Y-73759527D01*
X138966137Y-73650478D01*
X138980456Y-73627690D01*
X139036313Y-73468059D01*
X139036313Y-73468058D01*
X139036314Y-73468056D01*
X139055249Y-73300002D01*
X139055249Y-73300000D01*
X139052992Y-73279972D01*
X139065046Y-73211150D01*
X139112394Y-73159769D01*
X139180004Y-73142144D01*
X139190096Y-73142866D01*
X139299997Y-73155249D01*
X139300000Y-73155249D01*
X139300003Y-73155249D01*
X139468056Y-73136314D01*
X139468059Y-73136313D01*
X139627690Y-73080456D01*
X139627692Y-73080454D01*
X139627694Y-73080454D01*
X139627697Y-73080452D01*
X139770884Y-72990481D01*
X139770885Y-72990480D01*
X139770890Y-72990477D01*
X139890477Y-72870890D01*
X139936442Y-72797738D01*
X139980452Y-72727697D01*
X139980454Y-72727694D01*
X139980454Y-72727692D01*
X139980456Y-72727690D01*
X140036313Y-72568059D01*
X140036313Y-72568057D01*
X140036314Y-72568055D01*
X140055922Y-72394029D01*
X140082988Y-72329615D01*
X140140583Y-72290059D01*
X140152587Y-72287449D01*
X140152466Y-72286918D01*
X140159251Y-72285369D01*
X140159253Y-72285368D01*
X140159255Y-72285368D01*
X140329522Y-72225789D01*
X140482262Y-72129816D01*
X140609816Y-72002262D01*
X140705789Y-71849522D01*
X140765368Y-71679255D01*
X140765369Y-71679249D01*
X140785565Y-71500003D01*
X140785565Y-71499997D01*
X140772989Y-71388384D01*
X140785043Y-71319562D01*
X140832392Y-71268182D01*
X140896209Y-71250500D01*
X141435319Y-71250500D01*
X141459511Y-71252883D01*
X141521793Y-71265271D01*
X141525881Y-71266085D01*
X141525882Y-71266085D01*
X141525891Y-71266085D01*
X141530895Y-71266578D01*
X141584720Y-71284988D01*
X141602304Y-71296037D01*
X141602312Y-71296042D01*
X141672910Y-71320745D01*
X141761941Y-71351898D01*
X141803955Y-71356632D01*
X141929997Y-71370834D01*
X141930000Y-71370834D01*
X141930003Y-71370834D01*
X142098056Y-71351899D01*
X142104912Y-71349500D01*
X142257690Y-71296041D01*
X142257692Y-71296039D01*
X142257694Y-71296039D01*
X142257697Y-71296037D01*
X142400884Y-71206066D01*
X142400885Y-71206065D01*
X142400890Y-71206062D01*
X142520477Y-71086475D01*
X142524259Y-71080456D01*
X142610452Y-70943282D01*
X142610454Y-70943279D01*
X142610454Y-70943277D01*
X142610456Y-70943275D01*
X142666313Y-70783644D01*
X142666313Y-70783643D01*
X142666314Y-70783641D01*
X142685249Y-70615587D01*
X142685249Y-70615584D01*
X142683916Y-70603755D01*
X142695970Y-70534933D01*
X142743318Y-70483553D01*
X142793253Y-70466650D01*
X142898055Y-70454842D01*
X142898057Y-70454841D01*
X142898059Y-70454841D01*
X143057690Y-70398984D01*
X143200890Y-70309005D01*
X143207287Y-70302607D01*
X143268605Y-70269118D01*
X143338297Y-70274096D01*
G37*
%TD.AperFunction*%
%TA.AperFunction,Conductor*%
G36*
X144188363Y-61065185D02*
G01*
X144209005Y-61081819D01*
X144260005Y-61132819D01*
X144293490Y-61194142D01*
X144288506Y-61263834D01*
X144246634Y-61319767D01*
X144181170Y-61344184D01*
X144172325Y-61344500D01*
X143932130Y-61344500D01*
X143932123Y-61344501D01*
X143872520Y-61350908D01*
X143864974Y-61352692D01*
X143864628Y-61351230D01*
X143803622Y-61355584D01*
X143788600Y-61351172D01*
X143787482Y-61350908D01*
X143727883Y-61344501D01*
X143727881Y-61344500D01*
X143727873Y-61344500D01*
X143727864Y-61344500D01*
X142932129Y-61344500D01*
X142932123Y-61344501D01*
X142872520Y-61350908D01*
X142864974Y-61352692D01*
X142864628Y-61351230D01*
X142803622Y-61355584D01*
X142788600Y-61351172D01*
X142787482Y-61350908D01*
X142727883Y-61344501D01*
X142727881Y-61344500D01*
X142727873Y-61344500D01*
X142727864Y-61344500D01*
X141932129Y-61344500D01*
X141932123Y-61344501D01*
X141872520Y-61350908D01*
X141864974Y-61352692D01*
X141864628Y-61351230D01*
X141803622Y-61355584D01*
X141788600Y-61351172D01*
X141787482Y-61350908D01*
X141727883Y-61344501D01*
X141727881Y-61344500D01*
X141727873Y-61344500D01*
X141727864Y-61344500D01*
X140932129Y-61344500D01*
X140932123Y-61344501D01*
X140872520Y-61350908D01*
X140864974Y-61352692D01*
X140864628Y-61351230D01*
X140803622Y-61355584D01*
X140788600Y-61351172D01*
X140787482Y-61350908D01*
X140727883Y-61344501D01*
X140727881Y-61344500D01*
X140727873Y-61344500D01*
X140727864Y-61344500D01*
X139932129Y-61344500D01*
X139932123Y-61344501D01*
X139872520Y-61350908D01*
X139864974Y-61352692D01*
X139864628Y-61351230D01*
X139803622Y-61355584D01*
X139788600Y-61351172D01*
X139787482Y-61350908D01*
X139727883Y-61344501D01*
X139727881Y-61344500D01*
X139727873Y-61344500D01*
X139727864Y-61344500D01*
X138932129Y-61344500D01*
X138932123Y-61344501D01*
X138872520Y-61350908D01*
X138864974Y-61352692D01*
X138864628Y-61351230D01*
X138803622Y-61355584D01*
X138788600Y-61351172D01*
X138787482Y-61350908D01*
X138727883Y-61344501D01*
X138727881Y-61344500D01*
X138727873Y-61344500D01*
X138727864Y-61344500D01*
X137932129Y-61344500D01*
X137932123Y-61344501D01*
X137872520Y-61350908D01*
X137864974Y-61352692D01*
X137864628Y-61351230D01*
X137803622Y-61355584D01*
X137788600Y-61351172D01*
X137787482Y-61350908D01*
X137727883Y-61344501D01*
X137727881Y-61344500D01*
X137727873Y-61344500D01*
X137727864Y-61344500D01*
X136932129Y-61344500D01*
X136932123Y-61344501D01*
X136872516Y-61350908D01*
X136737671Y-61401202D01*
X136737664Y-61401206D01*
X136622455Y-61487452D01*
X136622452Y-61487455D01*
X136536206Y-61602664D01*
X136536202Y-61602671D01*
X136485908Y-61737517D01*
X136479771Y-61794607D01*
X136479501Y-61797123D01*
X136479500Y-61797135D01*
X136479500Y-66192870D01*
X136479501Y-66192876D01*
X136485908Y-66252483D01*
X136536202Y-66387328D01*
X136536206Y-66387335D01*
X136622452Y-66502544D01*
X136622455Y-66502547D01*
X136737664Y-66588793D01*
X136737671Y-66588797D01*
X136872517Y-66639091D01*
X136872516Y-66639091D01*
X136879444Y-66639835D01*
X136932127Y-66645500D01*
X137727872Y-66645499D01*
X137787483Y-66639091D01*
X137787485Y-66639090D01*
X137787487Y-66639090D01*
X137795031Y-66637308D01*
X137795377Y-66638775D01*
X137856342Y-66634408D01*
X137871378Y-66638822D01*
X137872513Y-66639089D01*
X137872517Y-66639091D01*
X137932127Y-66645500D01*
X138727872Y-66645499D01*
X138787483Y-66639091D01*
X138787485Y-66639090D01*
X138787487Y-66639090D01*
X138795031Y-66637308D01*
X138795377Y-66638775D01*
X138856342Y-66634408D01*
X138871378Y-66638822D01*
X138872511Y-66639089D01*
X138872517Y-66639091D01*
X138932127Y-66645500D01*
X139555500Y-66645499D01*
X139622539Y-66665183D01*
X139668294Y-66717987D01*
X139679500Y-66769499D01*
X139679500Y-67260161D01*
X139679500Y-67260163D01*
X139679499Y-67260163D01*
X139704497Y-67385830D01*
X139704499Y-67385836D01*
X139753535Y-67504219D01*
X139824723Y-67610761D01*
X139982057Y-67768095D01*
X140011416Y-67814820D01*
X140049543Y-67923780D01*
X140049548Y-67923791D01*
X140139518Y-68066976D01*
X140139523Y-68066982D01*
X140259109Y-68186568D01*
X140259115Y-68186573D01*
X140402302Y-68276544D01*
X140402308Y-68276547D01*
X140402310Y-68276548D01*
X140552539Y-68329115D01*
X140561944Y-68332406D01*
X140568730Y-68333955D01*
X140568155Y-68336472D01*
X140621620Y-68358940D01*
X140661174Y-68416535D01*
X140663311Y-68486372D01*
X140648315Y-68521063D01*
X140616118Y-68572304D01*
X140616117Y-68572305D01*
X140560257Y-68731943D01*
X140541323Y-68899997D01*
X140541323Y-68900002D01*
X140560257Y-69068056D01*
X140616117Y-69227694D01*
X140616119Y-69227697D01*
X140706090Y-69370884D01*
X140706095Y-69370890D01*
X140825681Y-69490476D01*
X140825687Y-69490481D01*
X140968874Y-69580452D01*
X140968877Y-69580454D01*
X140968881Y-69580455D01*
X140968882Y-69580456D01*
X141009655Y-69594723D01*
X141128515Y-69636314D01*
X141296569Y-69655249D01*
X141296572Y-69655249D01*
X141296575Y-69655249D01*
X141464628Y-69636314D01*
X141507364Y-69621360D01*
X141624262Y-69580456D01*
X141624264Y-69580454D01*
X141624266Y-69580454D01*
X141624269Y-69580452D01*
X141767456Y-69490481D01*
X141767456Y-69490480D01*
X141767462Y-69490477D01*
X141779453Y-69478485D01*
X141840771Y-69445002D01*
X141910463Y-69449984D01*
X141966398Y-69491854D01*
X141990817Y-69557317D01*
X141990353Y-69580050D01*
X141976497Y-69703031D01*
X141974751Y-69718528D01*
X141975048Y-69721171D01*
X141976084Y-69730362D01*
X141964027Y-69799184D01*
X141916676Y-69850562D01*
X141866747Y-69867462D01*
X141761942Y-69879271D01*
X141602315Y-69935126D01*
X141597978Y-69937216D01*
X141544167Y-69949500D01*
X133169337Y-69949500D01*
X133102298Y-69929815D01*
X133081656Y-69913181D01*
X132830657Y-69662181D01*
X132797172Y-69600858D01*
X132802156Y-69531166D01*
X132844028Y-69475233D01*
X132909492Y-69450816D01*
X132918338Y-69450500D01*
X133688912Y-69450500D01*
X133754883Y-69469506D01*
X133772310Y-69480456D01*
X133931941Y-69536313D01*
X133973955Y-69541047D01*
X134099997Y-69555249D01*
X134100000Y-69555249D01*
X134100003Y-69555249D01*
X134268056Y-69536314D01*
X134282768Y-69531166D01*
X134427690Y-69480456D01*
X134427692Y-69480454D01*
X134427694Y-69480454D01*
X134427697Y-69480452D01*
X134570884Y-69390481D01*
X134570885Y-69390480D01*
X134570890Y-69390477D01*
X134690477Y-69270890D01*
X134690481Y-69270884D01*
X134780452Y-69127697D01*
X134780454Y-69127694D01*
X134780454Y-69127692D01*
X134780456Y-69127690D01*
X134836313Y-68968059D01*
X134836313Y-68968058D01*
X134836314Y-68968056D01*
X134855249Y-68800002D01*
X134855249Y-68799997D01*
X134836314Y-68631943D01*
X134780454Y-68472305D01*
X134780452Y-68472302D01*
X134690481Y-68329115D01*
X134690476Y-68329109D01*
X134570890Y-68209523D01*
X134570884Y-68209518D01*
X134427697Y-68119547D01*
X134427694Y-68119545D01*
X134268056Y-68063685D01*
X134100003Y-68044751D01*
X134099997Y-68044751D01*
X133931942Y-68063686D01*
X133772311Y-68119543D01*
X133754883Y-68130494D01*
X133688912Y-68149500D01*
X131104500Y-68149500D01*
X131037461Y-68129815D01*
X130991706Y-68077011D01*
X130980500Y-68025500D01*
X130980500Y-66769499D01*
X131000185Y-66702460D01*
X131052989Y-66656705D01*
X131104500Y-66645499D01*
X131727871Y-66645499D01*
X131727872Y-66645499D01*
X131787483Y-66639091D01*
X131787485Y-66639090D01*
X131787487Y-66639090D01*
X131795031Y-66637308D01*
X131795377Y-66638775D01*
X131856342Y-66634408D01*
X131871378Y-66638822D01*
X131872513Y-66639089D01*
X131872517Y-66639091D01*
X131932127Y-66645500D01*
X132727872Y-66645499D01*
X132787483Y-66639091D01*
X132787485Y-66639090D01*
X132787487Y-66639090D01*
X132795031Y-66637308D01*
X132795377Y-66638775D01*
X132856342Y-66634408D01*
X132871378Y-66638822D01*
X132872513Y-66639089D01*
X132872517Y-66639091D01*
X132932127Y-66645500D01*
X133727872Y-66645499D01*
X133787483Y-66639091D01*
X133787485Y-66639090D01*
X133787487Y-66639090D01*
X133795031Y-66637308D01*
X133795377Y-66638775D01*
X133856342Y-66634408D01*
X133871378Y-66638822D01*
X133872513Y-66639089D01*
X133872517Y-66639091D01*
X133932127Y-66645500D01*
X134727872Y-66645499D01*
X134787483Y-66639091D01*
X134787485Y-66639090D01*
X134787487Y-66639090D01*
X134795031Y-66637308D01*
X134795377Y-66638775D01*
X134856342Y-66634408D01*
X134871378Y-66638822D01*
X134872513Y-66639089D01*
X134872517Y-66639091D01*
X134932127Y-66645500D01*
X135727872Y-66645499D01*
X135787483Y-66639091D01*
X135922331Y-66588796D01*
X136037546Y-66502546D01*
X136123796Y-66387331D01*
X136174091Y-66252483D01*
X136180500Y-66192873D01*
X136180499Y-61797128D01*
X136174091Y-61737517D01*
X136123796Y-61602669D01*
X136123795Y-61602668D01*
X136123793Y-61602664D01*
X136037547Y-61487455D01*
X136037544Y-61487452D01*
X135922335Y-61401206D01*
X135922328Y-61401202D01*
X135787482Y-61350908D01*
X135787483Y-61350908D01*
X135727883Y-61344501D01*
X135727881Y-61344500D01*
X135727873Y-61344500D01*
X135727864Y-61344500D01*
X134932129Y-61344500D01*
X134932123Y-61344501D01*
X134872520Y-61350908D01*
X134864974Y-61352692D01*
X134864628Y-61351230D01*
X134803622Y-61355584D01*
X134788600Y-61351172D01*
X134787482Y-61350908D01*
X134727883Y-61344501D01*
X134727881Y-61344500D01*
X134727873Y-61344500D01*
X134727864Y-61344500D01*
X133932129Y-61344500D01*
X133932123Y-61344501D01*
X133872520Y-61350908D01*
X133864974Y-61352692D01*
X133864628Y-61351230D01*
X133803622Y-61355584D01*
X133788600Y-61351172D01*
X133787482Y-61350908D01*
X133727883Y-61344501D01*
X133727881Y-61344500D01*
X133727873Y-61344500D01*
X133727864Y-61344500D01*
X132932129Y-61344500D01*
X132932123Y-61344501D01*
X132872520Y-61350908D01*
X132864974Y-61352692D01*
X132864628Y-61351230D01*
X132803622Y-61355584D01*
X132788600Y-61351172D01*
X132787482Y-61350908D01*
X132727883Y-61344501D01*
X132727881Y-61344500D01*
X132727873Y-61344500D01*
X132727864Y-61344500D01*
X131932129Y-61344500D01*
X131932123Y-61344501D01*
X131872520Y-61350908D01*
X131864974Y-61352692D01*
X131864628Y-61351230D01*
X131803622Y-61355584D01*
X131788600Y-61351172D01*
X131787482Y-61350908D01*
X131727883Y-61344501D01*
X131727881Y-61344500D01*
X131727873Y-61344500D01*
X131727864Y-61344500D01*
X130932129Y-61344500D01*
X130932123Y-61344501D01*
X130872520Y-61350908D01*
X130864974Y-61352692D01*
X130864628Y-61351230D01*
X130803622Y-61355584D01*
X130788600Y-61351172D01*
X130787482Y-61350908D01*
X130727883Y-61344501D01*
X130727881Y-61344500D01*
X130727873Y-61344500D01*
X130727864Y-61344500D01*
X129932129Y-61344500D01*
X129932123Y-61344501D01*
X129872516Y-61350908D01*
X129737671Y-61401202D01*
X129737664Y-61401206D01*
X129622455Y-61487452D01*
X129622452Y-61487455D01*
X129536206Y-61602664D01*
X129536202Y-61602671D01*
X129485908Y-61737517D01*
X129479771Y-61794607D01*
X129479501Y-61797123D01*
X129479500Y-61797135D01*
X129479500Y-66192870D01*
X129479501Y-66192876D01*
X129485908Y-66252483D01*
X129536202Y-66387328D01*
X129536203Y-66387329D01*
X129536204Y-66387331D01*
X129622453Y-66502544D01*
X129622454Y-66502546D01*
X129629808Y-66508051D01*
X129671681Y-66563983D01*
X129679500Y-66607320D01*
X129679500Y-68864069D01*
X129679500Y-68864071D01*
X129679499Y-68864071D01*
X129704497Y-68989738D01*
X129704499Y-68989744D01*
X129753533Y-69108124D01*
X129753538Y-69108133D01*
X129824723Y-69214668D01*
X129824726Y-69214672D01*
X129847873Y-69237819D01*
X129881358Y-69299142D01*
X129876374Y-69368834D01*
X129834502Y-69424767D01*
X129769038Y-69449184D01*
X129760192Y-69449500D01*
X126299337Y-69449500D01*
X126232298Y-69429815D01*
X126211656Y-69413181D01*
X126016819Y-69218344D01*
X125983334Y-69157021D01*
X125980500Y-69130663D01*
X125980500Y-66769499D01*
X126000185Y-66702460D01*
X126052989Y-66656705D01*
X126104500Y-66645499D01*
X126727871Y-66645499D01*
X126727872Y-66645499D01*
X126787483Y-66639091D01*
X126787485Y-66639090D01*
X126787487Y-66639090D01*
X126795031Y-66637308D01*
X126795377Y-66638775D01*
X126856342Y-66634408D01*
X126871378Y-66638822D01*
X126872513Y-66639089D01*
X126872517Y-66639091D01*
X126932127Y-66645500D01*
X127727872Y-66645499D01*
X127787483Y-66639091D01*
X127922331Y-66588796D01*
X128037546Y-66502546D01*
X128123796Y-66387331D01*
X128174091Y-66252483D01*
X128180500Y-66192873D01*
X128180499Y-61797128D01*
X128174091Y-61737517D01*
X128123796Y-61602669D01*
X128123795Y-61602668D01*
X128123793Y-61602664D01*
X128037547Y-61487455D01*
X128037544Y-61487452D01*
X127922335Y-61401206D01*
X127922328Y-61401202D01*
X127787482Y-61350908D01*
X127787483Y-61350908D01*
X127727883Y-61344501D01*
X127727881Y-61344500D01*
X127727873Y-61344500D01*
X127727864Y-61344500D01*
X126932129Y-61344500D01*
X126932123Y-61344501D01*
X126872520Y-61350908D01*
X126864974Y-61352692D01*
X126864628Y-61351230D01*
X126803622Y-61355584D01*
X126788600Y-61351172D01*
X126787482Y-61350908D01*
X126727883Y-61344501D01*
X126727881Y-61344500D01*
X126727873Y-61344500D01*
X126727864Y-61344500D01*
X125932129Y-61344500D01*
X125932123Y-61344501D01*
X125872520Y-61350908D01*
X125864974Y-61352692D01*
X125864628Y-61351230D01*
X125803622Y-61355584D01*
X125788600Y-61351172D01*
X125787482Y-61350908D01*
X125727883Y-61344501D01*
X125727881Y-61344500D01*
X125727873Y-61344500D01*
X125727864Y-61344500D01*
X124932129Y-61344500D01*
X124932123Y-61344501D01*
X124872520Y-61350908D01*
X124864974Y-61352692D01*
X124864628Y-61351230D01*
X124803622Y-61355584D01*
X124788600Y-61351172D01*
X124787482Y-61350908D01*
X124727883Y-61344501D01*
X124727881Y-61344500D01*
X124727873Y-61344500D01*
X124727865Y-61344500D01*
X124387676Y-61344500D01*
X124320637Y-61324815D01*
X124274882Y-61272011D01*
X124264938Y-61202853D01*
X124293963Y-61139297D01*
X124299995Y-61132819D01*
X124350995Y-61081819D01*
X124412318Y-61048334D01*
X124438676Y-61045500D01*
X144121324Y-61045500D01*
X144188363Y-61065185D01*
G37*
%TD.AperFunction*%
%TD*%
M02*
