%TF.GenerationSoftware,KiCad,Pcbnew,8.0.6*%
%TF.CreationDate,2024-10-28T16:17:03-03:00*%
%TF.ProjectId,CW312T_STM32F,43573331-3254-45f5-9354-4d3332462e6b,rev?*%
%TF.SameCoordinates,Original*%
%TF.FileFunction,Paste,Top*%
%TF.FilePolarity,Positive*%
%FSLAX46Y46*%
G04 Gerber Fmt 4.6, Leading zero omitted, Abs format (unit mm)*
G04 Created by KiCad (PCBNEW 8.0.6) date 2024-10-28 16:17:03*
%MOMM*%
%LPD*%
G01*
G04 APERTURE LIST*
G04 Aperture macros list*
%AMRoundRect*
0 Rectangle with rounded corners*
0 $1 Rounding radius*
0 $2 $3 $4 $5 $6 $7 $8 $9 X,Y pos of 4 corners*
0 Add a 4 corners polygon primitive as box body*
4,1,4,$2,$3,$4,$5,$6,$7,$8,$9,$2,$3,0*
0 Add four circle primitives for the rounded corners*
1,1,$1+$1,$2,$3*
1,1,$1+$1,$4,$5*
1,1,$1+$1,$6,$7*
1,1,$1+$1,$8,$9*
0 Add four rect primitives between the rounded corners*
20,1,$1+$1,$2,$3,$4,$5,0*
20,1,$1+$1,$4,$5,$6,$7,0*
20,1,$1+$1,$6,$7,$8,$9,0*
20,1,$1+$1,$8,$9,$2,$3,0*%
G04 Aperture macros list end*
%ADD10RoundRect,0.200000X-0.275000X0.200000X-0.275000X-0.200000X0.275000X-0.200000X0.275000X0.200000X0*%
%ADD11RoundRect,0.225000X-0.225000X-0.250000X0.225000X-0.250000X0.225000X0.250000X-0.225000X0.250000X0*%
%ADD12RoundRect,0.200000X0.200000X0.275000X-0.200000X0.275000X-0.200000X-0.275000X0.200000X-0.275000X0*%
%ADD13RoundRect,0.075000X0.662500X0.075000X-0.662500X0.075000X-0.662500X-0.075000X0.662500X-0.075000X0*%
%ADD14RoundRect,0.075000X0.075000X0.662500X-0.075000X0.662500X-0.075000X-0.662500X0.075000X-0.662500X0*%
%ADD15RoundRect,0.225000X-0.250000X0.225000X-0.250000X-0.225000X0.250000X-0.225000X0.250000X0.225000X0*%
%ADD16RoundRect,0.200000X-0.200000X-0.275000X0.200000X-0.275000X0.200000X0.275000X-0.200000X0.275000X0*%
G04 APERTURE END LIST*
D10*
%TO.C,R2*%
X138250000Y-98850000D03*
X138250000Y-100500000D03*
%TD*%
D11*
%TO.C,C5*%
X159250000Y-83900000D03*
X160800000Y-83900000D03*
%TD*%
D12*
%TO.C,R4*%
X157300000Y-72500000D03*
X155650000Y-72500000D03*
%TD*%
D13*
%TO.C,U1*%
X142162500Y-92162500D03*
X142162500Y-91662500D03*
X142162500Y-91162500D03*
X142162500Y-90662500D03*
X142162500Y-90162500D03*
X142162500Y-89662500D03*
X142162500Y-89162500D03*
X142162500Y-88662500D03*
X142162500Y-88162500D03*
X142162500Y-87662500D03*
X142162500Y-87162500D03*
X142162500Y-86662500D03*
X142162500Y-86162500D03*
X142162500Y-85662500D03*
X142162500Y-85162500D03*
X142162500Y-84662500D03*
D14*
X140250000Y-82750000D03*
X139750000Y-82750000D03*
X139250000Y-82750000D03*
X138750000Y-82750000D03*
X138250000Y-82750000D03*
X137750000Y-82750000D03*
X137250000Y-82750000D03*
X136750000Y-82750000D03*
X136250000Y-82750000D03*
X135750000Y-82750000D03*
X135250000Y-82750000D03*
X134750000Y-82750000D03*
X134250000Y-82750000D03*
X133750000Y-82750000D03*
X133250000Y-82750000D03*
X132750000Y-82750000D03*
D13*
X130837500Y-84662500D03*
X130837500Y-85162500D03*
X130837500Y-85662500D03*
X130837500Y-86162500D03*
X130837500Y-86662500D03*
X130837500Y-87162500D03*
X130837500Y-87662500D03*
X130837500Y-88162500D03*
X130837500Y-88662500D03*
X130837500Y-89162500D03*
X130837500Y-89662500D03*
X130837500Y-90162500D03*
X130837500Y-90662500D03*
X130837500Y-91162500D03*
X130837500Y-91662500D03*
X130837500Y-92162500D03*
D14*
X132750000Y-94075000D03*
X133250000Y-94075000D03*
X133750000Y-94075000D03*
X134250000Y-94075000D03*
X134750000Y-94075000D03*
X135250000Y-94075000D03*
X135750000Y-94075000D03*
X136250000Y-94075000D03*
X136750000Y-94075000D03*
X137250000Y-94075000D03*
X137750000Y-94075000D03*
X138250000Y-94075000D03*
X138750000Y-94075000D03*
X139250000Y-94075000D03*
X139750000Y-94075000D03*
X140250000Y-94075000D03*
%TD*%
D15*
%TO.C,C3*%
X164400000Y-76450000D03*
X164400000Y-78000000D03*
%TD*%
%TO.C,C2*%
X159100000Y-88275000D03*
X159100000Y-89825000D03*
%TD*%
D10*
%TO.C,R3*%
X150750000Y-101100000D03*
X150750000Y-102750000D03*
%TD*%
D15*
%TO.C,C4*%
X161650000Y-76450000D03*
X161650000Y-78000000D03*
%TD*%
%TO.C,C1*%
X164400000Y-88200000D03*
X164400000Y-89750000D03*
%TD*%
D12*
%TO.C,R5*%
X155600000Y-90100000D03*
X153950000Y-90100000D03*
%TD*%
D15*
%TO.C,C8*%
X125700000Y-101350000D03*
X125700000Y-102900000D03*
%TD*%
D16*
%TO.C,R1*%
X136850000Y-79100000D03*
X138500000Y-79100000D03*
%TD*%
D15*
%TO.C,C7*%
X128600000Y-101325000D03*
X128600000Y-102875000D03*
%TD*%
%TO.C,C6*%
X131500000Y-101375000D03*
X131500000Y-102925000D03*
%TD*%
%TO.C,C9*%
X122850000Y-101375000D03*
X122850000Y-102925000D03*
%TD*%
M02*
