%TF.GenerationSoftware,KiCad,Pcbnew,8.0.6*%
%TF.CreationDate,2024-10-28T16:17:03-03:00*%
%TF.ProjectId,CW312T_STM32F,43573331-3254-45f5-9354-4d3332462e6b,rev?*%
%TF.SameCoordinates,Original*%
%TF.FileFunction,Soldermask,Bot*%
%TF.FilePolarity,Negative*%
%FSLAX46Y46*%
G04 Gerber Fmt 4.6, Leading zero omitted, Abs format (unit mm)*
G04 Created by KiCad (PCBNEW 8.0.6) date 2024-10-28 16:17:03*
%MOMM*%
%LPD*%
G01*
G04 APERTURE LIST*
%ADD10R,0.700000X3.200000*%
%ADD11R,0.700000X4.300000*%
%ADD12C,1.000000*%
%ADD13C,6.200000*%
%ADD14R,0.850000X0.850000*%
%ADD15O,0.850000X0.850000*%
G04 APERTURE END LIST*
D10*
%TO.C,P1*%
X157330000Y-64545000D03*
D11*
X156330000Y-63995000D03*
X155330000Y-63995000D03*
X154330000Y-63995000D03*
X153330000Y-63995000D03*
X152330000Y-63995000D03*
X151330000Y-63995000D03*
X150330000Y-63995000D03*
X149330000Y-63995000D03*
X148330000Y-63995000D03*
X147330000Y-63995000D03*
X144330000Y-63995000D03*
X143330000Y-63995000D03*
X142330000Y-63995000D03*
X141330000Y-63995000D03*
X140330000Y-63995000D03*
X139330000Y-63995000D03*
X138330000Y-63995000D03*
X137330000Y-63995000D03*
X136330000Y-63995000D03*
X135330000Y-63995000D03*
X134330000Y-63995000D03*
X133330000Y-63995000D03*
X132330000Y-63995000D03*
X131330000Y-63995000D03*
X130330000Y-63995000D03*
X129330000Y-63995000D03*
X128330000Y-63995000D03*
X127330000Y-63995000D03*
X126330000Y-63995000D03*
X125330000Y-63995000D03*
X124330000Y-63995000D03*
D12*
X113480000Y-61045000D03*
X114170000Y-59385000D03*
X114170000Y-62705000D03*
X115830000Y-58695000D03*
D13*
X115830000Y-61045000D03*
D12*
X115830000Y-63395000D03*
X117490000Y-59385000D03*
X117490000Y-62705000D03*
X118180000Y-61045000D03*
X163480000Y-61045000D03*
X164170000Y-59385000D03*
X164170000Y-62705000D03*
X165830000Y-58705000D03*
D13*
X165830000Y-61045000D03*
D12*
X165830000Y-63405000D03*
X167490000Y-59385000D03*
X167490000Y-62705000D03*
X168180000Y-61045000D03*
%TD*%
D14*
%TO.C,J1*%
X140750000Y-101750000D03*
D15*
X141750000Y-101750000D03*
X140750000Y-102750000D03*
X141750000Y-102750000D03*
X140750000Y-103750000D03*
X141750000Y-103750000D03*
%TD*%
M02*
