%TF.GenerationSoftware,KiCad,Pcbnew,8.0.6*%
%TF.CreationDate,2024-10-28T16:17:03-03:00*%
%TF.ProjectId,CW312T_STM32F,43573331-3254-45f5-9354-4d3332462e6b,rev?*%
%TF.SameCoordinates,Original*%
%TF.FileFunction,Soldermask,Top*%
%TF.FilePolarity,Negative*%
%FSLAX46Y46*%
G04 Gerber Fmt 4.6, Leading zero omitted, Abs format (unit mm)*
G04 Created by KiCad (PCBNEW 8.0.6) date 2024-10-28 16:17:03*
%MOMM*%
%LPD*%
G01*
G04 APERTURE LIST*
G04 Aperture macros list*
%AMRoundRect*
0 Rectangle with rounded corners*
0 $1 Rounding radius*
0 $2 $3 $4 $5 $6 $7 $8 $9 X,Y pos of 4 corners*
0 Add a 4 corners polygon primitive as box body*
4,1,4,$2,$3,$4,$5,$6,$7,$8,$9,$2,$3,0*
0 Add four circle primitives for the rounded corners*
1,1,$1+$1,$2,$3*
1,1,$1+$1,$4,$5*
1,1,$1+$1,$6,$7*
1,1,$1+$1,$8,$9*
0 Add four rect primitives between the rounded corners*
20,1,$1+$1,$2,$3,$4,$5,0*
20,1,$1+$1,$4,$5,$6,$7,0*
20,1,$1+$1,$6,$7,$8,$9,0*
20,1,$1+$1,$8,$9,$2,$3,0*%
G04 Aperture macros list end*
%ADD10RoundRect,0.200000X-0.275000X0.200000X-0.275000X-0.200000X0.275000X-0.200000X0.275000X0.200000X0*%
%ADD11RoundRect,0.225000X-0.225000X-0.250000X0.225000X-0.250000X0.225000X0.250000X-0.225000X0.250000X0*%
%ADD12R,0.700000X4.300000*%
%ADD13R,0.700000X3.200000*%
%ADD14C,1.000000*%
%ADD15C,6.200000*%
%ADD16RoundRect,0.200000X0.200000X0.275000X-0.200000X0.275000X-0.200000X-0.275000X0.200000X-0.275000X0*%
%ADD17R,1.500000X1.000000*%
%ADD18RoundRect,0.075000X0.662500X0.075000X-0.662500X0.075000X-0.662500X-0.075000X0.662500X-0.075000X0*%
%ADD19RoundRect,0.075000X0.075000X0.662500X-0.075000X0.662500X-0.075000X-0.662500X0.075000X-0.662500X0*%
%ADD20R,1.000000X1.500000*%
%ADD21RoundRect,0.225000X-0.250000X0.225000X-0.250000X-0.225000X0.250000X-0.225000X0.250000X0.225000X0*%
%ADD22RoundRect,0.200000X-0.200000X-0.275000X0.200000X-0.275000X0.200000X0.275000X-0.200000X0.275000X0*%
%ADD23R,0.850000X0.850000*%
%ADD24O,0.850000X0.850000*%
G04 APERTURE END LIST*
D10*
%TO.C,R2*%
X138250000Y-98850000D03*
X138250000Y-100500000D03*
%TD*%
D11*
%TO.C,C5*%
X159250000Y-83900000D03*
X160800000Y-83900000D03*
%TD*%
D12*
%TO.C,P1*%
X157330000Y-63995000D03*
X156330000Y-63995000D03*
X155330000Y-63995000D03*
X154330000Y-63995000D03*
X153330000Y-63995000D03*
X152330000Y-63995000D03*
X151330000Y-63995000D03*
X150330000Y-63995000D03*
X149330000Y-63995000D03*
X148330000Y-63995000D03*
X147330000Y-63995000D03*
X144330000Y-63995000D03*
X143330000Y-63995000D03*
X142330000Y-63995000D03*
X141330000Y-63995000D03*
X140330000Y-63995000D03*
X139330000Y-63995000D03*
X138330000Y-63995000D03*
X137330000Y-63995000D03*
X136330000Y-63995000D03*
X135330000Y-63995000D03*
X134330000Y-63995000D03*
X133330000Y-63995000D03*
X132330000Y-63995000D03*
X131330000Y-63995000D03*
X130330000Y-63995000D03*
X129330000Y-63995000D03*
X128330000Y-63995000D03*
X127330000Y-63995000D03*
X126330000Y-63995000D03*
D13*
X125330000Y-64545000D03*
D12*
X124330000Y-63995000D03*
D14*
X113480000Y-61045000D03*
X114170000Y-59385000D03*
X114170000Y-62705000D03*
X115830000Y-58695000D03*
D15*
X115830000Y-61045000D03*
D14*
X115830000Y-63395000D03*
X117490000Y-59385000D03*
X117490000Y-62705000D03*
X118180000Y-61045000D03*
X163480000Y-61045000D03*
X164170000Y-59385000D03*
X164170000Y-62705000D03*
X165830000Y-58705000D03*
D15*
X165830000Y-61045000D03*
D14*
X165830000Y-63405000D03*
X167490000Y-59385000D03*
X167490000Y-62705000D03*
X168180000Y-61045000D03*
%TD*%
D16*
%TO.C,R4*%
X157300000Y-72500000D03*
X155650000Y-72500000D03*
%TD*%
D17*
%TO.C,JP1*%
X117800000Y-101400000D03*
X117800000Y-102700000D03*
%TD*%
D18*
%TO.C,U1*%
X142162500Y-92162500D03*
X142162500Y-91662500D03*
X142162500Y-91162500D03*
X142162500Y-90662500D03*
X142162500Y-90162500D03*
X142162500Y-89662500D03*
X142162500Y-89162500D03*
X142162500Y-88662500D03*
X142162500Y-88162500D03*
X142162500Y-87662500D03*
X142162500Y-87162500D03*
X142162500Y-86662500D03*
X142162500Y-86162500D03*
X142162500Y-85662500D03*
X142162500Y-85162500D03*
X142162500Y-84662500D03*
D19*
X140250000Y-82750000D03*
X139750000Y-82750000D03*
X139250000Y-82750000D03*
X138750000Y-82750000D03*
X138250000Y-82750000D03*
X137750000Y-82750000D03*
X137250000Y-82750000D03*
X136750000Y-82750000D03*
X136250000Y-82750000D03*
X135750000Y-82750000D03*
X135250000Y-82750000D03*
X134750000Y-82750000D03*
X134250000Y-82750000D03*
X133750000Y-82750000D03*
X133250000Y-82750000D03*
X132750000Y-82750000D03*
D18*
X130837500Y-84662500D03*
X130837500Y-85162500D03*
X130837500Y-85662500D03*
X130837500Y-86162500D03*
X130837500Y-86662500D03*
X130837500Y-87162500D03*
X130837500Y-87662500D03*
X130837500Y-88162500D03*
X130837500Y-88662500D03*
X130837500Y-89162500D03*
X130837500Y-89662500D03*
X130837500Y-90162500D03*
X130837500Y-90662500D03*
X130837500Y-91162500D03*
X130837500Y-91662500D03*
X130837500Y-92162500D03*
D19*
X132750000Y-94075000D03*
X133250000Y-94075000D03*
X133750000Y-94075000D03*
X134250000Y-94075000D03*
X134750000Y-94075000D03*
X135250000Y-94075000D03*
X135750000Y-94075000D03*
X136250000Y-94075000D03*
X136750000Y-94075000D03*
X137250000Y-94075000D03*
X137750000Y-94075000D03*
X138250000Y-94075000D03*
X138750000Y-94075000D03*
X139250000Y-94075000D03*
X139750000Y-94075000D03*
X140250000Y-94075000D03*
%TD*%
D20*
%TO.C,JP3*%
X115800000Y-69100000D03*
X114500000Y-69100000D03*
%TD*%
D21*
%TO.C,C3*%
X164400000Y-76450000D03*
X164400000Y-78000000D03*
%TD*%
%TO.C,C2*%
X159100000Y-88275000D03*
X159100000Y-89825000D03*
%TD*%
D10*
%TO.C,R3*%
X150750000Y-101100000D03*
X150750000Y-102750000D03*
%TD*%
D21*
%TO.C,C4*%
X161650000Y-76450000D03*
X161650000Y-78000000D03*
%TD*%
%TO.C,C1*%
X164400000Y-88200000D03*
X164400000Y-89750000D03*
%TD*%
D16*
%TO.C,R5*%
X155600000Y-90100000D03*
X153950000Y-90100000D03*
%TD*%
D17*
%TO.C,JP2*%
X114350000Y-75900000D03*
X114350000Y-77200000D03*
X114350000Y-78500000D03*
%TD*%
D21*
%TO.C,C8*%
X125700000Y-101350000D03*
X125700000Y-102900000D03*
%TD*%
D22*
%TO.C,R1*%
X136850000Y-79100000D03*
X138500000Y-79100000D03*
%TD*%
D23*
%TO.C,J1*%
X140750000Y-101750000D03*
D24*
X141750000Y-101750000D03*
X140750000Y-102750000D03*
X141750000Y-102750000D03*
X140750000Y-103750000D03*
X141750000Y-103750000D03*
%TD*%
D21*
%TO.C,C7*%
X128600000Y-101325000D03*
X128600000Y-102875000D03*
%TD*%
%TO.C,C6*%
X131500000Y-101375000D03*
X131500000Y-102925000D03*
%TD*%
%TO.C,C9*%
X122850000Y-101375000D03*
X122850000Y-102925000D03*
%TD*%
D20*
%TO.C,JP4*%
X151800000Y-79300000D03*
X153100000Y-79300000D03*
X154400000Y-79300000D03*
%TD*%
M02*
