%TF.GenerationSoftware,KiCad,Pcbnew,8.0.6*%
%TF.CreationDate,2024-10-28T16:17:03-03:00*%
%TF.ProjectId,CW312T_STM32F,43573331-3254-45f5-9354-4d3332462e6b,rev?*%
%TF.SameCoordinates,Original*%
%TF.FileFunction,Copper,L1,Top*%
%TF.FilePolarity,Positive*%
%FSLAX46Y46*%
G04 Gerber Fmt 4.6, Leading zero omitted, Abs format (unit mm)*
G04 Created by KiCad (PCBNEW 8.0.6) date 2024-10-28 16:17:03*
%MOMM*%
%LPD*%
G01*
G04 APERTURE LIST*
G04 Aperture macros list*
%AMRoundRect*
0 Rectangle with rounded corners*
0 $1 Rounding radius*
0 $2 $3 $4 $5 $6 $7 $8 $9 X,Y pos of 4 corners*
0 Add a 4 corners polygon primitive as box body*
4,1,4,$2,$3,$4,$5,$6,$7,$8,$9,$2,$3,0*
0 Add four circle primitives for the rounded corners*
1,1,$1+$1,$2,$3*
1,1,$1+$1,$4,$5*
1,1,$1+$1,$6,$7*
1,1,$1+$1,$8,$9*
0 Add four rect primitives between the rounded corners*
20,1,$1+$1,$2,$3,$4,$5,0*
20,1,$1+$1,$4,$5,$6,$7,0*
20,1,$1+$1,$6,$7,$8,$9,0*
20,1,$1+$1,$8,$9,$2,$3,0*%
G04 Aperture macros list end*
%TA.AperFunction,EtchedComponent*%
%ADD10C,0.000000*%
%TD*%
%TA.AperFunction,SMDPad,CuDef*%
%ADD11RoundRect,0.200000X-0.275000X0.200000X-0.275000X-0.200000X0.275000X-0.200000X0.275000X0.200000X0*%
%TD*%
%TA.AperFunction,SMDPad,CuDef*%
%ADD12RoundRect,0.225000X-0.225000X-0.250000X0.225000X-0.250000X0.225000X0.250000X-0.225000X0.250000X0*%
%TD*%
%TA.AperFunction,ConnectorPad*%
%ADD13R,0.700000X4.300000*%
%TD*%
%TA.AperFunction,ConnectorPad*%
%ADD14R,0.700000X3.200000*%
%TD*%
%TA.AperFunction,ComponentPad*%
%ADD15C,1.000000*%
%TD*%
%TA.AperFunction,ComponentPad*%
%ADD16C,6.200000*%
%TD*%
%TA.AperFunction,SMDPad,CuDef*%
%ADD17RoundRect,0.200000X0.200000X0.275000X-0.200000X0.275000X-0.200000X-0.275000X0.200000X-0.275000X0*%
%TD*%
%TA.AperFunction,SMDPad,CuDef*%
%ADD18R,1.500000X1.000000*%
%TD*%
%TA.AperFunction,SMDPad,CuDef*%
%ADD19RoundRect,0.075000X0.662500X0.075000X-0.662500X0.075000X-0.662500X-0.075000X0.662500X-0.075000X0*%
%TD*%
%TA.AperFunction,SMDPad,CuDef*%
%ADD20RoundRect,0.075000X0.075000X0.662500X-0.075000X0.662500X-0.075000X-0.662500X0.075000X-0.662500X0*%
%TD*%
%TA.AperFunction,SMDPad,CuDef*%
%ADD21R,1.000000X1.500000*%
%TD*%
%TA.AperFunction,SMDPad,CuDef*%
%ADD22RoundRect,0.225000X-0.250000X0.225000X-0.250000X-0.225000X0.250000X-0.225000X0.250000X0.225000X0*%
%TD*%
%TA.AperFunction,SMDPad,CuDef*%
%ADD23RoundRect,0.200000X-0.200000X-0.275000X0.200000X-0.275000X0.200000X0.275000X-0.200000X0.275000X0*%
%TD*%
%TA.AperFunction,ComponentPad*%
%ADD24R,0.850000X0.850000*%
%TD*%
%TA.AperFunction,ComponentPad*%
%ADD25O,0.850000X0.850000*%
%TD*%
%TA.AperFunction,ViaPad*%
%ADD26C,0.600000*%
%TD*%
%TA.AperFunction,ViaPad*%
%ADD27C,0.500000*%
%TD*%
%TA.AperFunction,Conductor*%
%ADD28C,0.300000*%
%TD*%
%TA.AperFunction,Conductor*%
%ADD29C,0.200000*%
%TD*%
%TA.AperFunction,Conductor*%
%ADD30C,0.400000*%
%TD*%
G04 APERTURE END LIST*
D10*
%TA.AperFunction,EtchedComponent*%
%TO.C,JP2*%
G36*
X114150000Y-76800000D02*
G01*
X113750000Y-76800000D01*
X113750000Y-76300000D01*
X114150000Y-76300000D01*
X114150000Y-76800000D01*
G37*
%TD.AperFunction*%
%TA.AperFunction,EtchedComponent*%
G36*
X114950000Y-76800000D02*
G01*
X114550000Y-76800000D01*
X114550000Y-76300000D01*
X114950000Y-76300000D01*
X114950000Y-76800000D01*
G37*
%TD.AperFunction*%
%TA.AperFunction,EtchedComponent*%
%TO.C,JP4*%
G36*
X152700000Y-79100000D02*
G01*
X152200000Y-79100000D01*
X152200000Y-78700000D01*
X152700000Y-78700000D01*
X152700000Y-79100000D01*
G37*
%TD.AperFunction*%
%TA.AperFunction,EtchedComponent*%
G36*
X152700000Y-79900000D02*
G01*
X152200000Y-79900000D01*
X152200000Y-79500000D01*
X152700000Y-79500000D01*
X152700000Y-79900000D01*
G37*
%TD.AperFunction*%
%TD*%
D11*
%TO.P,R2,1*%
%TO.N,/BOOT0*%
X138250000Y-98850000D03*
%TO.P,R2,2*%
%TO.N,GND*%
X138250000Y-100500000D03*
%TD*%
D12*
%TO.P,C5,1*%
%TO.N,VCC*%
X159250000Y-83900000D03*
%TO.P,C5,2*%
%TO.N,GND*%
X160800000Y-83900000D03*
%TD*%
D13*
%TO.P,P1,B1,SHUNTL*%
%TO.N,Net-(P1-SHUNTL)*%
X157330000Y-63995000D03*
%TO.P,P1,B2,SHUNTH*%
%TO.N,/FILT_HP*%
X156330000Y-63995000D03*
%TO.P,P1,B3,GND*%
%TO.N,GND*%
X155330000Y-63995000D03*
%TO.P,P1,B4,FILT_HP*%
%TO.N,/FILT_HP*%
X154330000Y-63995000D03*
%TO.P,P1,B5,FILTIN*%
%TO.N,Net-(P1-FILTIN)*%
X153330000Y-63995000D03*
%TO.P,P1,B6,VCC1.0*%
%TO.N,unconnected-(P1-VCC1.0-PadB6)*%
X152330000Y-63995000D03*
%TO.P,P1,B7,VCC1.2*%
%TO.N,Net-(P1-VCC1.2)*%
X151330000Y-63995000D03*
%TO.P,P1,B8,VCC1.8*%
%TO.N,unconnected-(P1-VCC1.8-PadB8)*%
X150330000Y-63995000D03*
%TO.P,P1,B9,GND*%
%TO.N,GND*%
X149330000Y-63995000D03*
%TO.P,P1,B10,IOVREF*%
%TO.N,unconnected-(P1-IOVREF-PadB10)*%
X148330000Y-63995000D03*
%TO.P,P1,B11,LED1*%
%TO.N,/LED1*%
X147330000Y-63995000D03*
%TO.P,P1,B12,LED2*%
%TO.N,/LED2*%
X144330000Y-63995000D03*
%TO.P,P1,B13,LED3*%
%TO.N,/LED3*%
X143330000Y-63995000D03*
%TO.P,P1,B14,nRST*%
%TO.N,/nRST*%
X142330000Y-63995000D03*
%TO.P,P1,B15,GND*%
%TO.N,GND*%
X141330000Y-63995000D03*
%TO.P,P1,B16,GPIO1/TX*%
%TO.N,/TX*%
X140330000Y-63995000D03*
%TO.P,P1,B17,GPIO2/RX*%
%TO.N,/RX*%
X139330000Y-63995000D03*
%TO.P,P1,B18,GPIO3*%
%TO.N,/GPIO3*%
X138330000Y-63995000D03*
%TO.P,P1,B19,GPIO4*%
%TO.N,/GPIO4*%
X137330000Y-63995000D03*
%TO.P,P1,B20,SCK*%
%TO.N,/SCK*%
X136330000Y-63995000D03*
%TO.P,P1,B21,GND*%
%TO.N,GND*%
X135330000Y-63995000D03*
%TO.P,P1,B22,GND*%
X134330000Y-63995000D03*
%TO.P,P1,B23,MISO*%
%TO.N,/MISO*%
X133330000Y-63995000D03*
%TO.P,P1,B24,MOSI*%
%TO.N,/MOSI*%
X132330000Y-63995000D03*
%TO.P,P1,B25,CW_PDIC*%
%TO.N,/BOOT0*%
X131330000Y-63995000D03*
%TO.P,P1,B26,CW_PDID*%
%TO.N,/CS*%
X130330000Y-63995000D03*
%TO.P,P1,B27,CLKOUT*%
%TO.N,Net-(P1-CLKOUT)*%
X129330000Y-63995000D03*
%TO.P,P1,B28,CLKOUT_n*%
%TO.N,unconnected-(P1-CLKOUT_n-PadB28)*%
X128330000Y-63995000D03*
%TO.P,P1,B29,JTAG_TDI*%
%TO.N,/TDI*%
X127330000Y-63995000D03*
%TO.P,P1,B30,JTAG_TDO*%
%TO.N,/TDO*%
X126330000Y-63995000D03*
D14*
%TO.P,P1,B31,JTAG_TMS*%
%TO.N,/TMS*%
X125330000Y-64545000D03*
D13*
%TO.P,P1,B32,JTAG_TCK*%
%TO.N,/TCK*%
X124330000Y-63995000D03*
D15*
%TO.P,P1,MH*%
%TO.N,N/C*%
X113480000Y-61045000D03*
X114170000Y-59385000D03*
X114170000Y-62705000D03*
X115830000Y-58695000D03*
D16*
X115830000Y-61045000D03*
D15*
X115830000Y-63395000D03*
X117490000Y-59385000D03*
X117490000Y-62705000D03*
X118180000Y-61045000D03*
X163480000Y-61045000D03*
X164170000Y-59385000D03*
X164170000Y-62705000D03*
X165830000Y-58705000D03*
D16*
X165830000Y-61045000D03*
D15*
X165830000Y-63405000D03*
X167490000Y-59385000D03*
X167490000Y-62705000D03*
X168180000Y-61045000D03*
%TD*%
D17*
%TO.P,R4,1*%
%TO.N,Net-(P1-SHUNTL)*%
X157300000Y-72500000D03*
%TO.P,R4,2*%
%TO.N,/FILT_HP*%
X155650000Y-72500000D03*
%TD*%
D18*
%TO.P,JP1,1*%
%TO.N,Net-(U1B-VDD_1)*%
X117800000Y-101400000D03*
%TO.P,JP1,2*%
%TO.N,VCC*%
X117800000Y-102700000D03*
%TD*%
D19*
%TO.P,U1,1,VBAT*%
%TO.N,unconnected-(U1B-VBAT-Pad1)*%
X142162500Y-92162500D03*
%TO.P,U1,2,PC13-TAMPER-RTC(PC13)*%
%TO.N,/LED3*%
X142162500Y-91662500D03*
%TO.P,U1,3,PC14-OSC32_IN(PC14)*%
%TO.N,/LED2*%
X142162500Y-91162500D03*
%TO.P,U1,4,PC15-OSC32_OUT(PC15)*%
%TO.N,/LED1*%
X142162500Y-90662500D03*
%TO.P,U1,5,OSC_IN*%
%TO.N,/CLKI*%
X142162500Y-90162500D03*
%TO.P,U1,6,OSC_OUT*%
%TO.N,unconnected-(U1A-OSC_OUT-Pad6)*%
X142162500Y-89662500D03*
%TO.P,U1,7,NRST*%
%TO.N,/nRST*%
X142162500Y-89162500D03*
%TO.P,U1,8,PC0*%
%TO.N,/PC0*%
X142162500Y-88662500D03*
%TO.P,U1,9,PC1*%
%TO.N,/PC1*%
X142162500Y-88162500D03*
%TO.P,U1,10,PC2*%
%TO.N,/PC2*%
X142162500Y-87662500D03*
%TO.P,U1,11,PC3*%
%TO.N,/PC3*%
X142162500Y-87162500D03*
%TO.P,U1,12,VSSA*%
%TO.N,GND*%
X142162500Y-86662500D03*
%TO.P,U1,13,VDDA*%
%TO.N,VCC*%
X142162500Y-86162500D03*
%TO.P,U1,14,PA0-WKUP(PA0)*%
%TO.N,unconnected-(U1A-PA0-WKUP(PA0)-Pad14)*%
X142162500Y-85662500D03*
%TO.P,U1,15,PA1*%
%TO.N,unconnected-(U1A-PA1-Pad15)*%
X142162500Y-85162500D03*
%TO.P,U1,16,PA2*%
%TO.N,unconnected-(U1A-PA2-Pad16)*%
X142162500Y-84662500D03*
D20*
%TO.P,U1,17,PA3*%
%TO.N,unconnected-(U1A-PA3-Pad17)*%
X140250000Y-82750000D03*
%TO.P,U1,18,VSS_4*%
%TO.N,GND*%
X139750000Y-82750000D03*
%TO.P,U1,19,VDD_4*%
%TO.N,Net-(U1B-VDD_1)*%
X139250000Y-82750000D03*
%TO.P,U1,20,PA4*%
%TO.N,unconnected-(U1A-PA4-Pad20)*%
X138750000Y-82750000D03*
%TO.P,U1,21,PA5*%
%TO.N,unconnected-(U1A-PA5-Pad21)*%
X138250000Y-82750000D03*
%TO.P,U1,22,PA6*%
%TO.N,unconnected-(U1A-PA6-Pad22)*%
X137750000Y-82750000D03*
%TO.P,U1,23,PA7*%
%TO.N,unconnected-(U1A-PA7-Pad23)*%
X137250000Y-82750000D03*
%TO.P,U1,24,PC4*%
%TO.N,unconnected-(U1A-PC4-Pad24)*%
X136750000Y-82750000D03*
%TO.P,U1,25,PC5*%
%TO.N,unconnected-(U1A-PC5-Pad25)*%
X136250000Y-82750000D03*
%TO.P,U1,26,PB0*%
%TO.N,unconnected-(U1A-PB0-Pad26)*%
X135750000Y-82750000D03*
%TO.P,U1,27,PB1*%
%TO.N,unconnected-(U1A-PB1-Pad27)*%
X135250000Y-82750000D03*
%TO.P,U1,28,PB2(PB2/BOOT1)*%
%TO.N,/BOOT1*%
X134750000Y-82750000D03*
%TO.P,U1,29,PB10*%
%TO.N,unconnected-(U1A-PB10-Pad29)*%
X134250000Y-82750000D03*
%TO.P,U1,30,PB11*%
%TO.N,unconnected-(U1A-PB11-Pad30)*%
X133750000Y-82750000D03*
%TO.P,U1,31,VSS_1*%
%TO.N,Net-(U1A-VSS_1)*%
X133250000Y-82750000D03*
%TO.P,U1,32,VDD_1*%
%TO.N,Net-(U1B-VDD_1)*%
X132750000Y-82750000D03*
D19*
%TO.P,U1,33,PB12*%
%TO.N,/CS*%
X130837500Y-84662500D03*
%TO.P,U1,34,PB13*%
%TO.N,/SCK*%
X130837500Y-85162500D03*
%TO.P,U1,35,PB14*%
%TO.N,/MISO*%
X130837500Y-85662500D03*
%TO.P,U1,36,PB15*%
%TO.N,/MOSI*%
X130837500Y-86162500D03*
%TO.P,U1,37,PC6*%
%TO.N,unconnected-(U1A-PC6-Pad37)*%
X130837500Y-86662500D03*
%TO.P,U1,38,PC7*%
%TO.N,unconnected-(U1A-PC7-Pad38)*%
X130837500Y-87162500D03*
%TO.P,U1,39,PC8*%
%TO.N,unconnected-(U1A-PC8-Pad39)*%
X130837500Y-87662500D03*
%TO.P,U1,40,PC9*%
%TO.N,unconnected-(U1A-PC9-Pad40)*%
X130837500Y-88162500D03*
%TO.P,U1,41,PA8*%
%TO.N,unconnected-(U1A-PA8-Pad41)*%
X130837500Y-88662500D03*
%TO.P,U1,42,PA9*%
%TO.N,/TX*%
X130837500Y-89162500D03*
%TO.P,U1,43,PA10*%
%TO.N,/RX*%
X130837500Y-89662500D03*
%TO.P,U1,44,PA11*%
%TO.N,/GPIO3*%
X130837500Y-90162500D03*
%TO.P,U1,45,PA12*%
%TO.N,/GPIO4*%
X130837500Y-90662500D03*
%TO.P,U1,46,PA13(JTMS/SWCLK)*%
%TO.N,/TMS*%
X130837500Y-91162500D03*
%TO.P,U1,47,VSS_2*%
%TO.N,Net-(U1A-VSS_1)*%
X130837500Y-91662500D03*
%TO.P,U1,48,VDD_2*%
%TO.N,Net-(U1B-VDD_1)*%
X130837500Y-92162500D03*
D20*
%TO.P,U1,49,PA14(JTCK/SWCLK)*%
%TO.N,/TCK*%
X132750000Y-94075000D03*
%TO.P,U1,50,PA15(JTDI)*%
%TO.N,/TD1*%
X133250000Y-94075000D03*
%TO.P,U1,51,PC10*%
%TO.N,unconnected-(U1A-PC10-Pad51)*%
X133750000Y-94075000D03*
%TO.P,U1,52,PC11*%
%TO.N,unconnected-(U1A-PC11-Pad52)*%
X134250000Y-94075000D03*
%TO.P,U1,53,PC12*%
%TO.N,unconnected-(U1A-PC12-Pad53)*%
X134750000Y-94075000D03*
%TO.P,U1,54,PD2*%
%TO.N,unconnected-(U1A-PD2-Pad54)*%
X135250000Y-94075000D03*
%TO.P,U1,55,PB3(JTDO)*%
%TO.N,/TD0*%
X135750000Y-94075000D03*
%TO.P,U1,56,PB4(NJTRST)*%
%TO.N,/TRST*%
X136250000Y-94075000D03*
%TO.P,U1,57,PB5*%
%TO.N,unconnected-(U1A-PB5-Pad57)*%
X136750000Y-94075000D03*
%TO.P,U1,58,PB6*%
%TO.N,unconnected-(U1A-PB6-Pad58)*%
X137250000Y-94075000D03*
%TO.P,U1,59,PB7*%
%TO.N,unconnected-(U1A-PB7-Pad59)*%
X137750000Y-94075000D03*
%TO.P,U1,60,BOOT0*%
%TO.N,/BOOT0*%
X138250000Y-94075000D03*
%TO.P,U1,61,PB8*%
%TO.N,/CAN RX*%
X138750000Y-94075000D03*
%TO.P,U1,62,PB9*%
%TO.N,/CAN TX*%
X139250000Y-94075000D03*
%TO.P,U1,63,VSS_3*%
%TO.N,GND*%
X139750000Y-94075000D03*
%TO.P,U1,64,VDD_3*%
%TO.N,Net-(U1B-VDD_1)*%
X140250000Y-94075000D03*
%TD*%
D21*
%TO.P,JP3,1*%
%TO.N,GND*%
X115800000Y-69100000D03*
%TO.P,JP3,2*%
%TO.N,Net-(U1A-VSS_1)*%
X114500000Y-69100000D03*
%TD*%
D22*
%TO.P,C3,1*%
%TO.N,/FILT_HP*%
X164400000Y-76450000D03*
%TO.P,C3,2*%
%TO.N,GND*%
X164400000Y-78000000D03*
%TD*%
%TO.P,C2,1*%
%TO.N,VCC*%
X159100000Y-88275000D03*
%TO.P,C2,2*%
%TO.N,GND*%
X159100000Y-89825000D03*
%TD*%
D11*
%TO.P,R3,1*%
%TO.N,/CAN RX*%
X150750000Y-101100000D03*
%TO.P,R3,2*%
%TO.N,VCC*%
X150750000Y-102750000D03*
%TD*%
D22*
%TO.P,C4,1*%
%TO.N,/FILT_HP*%
X161650000Y-76450000D03*
%TO.P,C4,2*%
%TO.N,GND*%
X161650000Y-78000000D03*
%TD*%
%TO.P,C1,1*%
%TO.N,VCC*%
X164400000Y-88200000D03*
%TO.P,C1,2*%
%TO.N,GND*%
X164400000Y-89750000D03*
%TD*%
D17*
%TO.P,R5,1*%
%TO.N,Net-(P1-CLKOUT)*%
X155600000Y-90100000D03*
%TO.P,R5,2*%
%TO.N,/CLKI*%
X153950000Y-90100000D03*
%TD*%
D18*
%TO.P,JP2,1*%
%TO.N,Net-(U1A-VSS_1)*%
X114350000Y-75900000D03*
%TO.P,JP2,2*%
%TO.N,Net-(P1-SHUNTL)*%
X114350000Y-77200000D03*
%TO.P,JP2,3*%
%TO.N,Net-(U1B-VDD_1)*%
X114350000Y-78500000D03*
%TD*%
D22*
%TO.P,C8,1*%
%TO.N,Net-(U1B-VDD_1)*%
X125700000Y-101350000D03*
%TO.P,C8,2*%
%TO.N,GND*%
X125700000Y-102900000D03*
%TD*%
D23*
%TO.P,R1,1*%
%TO.N,/BOOT1*%
X136850000Y-79100000D03*
%TO.P,R1,2*%
%TO.N,GND*%
X138500000Y-79100000D03*
%TD*%
D24*
%TO.P,J1,1*%
%TO.N,unconnected-(J1-Pad1)*%
X140750000Y-101750000D03*
D25*
%TO.P,J1,2*%
%TO.N,/CAN RX*%
X141750000Y-101750000D03*
%TO.P,J1,3*%
%TO.N,/CAN TX*%
X140750000Y-102750000D03*
%TO.P,J1,4*%
%TO.N,VCC*%
X141750000Y-102750000D03*
%TO.P,J1,5*%
%TO.N,unconnected-(J1-Pad5)*%
X140750000Y-103750000D03*
%TO.P,J1,6*%
%TO.N,GND*%
X141750000Y-103750000D03*
%TD*%
D22*
%TO.P,C7,1*%
%TO.N,Net-(U1B-VDD_1)*%
X128600000Y-101325000D03*
%TO.P,C7,2*%
%TO.N,GND*%
X128600000Y-102875000D03*
%TD*%
%TO.P,C6,1*%
%TO.N,Net-(U1B-VDD_1)*%
X131500000Y-101375000D03*
%TO.P,C6,2*%
%TO.N,GND*%
X131500000Y-102925000D03*
%TD*%
%TO.P,C9,1*%
%TO.N,Net-(U1B-VDD_1)*%
X122850000Y-101375000D03*
%TO.P,C9,2*%
%TO.N,GND*%
X122850000Y-102925000D03*
%TD*%
D21*
%TO.P,JP4,1*%
%TO.N,Net-(P1-VCC1.2)*%
X151800000Y-79300000D03*
%TO.P,JP4,2*%
%TO.N,Net-(P1-FILTIN)*%
X153100000Y-79300000D03*
%TO.P,JP4,3*%
%TO.N,VCC*%
X154400000Y-79300000D03*
%TD*%
D26*
%TO.N,GND*%
X135200000Y-67000000D03*
X134330000Y-67000000D03*
X146730000Y-71100000D03*
X145851668Y-72650000D03*
D27*
X150515000Y-66985000D03*
D26*
X155300000Y-68900000D03*
X157330000Y-70100000D03*
X155730000Y-70200000D03*
D27*
%TO.N,VCC*%
X152300000Y-68300000D03*
D26*
X147400000Y-102750000D03*
X158000000Y-83800000D03*
X143900000Y-85100000D03*
X144100000Y-106600000D03*
X154400000Y-83800000D03*
D27*
X134100000Y-68800000D03*
D26*
X117800000Y-106600000D03*
D27*
X152300000Y-76300000D03*
X134200000Y-76000000D03*
X153700000Y-70400000D03*
D26*
X154400000Y-85100000D03*
X145500000Y-102750000D03*
%TO.N,GND*%
X122800000Y-104275000D03*
D27*
X140800000Y-86762500D03*
D26*
X140319240Y-95780760D03*
X117850000Y-69150000D03*
X125700000Y-104262500D03*
D27*
X135730000Y-67700000D03*
D26*
X161700000Y-79300000D03*
D27*
X128300000Y-67700000D03*
D26*
X164400000Y-91050000D03*
X164400000Y-79300000D03*
D27*
X142000000Y-68300000D03*
X150500000Y-68900000D03*
D26*
X131500000Y-104275000D03*
X128650000Y-104275000D03*
X159100000Y-91100000D03*
X141700000Y-105200000D03*
X160800000Y-85100000D03*
X138200000Y-105100000D03*
X139700000Y-79100000D03*
D27*
%TO.N,/FILT_HP*%
X154330000Y-67900000D03*
D26*
X155700000Y-74100000D03*
X161650000Y-74150000D03*
D27*
%TO.N,Net-(U1B-VDD_1)*%
X120400000Y-105900000D03*
X146300000Y-94200000D03*
X146300000Y-105900000D03*
X132650000Y-84000000D03*
X141300000Y-94100000D03*
X134500000Y-84000000D03*
D26*
%TO.N,/CAN RX*%
X139000000Y-97000000D03*
X147800000Y-101750000D03*
X143250000Y-101750000D03*
X141800000Y-97000000D03*
D27*
%TO.N,Net-(U1A-VSS_1)*%
X133300000Y-91600000D03*
X131900000Y-91600000D03*
X116650000Y-75900000D03*
X133300000Y-76000000D03*
%TO.N,Net-(P1-SHUNTL)*%
X116600000Y-77300000D03*
X157200000Y-77200000D03*
%TO.N,/PC3*%
X146500000Y-78200000D03*
X144000000Y-86014147D03*
X146500000Y-86000000D03*
X140700000Y-78200000D03*
X140730000Y-67596092D03*
D26*
%TO.N,/TX*%
X139980000Y-71500000D03*
X120200000Y-71500000D03*
X120200000Y-89200000D03*
D27*
X127600000Y-89200000D03*
%TO.N,/BOOT1*%
X136930000Y-75600000D03*
X147980000Y-69000000D03*
X147980000Y-72678630D03*
X146600000Y-72700000D03*
X146600000Y-75600000D03*
%TO.N,/PC1*%
X142730000Y-69718528D03*
D26*
%TO.N,/LED2*%
X149400000Y-91600000D03*
X149400000Y-72100000D03*
X144800000Y-91599997D03*
X144280000Y-71850000D03*
D27*
%TO.N,/TCK*%
X132700000Y-95900000D03*
X124300000Y-95900000D03*
D26*
%TO.N,/nRST*%
X148400000Y-89100000D03*
X145600000Y-89200000D03*
X142000000Y-73300000D03*
D27*
X141930000Y-70615585D03*
D26*
X148400000Y-73300000D03*
%TO.N,/LED3*%
X150200000Y-74000000D03*
X150200000Y-92400000D03*
X144800000Y-92400000D03*
X143450000Y-74000000D03*
D27*
%TO.N,/BOOT0*%
X131330000Y-82600000D03*
X133850000Y-84600000D03*
X150900000Y-99000000D03*
X149330001Y-67700000D03*
X139425000Y-99000000D03*
%TO.N,/GPIO3*%
X138300000Y-73300000D03*
X121100000Y-90500000D03*
X128013051Y-90473899D03*
X121100000Y-73300000D03*
%TO.N,/TRST*%
X136200000Y-96500000D03*
X124930000Y-69900000D03*
X124800000Y-96500000D03*
%TO.N,/PC0*%
X145200000Y-71200000D03*
%TO.N,/PC2*%
X141296572Y-68900000D03*
X145837500Y-86900000D03*
X141305024Y-74000000D03*
X144000000Y-87014147D03*
X145837500Y-74700000D03*
%TO.N,/MISO*%
X128850000Y-76600000D03*
X132050000Y-76600000D03*
D26*
%TO.N,/LED1*%
X147400000Y-90700000D03*
X144668480Y-90810880D03*
D27*
%TO.N,/SCK*%
X127900000Y-78000000D03*
X135800000Y-78000000D03*
X127900000Y-85100000D03*
X129511274Y-85022493D03*
%TO.N,/TMS*%
X127974234Y-91873332D03*
X125500000Y-91800000D03*
%TO.N,/MOSI*%
X128677165Y-86219586D03*
X126800000Y-86200000D03*
X126800000Y-70900000D03*
X132300000Y-70900000D03*
%TO.N,Net-(P1-CLKOUT)*%
X129300000Y-74600000D03*
X141800000Y-74600000D03*
X155600000Y-82700000D03*
X143900000Y-82700000D03*
%TO.N,/GPIO4*%
X137300000Y-74000000D03*
X118450000Y-74000000D03*
X127998463Y-91173749D03*
X118500000Y-91000000D03*
%TO.N,/RX*%
X139300000Y-72400000D03*
X119300000Y-72300000D03*
X127600000Y-89900000D03*
X119450000Y-89850000D03*
%TO.N,/CLKI*%
X151900000Y-90100000D03*
X144596564Y-90064333D03*
%TD*%
D28*
%TO.N,Net-(U1B-VDD_1)*%
X139200000Y-84000000D02*
X134500000Y-84000000D01*
X139250000Y-83950000D02*
X139200000Y-84000000D01*
X139250000Y-82750000D02*
X139250000Y-83950000D01*
%TO.N,GND*%
X150500000Y-68900000D02*
X150500000Y-67000000D01*
X149330000Y-67000000D02*
X149330000Y-63995000D01*
X150500000Y-67000000D02*
X149330000Y-67000000D01*
X150515000Y-66985000D02*
X150500000Y-67000000D01*
%TO.N,/BOOT0*%
X149500000Y-69780000D02*
X150830000Y-69780000D01*
X149330001Y-67700000D02*
X149330001Y-69610001D01*
X149330001Y-69610001D02*
X149500000Y-69780000D01*
%TO.N,/MISO*%
X132050000Y-72950000D02*
X132050000Y-76600000D01*
X133330000Y-72900000D02*
X132100000Y-72900000D01*
X132100000Y-72900000D02*
X132050000Y-72950000D01*
X133330000Y-63995000D02*
X133330000Y-72900000D01*
%TO.N,/BOOT0*%
X131330000Y-82600000D02*
X131330000Y-63995000D01*
%TO.N,/nRST*%
X142330000Y-67030000D02*
X142330000Y-63995000D01*
X142800000Y-67500000D02*
X142330000Y-67030000D01*
X141930000Y-69669999D02*
X142800000Y-68799999D01*
X141930000Y-70615585D02*
X141930000Y-69669999D01*
X142800000Y-68799999D02*
X142800000Y-67500000D01*
X141930000Y-71651471D02*
X142000000Y-71721471D01*
X141930000Y-70615585D02*
X141930000Y-71651471D01*
X142000000Y-71721471D02*
X142000000Y-73300000D01*
%TO.N,GND*%
X135330000Y-66870000D02*
X135200000Y-67000000D01*
X135330000Y-63995000D02*
X135330000Y-66870000D01*
X134330000Y-67000000D02*
X134330000Y-63995000D01*
%TO.N,/PC1*%
X144600000Y-88162500D02*
X142162500Y-88162500D01*
X142800000Y-69788528D02*
X142800000Y-79200000D01*
X142730000Y-69718528D02*
X142800000Y-69788528D01*
X142800000Y-79200000D02*
X144600000Y-81000000D01*
X144600000Y-81000000D02*
X144600000Y-88162500D01*
%TO.N,Net-(P1-CLKOUT)*%
X141800000Y-79500000D02*
X141800000Y-74600000D01*
X143900000Y-82700000D02*
X143900000Y-81600000D01*
X143900000Y-81600000D02*
X141800000Y-79500000D01*
%TO.N,GND*%
X145851668Y-72650000D02*
X145851668Y-71100000D01*
X145851668Y-71100000D02*
X146730000Y-71100000D01*
%TO.N,/PC0*%
X145200000Y-88644239D02*
X145181739Y-88662500D01*
X145181739Y-88662500D02*
X142162500Y-88662500D01*
X145200000Y-71200000D02*
X145200000Y-88644239D01*
%TO.N,/TX*%
X140130000Y-71350000D02*
X139980000Y-71500000D01*
X140330000Y-67147563D02*
X140130000Y-67347563D01*
X140130000Y-67347563D02*
X140130000Y-71350000D01*
X140330000Y-63995000D02*
X140330000Y-67147563D01*
%TO.N,Net-(P1-FILTIN)*%
X153300000Y-64025000D02*
X153330000Y-63995000D01*
X153300000Y-69951471D02*
X153300000Y-64025000D01*
X153100000Y-70151471D02*
X153300000Y-69951471D01*
X153100000Y-79300000D02*
X153100000Y-70151471D01*
%TO.N,/SCK*%
X136330000Y-69000000D02*
X136330000Y-63995000D01*
X135800000Y-69000000D02*
X136330000Y-69000000D01*
X135800000Y-78000000D02*
X135800000Y-69000000D01*
%TO.N,/PC3*%
X140696572Y-67629520D02*
X140730000Y-67596092D01*
X140696572Y-69148529D02*
X140696572Y-67629520D01*
X140700000Y-69151957D02*
X140696572Y-69148529D01*
X140700000Y-78200000D02*
X140700000Y-69151957D01*
X146500000Y-86000000D02*
X146500000Y-78200000D01*
%TO.N,/LED2*%
X149400000Y-91600000D02*
X149400000Y-72100000D01*
%TO.N,/BOOT1*%
X148000000Y-69020000D02*
X147980000Y-69000000D01*
X148000000Y-72658630D02*
X148000000Y-69020000D01*
X147980000Y-72678630D02*
X148000000Y-72658630D01*
X146600000Y-75600000D02*
X146600000Y-72700000D01*
%TO.N,/LED3*%
X143330000Y-73880000D02*
X143330000Y-63995000D01*
X143450000Y-74000000D02*
X143330000Y-73880000D01*
%TO.N,/nRST*%
X148400000Y-73300000D02*
X148400000Y-89100000D01*
%TO.N,/LED2*%
X144230000Y-71800000D02*
X144230000Y-63995000D01*
X144280000Y-71850000D02*
X144230000Y-71800000D01*
%TO.N,/PC2*%
X145837500Y-74700000D02*
X145837500Y-86900000D01*
X141330000Y-68933428D02*
X141296572Y-68900000D01*
X141305024Y-74000000D02*
X141330000Y-73975024D01*
X141330000Y-73975024D02*
X141330000Y-68933428D01*
%TO.N,GND*%
X141330000Y-67630000D02*
X141330000Y-63995000D01*
X142000000Y-68300000D02*
X141330000Y-67630000D01*
D29*
X155330000Y-68870000D02*
X155300000Y-68900000D01*
X155330000Y-63995000D02*
X155330000Y-68870000D01*
D28*
%TO.N,Net-(U1B-VDD_1)*%
X132750000Y-92300000D02*
X130975000Y-92300000D01*
X132750000Y-91898529D02*
X132750000Y-92300000D01*
X130975000Y-92300000D02*
X130837500Y-92162500D01*
X132700000Y-91351471D02*
X132700000Y-91848529D01*
X132750000Y-82750000D02*
X132750000Y-91301471D01*
X132750000Y-91301471D02*
X132700000Y-91351471D01*
X132700000Y-91848529D02*
X132750000Y-91898529D01*
%TO.N,/BOOT1*%
X136850000Y-80350000D02*
X136850000Y-79100000D01*
X134750000Y-80400000D02*
X136800000Y-80400000D01*
X134750000Y-82750000D02*
X134750000Y-80400000D01*
X136800000Y-80400000D02*
X136850000Y-80350000D01*
%TO.N,VCC*%
X143003120Y-86162500D02*
X142162500Y-86162500D01*
X154400000Y-79300000D02*
X154400000Y-83800000D01*
D29*
X159100000Y-88275000D02*
X159100000Y-88200000D01*
D28*
X153700000Y-70400000D02*
X153700000Y-77550000D01*
X143900000Y-85100000D02*
X143900000Y-85265620D01*
X140200000Y-92100000D02*
X144100000Y-96000000D01*
X117800000Y-102700000D02*
X117800000Y-106600000D01*
X143900000Y-102750000D02*
X144500000Y-102750000D01*
D29*
X159175000Y-88200000D02*
X159100000Y-88275000D01*
D28*
X154400000Y-85100000D02*
X154400000Y-83800000D01*
X134100000Y-75900000D02*
X134200000Y-76000000D01*
D29*
X159150000Y-83800000D02*
X159250000Y-83900000D01*
D28*
X134100000Y-68800000D02*
X134100000Y-75900000D01*
X144100000Y-106600000D02*
X144100000Y-102950000D01*
X141750000Y-102750000D02*
X143900000Y-102750000D01*
D29*
X144100000Y-102950000D02*
X143900000Y-102750000D01*
X159100000Y-88200000D02*
X159250000Y-88050000D01*
D28*
X159250000Y-88050000D02*
X159250000Y-83900000D01*
X144500000Y-102750000D02*
X145500000Y-102750000D01*
X150750000Y-102750000D02*
X147400000Y-102750000D01*
X158000000Y-83800000D02*
X159150000Y-83800000D01*
X142162500Y-86162500D02*
X140200000Y-86162500D01*
X154400000Y-78250000D02*
X154400000Y-79300000D01*
X143900000Y-85265620D02*
X143003120Y-86162500D01*
X153700000Y-77550000D02*
X154400000Y-78250000D01*
X140200000Y-86162500D02*
X140200000Y-92100000D01*
X152300000Y-68300000D02*
X152300000Y-76300000D01*
X144100000Y-96000000D02*
X144100000Y-102950000D01*
X164400000Y-88200000D02*
X159175000Y-88200000D01*
%TO.N,GND*%
X139750000Y-95211520D02*
X139750000Y-94075000D01*
D29*
X122850000Y-104225000D02*
X122800000Y-104275000D01*
X138137500Y-100250000D02*
X138250000Y-100362500D01*
D28*
X160800000Y-83900000D02*
X160800000Y-85100000D01*
X125700000Y-102937500D02*
X125700000Y-104262500D01*
X138500000Y-79100000D02*
X139700000Y-79100000D01*
D29*
X138200000Y-105100000D02*
X138250000Y-105050000D01*
X141750000Y-105150000D02*
X141700000Y-105200000D01*
D28*
X140900000Y-86662500D02*
X140800000Y-86762500D01*
X164400000Y-78000000D02*
X164400000Y-79300000D01*
D29*
X117800000Y-69100000D02*
X117850000Y-69150000D01*
D28*
X131500000Y-102925000D02*
X131500000Y-104275000D01*
D29*
X128600000Y-104225000D02*
X128650000Y-104275000D01*
D28*
X128600000Y-102875000D02*
X128600000Y-104225000D01*
X159100000Y-89825000D02*
X159100000Y-91100000D01*
X164400000Y-89750000D02*
X164400000Y-91050000D01*
D29*
X139750000Y-79150000D02*
X139700000Y-79100000D01*
D28*
X138250000Y-105050000D02*
X138250000Y-100500000D01*
X122850000Y-102925000D02*
X122850000Y-104225000D01*
X139750000Y-82750000D02*
X139750000Y-79150000D01*
D29*
X161650000Y-79250000D02*
X161700000Y-79300000D01*
D28*
X140319240Y-95780760D02*
X139750000Y-95211520D01*
X161650000Y-78000000D02*
X161650000Y-79250000D01*
X115800000Y-69100000D02*
X117800000Y-69100000D01*
X141750000Y-103750000D02*
X141750000Y-105150000D01*
X142162500Y-86662500D02*
X140900000Y-86662500D01*
%TO.N,/FILT_HP*%
X154330000Y-67900000D02*
X154330000Y-63995000D01*
X161650000Y-74150000D02*
X161650000Y-76450000D01*
D29*
X156330000Y-63995000D02*
X156330000Y-72500000D01*
X155650000Y-74050000D02*
X155700000Y-74100000D01*
D28*
X154330000Y-71100000D02*
X154330000Y-67900000D01*
X154330000Y-72500000D02*
X154330000Y-71100000D01*
X161650000Y-76450000D02*
X164400000Y-76450000D01*
X155650000Y-72500000D02*
X154330000Y-72500000D01*
D29*
X156330000Y-72500000D02*
X155650000Y-72500000D01*
D28*
X155650000Y-72500000D02*
X155650000Y-74050000D01*
D29*
%TO.N,Net-(U1B-VDD_1)*%
X128600000Y-101325000D02*
X128525000Y-101400000D01*
D28*
X131500000Y-99200000D02*
X131500000Y-101175000D01*
D29*
X126150000Y-101337500D02*
X126200000Y-101387500D01*
D28*
X126300000Y-101400000D02*
X122875000Y-101400000D01*
X131500000Y-101175000D02*
X131600000Y-101275000D01*
X146300000Y-94200000D02*
X146300000Y-105900000D01*
X114500000Y-101400000D02*
X117800000Y-101400000D01*
X114400000Y-94300000D02*
X114400000Y-101300000D01*
D29*
X126200000Y-101387500D02*
X126300000Y-101387500D01*
X126175000Y-101362500D02*
X126200000Y-101387500D01*
D28*
X141275000Y-94075000D02*
X141300000Y-94100000D01*
X140250000Y-94075000D02*
X141275000Y-94075000D01*
X120400000Y-105900000D02*
X120400000Y-101400000D01*
X131500000Y-101375000D02*
X129100000Y-101375000D01*
X130837500Y-92162500D02*
X130837500Y-98537500D01*
D29*
X128650000Y-101375000D02*
X128600000Y-101325000D01*
D28*
X114400000Y-78550000D02*
X114400000Y-94400000D01*
X114400000Y-101300000D02*
X114500000Y-101400000D01*
D29*
X122875000Y-101400000D02*
X122850000Y-101375000D01*
D28*
X120400000Y-101400000D02*
X117800000Y-101400000D01*
X114350000Y-78500000D02*
X114400000Y-78550000D01*
X122850000Y-101375000D02*
X120400000Y-101375000D01*
X128975000Y-101400000D02*
X126300000Y-101400000D01*
X130837500Y-98537500D02*
X131500000Y-99200000D01*
D29*
%TO.N,/CAN RX*%
X138750000Y-96750000D02*
X139000000Y-97000000D01*
D28*
X148450000Y-101100000D02*
X150750000Y-101100000D01*
X138750000Y-94075000D02*
X138750000Y-96750000D01*
X147800000Y-101750000D02*
X148450000Y-101100000D01*
D30*
X141800000Y-101700000D02*
X141750000Y-101750000D01*
X141800000Y-97000000D02*
X141750000Y-97050000D01*
D28*
X141750000Y-97050000D02*
X141750000Y-101750000D01*
X141750000Y-101750000D02*
X143250000Y-101750000D01*
D29*
%TO.N,/CAN TX*%
X140025000Y-102626040D02*
X140148960Y-102750000D01*
D28*
X139250000Y-94075000D02*
X139250000Y-95701471D01*
X139250000Y-95701471D02*
X140025000Y-96476471D01*
X140148960Y-102750000D02*
X140750000Y-102750000D01*
X140025000Y-96476471D02*
X140025000Y-102626040D01*
%TO.N,Net-(U1A-VSS_1)*%
X133300000Y-91600000D02*
X133250000Y-91550000D01*
X133300000Y-76000000D02*
X133250000Y-76050000D01*
X114500000Y-69100000D02*
X114500000Y-75750000D01*
X131900000Y-91600000D02*
X131837500Y-91662500D01*
X131837500Y-91662500D02*
X130837500Y-91662500D01*
X114500000Y-75750000D02*
X114450000Y-75800000D01*
X114550000Y-75900000D02*
X114450000Y-75800000D01*
X133250000Y-76050000D02*
X133250000Y-82750000D01*
X133250000Y-91550000D02*
X133250000Y-82750000D01*
X116650000Y-75900000D02*
X114550000Y-75900000D01*
D29*
X114300000Y-75950000D02*
X114350000Y-75900000D01*
X114350000Y-75900000D02*
X114450000Y-75800000D01*
D28*
%TO.N,Net-(P1-SHUNTL)*%
X157300000Y-72500000D02*
X159700000Y-72500000D01*
D29*
X156730000Y-72500000D02*
X157300000Y-72500000D01*
D28*
X116600000Y-77300000D02*
X114450000Y-77300000D01*
X114450000Y-77300000D02*
X114350000Y-77200000D01*
D29*
X157330000Y-66195000D02*
X156730000Y-66795000D01*
D28*
X159700000Y-72500000D02*
X159700000Y-77200000D01*
D30*
X157300000Y-72500000D02*
X157300000Y-72300000D01*
D29*
X156730000Y-66795000D02*
X156730000Y-72500000D01*
X157330000Y-63995000D02*
X157330000Y-66195000D01*
D28*
X159700000Y-77200000D02*
X157200000Y-77200000D01*
%TO.N,Net-(P1-VCC1.2)*%
X151330000Y-78830000D02*
X151330000Y-63995000D01*
X151800000Y-79300000D02*
X151330000Y-78830000D01*
%TO.N,/PC3*%
X144000000Y-86014147D02*
X144000000Y-86165620D01*
X144000000Y-86165620D02*
X143003120Y-87162500D01*
X143003120Y-87162500D02*
X142162500Y-87162500D01*
%TO.N,/TX*%
X120200000Y-89200000D02*
X120200000Y-71500000D01*
X127637500Y-89162500D02*
X130837500Y-89162500D01*
X127600000Y-89200000D02*
X127637500Y-89162500D01*
D30*
%TO.N,/BOOT1*%
X136800000Y-79050000D02*
X136850000Y-79100000D01*
D28*
X136850000Y-75680000D02*
X136850000Y-79100000D01*
D29*
X136930000Y-75600000D02*
X136850000Y-75680000D01*
D28*
%TO.N,/PC1*%
X141800000Y-88162500D02*
X142300000Y-88162500D01*
X142162500Y-88162500D02*
X141800000Y-88162500D01*
%TO.N,/LED2*%
X144699997Y-91700000D02*
X144800000Y-91599997D01*
X143662500Y-91162500D02*
X144200000Y-91700000D01*
X144200000Y-91700000D02*
X144699997Y-91700000D01*
X142162500Y-91162500D02*
X143662500Y-91162500D01*
%TO.N,/TCK*%
X132750000Y-95850000D02*
X132700000Y-95900000D01*
X124330000Y-95870000D02*
X124330000Y-63995000D01*
X124300000Y-95900000D02*
X124330000Y-95870000D01*
X132750000Y-94075000D02*
X132750000Y-95850000D01*
D29*
%TO.N,/nRST*%
X143962500Y-89162500D02*
X142162500Y-89162500D01*
D28*
X142162500Y-89162500D02*
X143003120Y-89162500D01*
X143040620Y-89200000D02*
X145600000Y-89200000D01*
X143003120Y-89162500D02*
X143040620Y-89200000D01*
%TO.N,/LED3*%
X143362500Y-91662500D02*
X144100000Y-92400000D01*
X144100000Y-92400000D02*
X144800000Y-92400000D01*
X142162500Y-91662500D02*
X143362500Y-91662500D01*
X150200000Y-74000000D02*
X150200000Y-92400000D01*
%TO.N,/BOOT0*%
X139425000Y-99000000D02*
X138400000Y-99000000D01*
X150880000Y-69830000D02*
X150880000Y-98980000D01*
X133750000Y-91000000D02*
X138250000Y-91000000D01*
X133750000Y-84700000D02*
X133750000Y-91000000D01*
X138250000Y-94075000D02*
X138250000Y-99012500D01*
X138250000Y-91000000D02*
X138250000Y-94075000D01*
D29*
X150880000Y-98980000D02*
X150900000Y-99000000D01*
X138400000Y-99000000D02*
X138250000Y-98850000D01*
D28*
X133850000Y-84600000D02*
X133750000Y-84700000D01*
D29*
X138150000Y-98750000D02*
X138250000Y-98850000D01*
D28*
%TO.N,/GPIO3*%
X138330000Y-63995000D02*
X138300000Y-64025000D01*
X128324450Y-90162500D02*
X130837500Y-90162500D01*
X128013051Y-90473899D02*
X128324450Y-90162500D01*
X138330000Y-73270000D02*
X138300000Y-73300000D01*
X121100000Y-90500000D02*
X121100000Y-73300000D01*
X138300000Y-64025000D02*
X138300000Y-73300000D01*
%TO.N,/TRST*%
X136250000Y-96450000D02*
X136200000Y-96500000D01*
X124900000Y-96400000D02*
X124900000Y-69930000D01*
X124800000Y-96500000D02*
X124900000Y-96400000D01*
X124900000Y-69930000D02*
X124930000Y-69900000D01*
X136250000Y-94075000D02*
X136250000Y-96450000D01*
%TO.N,/CS*%
X130330000Y-84155000D02*
X130330000Y-63995000D01*
X130837500Y-84662500D02*
X130330000Y-84155000D01*
%TO.N,/PC2*%
X142162500Y-87662500D02*
X143351647Y-87662500D01*
X143351647Y-87662500D02*
X144000000Y-87014147D01*
%TO.N,/MISO*%
X128900000Y-85662500D02*
X130837500Y-85662500D01*
X128900000Y-76650000D02*
X128900000Y-85662500D01*
X128850000Y-76600000D02*
X128900000Y-76650000D01*
%TO.N,/LED1*%
X144668480Y-90810880D02*
X144520100Y-90662500D01*
X147380000Y-90380000D02*
X147380000Y-64045000D01*
X144520100Y-90662500D02*
X142162500Y-90662500D01*
%TO.N,/SCK*%
X130837500Y-85162500D02*
X129651281Y-85162500D01*
X129651281Y-85162500D02*
X129511274Y-85022493D01*
X127900000Y-78000000D02*
X127900000Y-85100000D01*
%TO.N,/TMS*%
X127974234Y-91873332D02*
X127974234Y-91773749D01*
X125530000Y-64745000D02*
X125530000Y-91770000D01*
X127974234Y-91773749D02*
X128268836Y-91773749D01*
X128880085Y-91162500D02*
X130837500Y-91162500D01*
X125330000Y-64545000D02*
X125530000Y-64745000D01*
X125530000Y-91770000D02*
X125500000Y-91800000D01*
X128268836Y-91773749D02*
X128880085Y-91162500D01*
%TO.N,/MOSI*%
X128677165Y-86219586D02*
X128734251Y-86162500D01*
X126800000Y-86200000D02*
X126800000Y-70900000D01*
X132330000Y-70870000D02*
X132330000Y-63995000D01*
X132300000Y-70900000D02*
X132330000Y-70870000D01*
X128734251Y-86162500D02*
X130837500Y-86162500D01*
%TO.N,Net-(P1-CLKOUT)*%
X129300000Y-64025000D02*
X129330000Y-63995000D01*
X129300000Y-74600000D02*
X129300000Y-64025000D01*
X155600000Y-82700000D02*
X155600000Y-90100000D01*
%TO.N,/GPIO4*%
X128161730Y-91173749D02*
X128672979Y-90662500D01*
X137330000Y-73970000D02*
X137300000Y-74000000D01*
X128672979Y-90662500D02*
X130837500Y-90662500D01*
X127998463Y-91173749D02*
X128161730Y-91173749D01*
X137330000Y-63995000D02*
X137330000Y-73970000D01*
X118500000Y-91000000D02*
X118500000Y-74000000D01*
%TO.N,/RX*%
X127600000Y-89900000D02*
X127748529Y-89900000D01*
X119450000Y-89850000D02*
X119300000Y-89700000D01*
X127986029Y-89662500D02*
X130837500Y-89662500D01*
X139330000Y-63995000D02*
X139330000Y-72370000D01*
X139330000Y-72370000D02*
X139300000Y-72400000D01*
X127748529Y-89900000D02*
X127986029Y-89662500D01*
X119300000Y-89700000D02*
X119300000Y-72300000D01*
D29*
%TO.N,/CLKI*%
X153850000Y-90200000D02*
X153950000Y-90100000D01*
X144596564Y-90064333D02*
X144498397Y-90162500D01*
D28*
X153950000Y-90100000D02*
X151900000Y-90100000D01*
X144498397Y-90162500D02*
X142162500Y-90162500D01*
%TD*%
M02*
