M48
; DRILL file {KiCad 8.0.6} date 2024-10-28T16:16:51-0300
; FORMAT={-:-/ absolute / inch / decimal}
; #@! TF.CreationDate,2024-10-28T16:16:51-03:00
; #@! TF.GenerationSoftware,Kicad,Pcbnew,8.0.6
; #@! TF.FileFunction,Plated,1,2,PTH
FMAT,2
INCH
; #@! TA.AperFunction,Plated,PTH,ViaDrill
T1C0.0118
; #@! TA.AperFunction,Plated,PTH,ComponentDrill
T2C0.0118
; #@! TA.AperFunction,Plated,PTH,ComponentDrill
T3C0.0197
; #@! TA.AperFunction,Plated,PTH,ComponentDrill
T4C0.1260
%
G90
G05
T1
X4.5906Y-3.0433
X4.5925Y-2.9882
X4.6378Y-4.1969
X4.6398Y-2.7224
X4.6634Y-2.9134
X4.6654Y-3.5827
X4.6969Y-2.8465
X4.7028Y-3.5374
X4.7323Y-2.815
X4.7323Y-3.5118
X4.7402Y-4.1693
X4.7677Y-2.8858
X4.7677Y-3.563
X4.8346Y-4.1053
X4.8937Y-3.7756
X4.9134Y-3.7992
X4.9185Y-2.752
X4.9409Y-3.6142
X4.9488Y-4.1048
X4.9921Y-2.7913
X4.9921Y-3.3937
X5.0236Y-3.5118
X5.0236Y-3.5394
X5.0354Y-3.0709
X5.0354Y-3.3504
X5.0384Y-3.6171
X5.0393Y-3.5895
X5.0399Y-3.562
X5.0512Y-2.6654
X5.065Y-4.1053
X5.066Y-3.3945
X5.0728Y-3.0157
X5.0906Y-2.937
X5.0989Y-3.3473
X5.1705Y-3.252
X5.1772Y-4.1053
X5.1929Y-3.6063
X5.1988Y-3.0157
X5.2087Y-2.7913
X5.2224Y-3.3071
X5.2244Y-3.7756
X5.248Y-2.9921
X5.248Y-3.6063
X5.2697Y-3.3307
X5.2795Y-2.7087
X5.2835Y-2.9921
X5.2886Y-2.6378
X5.2953Y-3.3071
X5.3228Y-2.6378
X5.3437Y-2.6654
X5.3465Y-3.0709
X5.3622Y-3.7992
X5.3909Y-2.9764
X5.4055Y-2.9134
X5.4409Y-4.1378
X5.4449Y-2.8858
X5.4724Y-3.8189
X5.4843Y-2.8504
X5.4892Y-3.8976
X5.5Y-3.1142
X5.511Y-2.815
X5.5244Y-3.7709
X5.5394Y-3.0787
X5.5406Y-2.6613
X5.5433Y-3.4158
X5.5629Y-2.7126
X5.563Y-3.7047
X5.5632Y-2.9134
X5.5787Y-4.1417
X5.5827Y-2.937
X5.5827Y-3.8189
X5.5878Y-2.7801
X5.5906Y-2.689
X5.5906Y-2.8858
X5.6193Y-2.7448
X5.6398Y-4.0059
X5.6476Y-2.9134
X5.6654Y-3.2559
X5.6654Y-3.3504
X5.6693Y-3.3864
X5.6693Y-3.4258
X5.6732Y-4.1969
X5.6803Y-2.8287
X5.6928Y-3.5458
X5.6956Y-3.5752
X5.7008Y-3.6063
X5.7008Y-3.6378
X5.7165Y-2.8031
X5.7283Y-4.0453
X5.7323Y-3.5118
X5.7416Y-2.9409
X5.7416Y-3.4213
X5.7422Y-2.8602
X5.7598Y-3.7087
X5.7598Y-4.1693
X5.7677Y-3.0787
X5.7677Y-3.3858
X5.7717Y-2.8622
X5.7717Y-2.9764
X5.7768Y-2.7992
X5.8031Y-3.5709
X5.8031Y-4.0453
X5.8189Y-4.0059
X5.826Y-2.7165
X5.826Y-2.8614
X5.8425Y-2.8858
X5.8425Y-3.5079
X5.8791Y-2.6654
X5.8819Y-2.8386
X5.8819Y-3.6063
X5.9134Y-2.9134
X5.9134Y-3.6378
X5.9252Y-2.7126
X5.9258Y-2.6372
X5.9409Y-3.8976
X5.9803Y-3.5472
X5.9961Y-2.689
X5.9961Y-3.0039
X6.0512Y-2.7717
X6.076Y-2.6732
X6.0787Y-3.2992
X6.0787Y-3.3504
X6.1142Y-2.7126
X6.126Y-3.2559
X6.1299Y-2.9173
X6.1311Y-2.7638
X6.189Y-3.0394
X6.1941Y-2.7598
X6.2205Y-3.2992
X6.2638Y-3.5866
X6.3307Y-3.3504
X6.3642Y-2.9193
X6.3661Y-3.122
X6.4724Y-3.122
X6.4724Y-3.5846
T2
X4.4677Y-2.4033
X4.4949Y-2.338
X4.4949Y-2.4687
X4.5602Y-2.3108
X4.5602Y-2.4959
X4.6256Y-2.338
X4.6256Y-2.4687
X4.6528Y-2.4033
X6.4362Y-2.4033
X6.4634Y-2.338
X6.4634Y-2.4687
X6.5287Y-2.3112
X6.5287Y-2.4963
X6.5941Y-2.338
X6.5941Y-2.4687
X6.6213Y-2.4033
T3
X5.5413Y-4.0059
X5.5413Y-4.0453
X5.5413Y-4.0846
X5.5807Y-4.0059
X5.5807Y-4.0453
X5.5807Y-4.0846
T4
X4.5602Y-2.4033
X6.5287Y-2.4033
M30
